{"glyphs":{"0":{"ha":799,"x_min":47,"x_max":753,"o":"m 395 -17 q 47 471 47 -17 q 141 856 47 724 q 414 989 235 989 q 753 493 753 989 q 660 115 753 246 q 395 -17 568 -17 m 404 825 q 265 476 265 825 q 401 147 265 147 q 534 486 534 147 q 404 825 534 825 z "},"1":{"ha":799,"x_min":110,"x_max":730,"o":"m 730 0 l 115 0 l 115 170 l 317 170 l 317 775 l 110 730 l 110 904 l 530 989 l 530 170 l 730 170 l 730 0 z "},"2":{"ha":799,"x_min":74,"x_max":724,"o":"m 319 182 l 319 178 l 714 178 l 714 0 l 74 0 l 74 167 l 353 433 q 471 569 437 514 q 505 684 505 623 q 361 818 505 818 q 121 718 235 818 l 121 907 q 407 989 248 989 q 640 914 556 989 q 724 711 724 839 q 519 359 724 541 l 319 182 z "},"3":{"ha":799,"x_min":100,"x_max":720,"o":"m 100 32 l 100 218 q 328 147 197 147 q 455 182 410 147 q 501 281 501 218 q 445 381 501 346 q 289 416 388 416 l 201 416 l 201 581 l 282 581 q 472 707 472 581 q 326 825 472 825 q 136 762 229 825 l 136 937 q 375 989 239 989 q 607 922 524 989 q 690 747 690 854 q 497 509 690 557 l 497 505 q 660 430 600 492 q 720 278 720 368 q 620 62 720 142 q 345 -17 520 -17 q 100 32 194 -17 z "},"4":{"ha":799,"x_min":26,"x_max":762,"o":"m 762 207 l 646 207 l 646 0 l 450 0 l 450 207 l 26 207 l 26 343 l 435 972 l 646 972 l 646 359 l 762 359 l 762 207 m 453 758 l 449 758 q 412 682 439 734 l 204 359 l 450 359 l 450 665 q 453 758 450 706 z "},"5":{"ha":799,"x_min":111,"x_max":722,"o":"m 111 25 l 111 208 q 323 147 211 147 q 456 188 408 147 q 504 297 504 228 q 300 441 504 441 q 139 429 233 441 l 139 972 l 677 972 l 677 798 l 322 798 l 322 603 q 403 607 365 607 q 637 528 553 607 q 722 317 722 450 q 621 76 722 170 q 347 -17 520 -17 q 111 25 207 -17 z "},"6":{"ha":799,"x_min":68,"x_max":753,"o":"m 684 962 l 684 783 q 522 825 610 825 q 348 743 414 825 q 279 522 282 661 l 283 522 q 488 625 353 625 q 681 543 610 625 q 753 323 753 460 q 658 80 753 177 q 416 -17 563 -17 q 160 102 252 -17 q 68 435 68 220 q 186 838 68 687 q 509 989 305 989 q 684 962 621 989 m 415 467 q 321 425 356 467 q 286 319 286 384 q 322 198 286 248 q 416 147 357 147 q 509 192 474 147 q 543 310 543 237 q 415 467 543 467 z "},"7":{"ha":799,"x_min":65,"x_max":742,"o":"m 742 873 l 399 0 l 172 0 l 518 798 l 65 798 l 65 972 l 742 972 l 742 873 z "},"8":{"ha":799,"x_min":56,"x_max":746,"o":"m 252 505 l 252 509 q 85 730 85 577 q 174 916 85 843 q 406 989 264 989 q 636 921 550 989 q 722 745 722 852 q 538 510 722 585 l 538 507 q 691 411 637 478 q 746 261 746 345 q 651 58 746 132 q 385 -17 555 -17 q 146 56 237 -17 q 56 249 56 129 q 252 505 56 423 m 521 726 q 489 805 521 776 q 406 835 458 835 q 321 804 355 835 q 288 725 288 773 q 404 587 288 634 q 521 726 521 635 m 395 424 q 258 260 258 370 q 300 172 258 207 q 401 138 342 138 q 505 172 466 138 q 545 261 545 205 q 395 424 545 372 z "},"9":{"ha":799,"x_min":53,"x_max":737,"o":"m 109 21 l 109 197 q 293 147 185 147 q 467 223 406 147 q 529 440 528 300 l 525 441 q 329 346 460 346 q 131 429 210 346 q 53 646 53 513 q 149 895 53 801 q 396 989 244 989 q 645 871 552 989 q 737 533 737 753 q 626 128 737 273 q 314 -17 514 -17 q 109 21 195 -17 m 390 825 q 298 780 334 825 q 262 664 262 735 q 298 548 262 590 q 395 505 334 505 q 486 546 450 505 q 521 647 521 586 q 484 774 521 724 q 390 825 447 825 z "},"\u0000":{"ha":0,"x_min":0,"x_max":0,"o":""},"\r":{"ha":380,"x_min":0,"x_max":0,"o":""}," ":{"ha":383,"x_min":0,"x_max":0,"o":""},"A":{"ha":977,"x_min":7,"x_max":966,"o":"m 966 0 l 728 0 l 659 216 l 313 216 l 244 0 l 7 0 l 361 972 l 621 972 l 966 0 m 608 385 l 504 711 q 488 799 492 748 l 482 799 q 465 714 479 756 l 359 385 l 608 385 z "},"B":{"ha":890,"x_min":111,"x_max":842,"o":"m 111 0 l 111 972 l 465 972 q 715 913 628 972 q 803 745 803 853 q 750 607 803 666 q 614 525 696 548 l 614 522 q 780 446 718 509 q 842 290 842 382 q 746 78 842 157 q 485 0 650 0 l 111 0 m 330 811 l 330 581 l 427 581 q 533 613 494 581 q 572 704 572 646 q 412 811 572 811 l 330 811 m 330 418 l 330 161 l 449 161 q 568 197 525 161 q 611 293 611 232 q 569 385 611 351 q 450 418 526 418 l 330 418 z "},"C":{"ha":867,"x_min":50,"x_max":808,"o":"m 808 35 q 530 -17 702 -17 q 178 115 307 -17 q 50 465 50 246 q 194 844 50 699 q 568 989 338 989 q 808 953 711 989 l 808 742 q 586 800 711 800 q 365 714 449 800 q 281 481 281 628 q 360 256 281 340 q 574 172 439 172 q 808 235 702 172 l 808 35 z "},"D":{"ha":1024,"x_min":111,"x_max":974,"o":"m 111 0 l 111 972 l 456 972 q 974 498 974 972 q 832 136 974 271 q 456 0 691 0 l 111 0 m 330 794 l 330 178 l 439 178 q 662 263 581 178 q 743 496 743 349 q 663 714 743 635 q 437 794 583 794 l 330 794 z "},"E":{"ha":739,"x_min":111,"x_max":694,"o":"m 694 0 l 111 0 l 111 972 l 672 972 l 672 794 l 330 794 l 330 578 l 648 578 l 648 400 l 330 400 l 330 178 l 694 178 l 694 0 z "},"F":{"ha":722,"x_min":111,"x_max":673,"o":"m 673 794 l 330 794 l 330 555 l 646 555 l 646 378 l 330 378 l 330 0 l 111 0 l 111 972 l 673 972 l 673 794 z "},"G":{"ha":987,"x_min":50,"x_max":909,"o":"m 909 65 q 555 -17 767 -17 q 185 113 321 -17 q 50 471 50 243 q 198 844 50 700 q 591 989 346 989 q 864 946 746 989 l 864 741 q 589 806 751 806 q 367 717 452 806 q 281 481 281 629 q 358 249 281 331 q 566 167 435 167 q 690 189 644 167 l 690 379 l 496 379 l 496 554 l 909 554 l 909 65 z "},"H":{"ha":1064,"x_min":111,"x_max":953,"o":"m 953 0 l 733 0 l 733 396 l 330 396 l 330 0 l 111 0 l 111 972 l 330 972 l 330 585 l 733 585 l 733 972 l 953 972 l 953 0 z "},"I":{"ha":440,"x_min":30,"x_max":412,"o":"m 412 972 l 412 803 l 330 803 l 330 170 l 412 170 l 412 0 l 30 0 l 30 170 l 111 170 l 111 803 l 30 803 l 30 972 l 412 972 z "},"J":{"ha":618,"x_min":22,"x_max":517,"o":"m 517 386 q 426 87 517 191 q 164 -17 336 -17 q 22 9 87 -17 l 22 215 q 149 172 79 172 q 298 395 298 172 l 298 972 l 517 972 l 517 386 z "},"K":{"ha":901,"x_min":111,"x_max":920,"o":"m 920 0 l 643 0 l 359 422 q 334 476 351 435 l 330 476 l 330 0 l 111 0 l 111 972 l 330 972 l 330 513 l 334 513 q 361 567 342 532 l 629 972 l 890 972 l 551 509 l 920 0 z "},"L":{"ha":710,"x_min":111,"x_max":690,"o":"m 690 0 l 111 0 l 111 972 l 330 972 l 330 178 l 690 178 l 690 0 z "},"M":{"ha":1329,"x_min":111,"x_max":1219,"o":"m 1219 0 l 1003 0 l 1003 582 q 1011 790 1003 676 l 1006 790 q 975 661 989 701 l 747 0 l 568 0 l 336 654 q 306 790 327 681 l 300 790 q 309 538 309 646 l 309 0 l 111 0 l 111 972 l 432 972 l 631 396 q 665 257 654 327 l 669 257 q 708 397 688 338 l 907 972 l 1219 972 l 1219 0 z "},"N":{"ha":1097,"x_min":111,"x_max":986,"o":"m 986 0 l 765 0 l 364 611 q 315 692 329 665 l 313 692 q 318 534 318 640 l 318 0 l 111 0 l 111 972 l 347 972 l 733 380 q 782 301 760 340 l 785 301 q 779 435 779 335 l 779 972 l 986 972 l 986 0 z "},"O":{"ha":1053,"x_min":50,"x_max":1003,"o":"m 522 -17 q 182 119 313 -17 q 50 473 50 255 q 184 846 50 704 q 538 989 317 989 q 874 852 746 989 q 1003 493 1003 716 q 870 123 1003 264 q 522 -17 736 -17 m 532 800 q 349 714 416 800 q 281 485 281 627 q 349 256 281 340 q 526 172 416 172 q 706 254 640 172 q 772 481 772 336 q 708 716 772 632 q 532 800 644 800 z "},"P":{"ha":853,"x_min":111,"x_max":822,"o":"m 330 335 l 330 0 l 111 0 l 111 972 l 454 972 q 822 663 822 972 q 716 426 822 516 q 435 335 611 335 l 330 335 m 330 804 l 330 501 l 416 501 q 591 654 591 501 q 416 804 591 804 l 330 804 z "},"Q":{"ha":1053,"x_min":50,"x_max":1074,"o":"m 532 800 q 349 713 417 800 q 281 485 281 627 q 348 256 281 341 q 526 172 416 172 q 706 254 640 172 q 772 481 772 336 q 709 715 772 631 q 532 800 645 800 m 705 18 q 772 -44 741 -20 q 837 -83 804 -68 q 903 -102 869 -97 q 977 -108 937 -108 q 1000 -107 987 -108 q 1026 -103 1013 -106 q 1052 -98 1040 -101 q 1074 -91 1064 -95 l 1074 -275 q 1014 -288 1053 -281 q 921 -294 976 -294 q 799 -272 854 -294 q 691 -213 743 -250 q 592 -124 640 -175 q 491 -15 543 -73 q 310 26 391 -12 q 171 131 229 65 q 82 284 113 196 q 50 473 50 372 q 183 846 50 705 q 539 989 317 989 q 874 852 746 989 q 1003 493 1003 716 q 924 193 1003 319 q 705 18 846 69 z "},"R":{"ha":907,"x_min":111,"x_max":927,"o":"m 927 0 l 675 0 l 524 250 q 492 301 507 279 q 460 339 476 323 q 427 364 444 355 q 389 372 410 372 l 330 372 l 330 0 l 111 0 l 111 972 l 458 972 q 812 708 812 972 q 797 614 812 657 q 753 536 781 571 q 684 477 724 502 q 594 437 644 452 l 594 435 q 636 413 616 428 q 675 377 656 397 q 712 333 694 357 q 743 288 729 310 l 927 0 m 330 808 l 330 538 l 425 538 q 538 578 496 538 q 582 681 582 620 q 429 808 582 808 l 330 808 z "},"S":{"ha":779,"x_min":62,"x_max":730,"o":"m 66 37 l 66 254 q 195 180 125 205 q 334 155 264 155 q 407 163 376 155 q 458 183 437 170 q 489 215 479 197 q 499 254 499 233 q 483 304 499 282 q 438 346 467 327 q 372 382 410 365 q 288 418 333 400 q 118 534 174 466 q 62 700 62 603 q 93 830 62 776 q 176 920 123 885 q 298 972 229 956 q 444 989 367 989 q 579 980 520 989 q 687 951 637 970 l 687 749 q 634 779 663 766 q 574 800 605 791 q 514 812 544 808 q 456 817 484 817 q 389 809 419 817 q 337 789 358 802 q 304 759 316 777 q 293 718 293 741 q 306 674 293 694 q 342 638 319 655 q 400 604 366 621 q 477 570 434 587 q 582 518 535 545 q 661 456 628 490 q 712 377 694 421 q 730 273 730 332 q 699 137 730 192 q 615 47 668 81 q 492 -2 562 13 q 344 -17 422 -17 q 192 -3 264 -17 q 66 37 119 10 z "},"T":{"ha":814,"x_min":21,"x_max":794,"o":"m 794 794 l 517 794 l 517 0 l 297 0 l 297 794 l 21 794 l 21 972 l 794 972 l 794 794 z "},"U":{"ha":1004,"x_min":100,"x_max":904,"o":"m 904 421 q 496 -17 904 -17 q 100 411 100 -17 l 100 972 l 319 972 l 319 408 q 504 172 319 172 q 685 400 685 172 l 685 972 l 904 972 l 904 421 z "},"V":{"ha":926,"x_min":7,"x_max":921,"o":"m 921 972 l 586 0 l 338 0 l 7 972 l 243 972 l 446 296 q 465 199 462 241 l 469 199 q 490 298 474 244 l 692 972 l 921 972 z "},"W":{"ha":1396,"x_min":12,"x_max":1383,"o":"m 1383 972 l 1126 0 l 884 0 l 722 624 q 707 733 709 673 l 704 733 q 686 624 698 667 l 521 0 l 268 0 l 12 972 l 252 972 l 389 325 q 401 214 397 283 l 406 214 q 425 328 408 266 l 602 972 l 836 972 l 996 319 q 1011 215 1004 283 l 1014 215 q 1028 323 1017 269 l 1162 972 l 1383 972 z "},"X":{"ha":910,"x_min":4,"x_max":905,"o":"m 905 0 l 646 0 l 478 317 q 458 382 469 334 l 456 382 q 433 314 451 359 l 265 0 l 4 0 l 314 486 l 31 972 l 297 972 l 436 681 q 465 599 452 646 l 468 599 q 498 684 476 627 l 653 972 l 897 972 l 606 490 l 905 0 z "},"Y":{"ha":843,"x_min":0,"x_max":844,"o":"m 844 972 l 528 346 l 528 0 l 309 0 l 309 342 l 0 972 l 250 972 l 407 610 q 429 530 411 600 l 432 530 q 453 607 441 579 l 612 972 l 844 972 z "},"Z":{"ha":843,"x_min":28,"x_max":811,"o":"m 811 0 l 28 0 l 28 126 l 526 794 l 64 794 l 64 972 l 810 972 l 810 850 l 322 178 l 811 178 l 811 0 z "},"À":{"ha":977,"x_min":7,"x_max":966,"o":"m 966 0 l 728 0 l 659 216 l 313 216 l 244 0 l 7 0 l 361 972 l 621 972 l 966 0 m 608 385 l 504 711 q 488 799 492 748 l 482 799 q 465 714 479 756 l 359 385 l 608 385 m 621 1063 l 467 1063 l 254 1282 l 445 1282 l 621 1063 z "},"Á":{"ha":977,"x_min":7,"x_max":966,"o":"m 966 0 l 728 0 l 659 216 l 313 216 l 244 0 l 7 0 l 361 972 l 621 972 l 966 0 m 608 385 l 504 711 q 488 799 492 748 l 482 799 q 465 714 479 756 l 359 385 l 608 385 m 703 1282 l 490 1063 l 336 1063 l 512 1282 l 703 1282 z "},"Â":{"ha":977,"x_min":7,"x_max":966,"o":"m 966 0 l 728 0 l 659 216 l 313 216 l 244 0 l 7 0 l 361 972 l 621 972 l 966 0 m 608 385 l 504 711 q 488 799 492 748 l 482 799 q 465 714 479 756 l 359 385 l 608 385 m 731 1063 l 591 1063 l 484 1190 l 384 1063 l 243 1063 l 403 1283 l 571 1283 l 731 1063 z "},"Ã":{"ha":977,"x_min":7,"x_max":966,"o":"m 966 0 l 728 0 l 659 216 l 313 216 l 244 0 l 7 0 l 361 972 l 621 972 l 966 0 m 608 385 l 504 711 q 488 799 492 748 l 482 799 q 465 714 479 756 l 359 385 l 608 385 m 730 1274 q 693 1127 730 1179 q 590 1075 655 1075 q 476 1104 532 1075 q 393 1136 416 1136 q 338 1063 338 1136 l 243 1063 q 280 1209 243 1157 q 385 1261 317 1261 q 498 1228 439 1261 q 580 1198 552 1198 q 633 1274 633 1198 l 730 1274 z "},"Ä":{"ha":977,"x_min":7,"x_max":966,"o":"m 966 0 l 728 0 l 659 216 l 313 216 l 244 0 l 7 0 l 361 972 l 621 972 l 966 0 m 608 385 l 504 711 q 488 799 492 748 l 482 799 q 465 714 479 756 l 359 385 l 608 385 m 641 1063 q 566 1089 595 1063 q 537 1156 537 1116 q 566 1223 537 1197 q 641 1249 595 1249 q 716 1222 686 1249 q 745 1156 745 1196 q 716 1089 745 1115 q 641 1063 687 1063 m 330 1063 q 255 1089 284 1063 q 226 1156 226 1116 q 256 1222 226 1196 q 330 1249 286 1249 q 405 1222 376 1249 q 434 1156 434 1196 q 405 1088 434 1114 q 330 1063 376 1063 z "},"Å":{"ha":977,"x_min":7,"x_max":966,"o":"m 966 0 l 728 0 l 659 216 l 313 216 l 244 0 l 7 0 l 354 954 q 318 1047 318 991 q 368 1162 318 1119 q 490 1204 418 1204 q 615 1161 568 1204 q 663 1050 663 1118 q 627 957 663 996 l 966 0 m 488 1116 q 437 1096 456 1116 q 418 1048 418 1077 q 488 982 418 982 q 540 1001 520 982 q 559 1048 559 1021 q 539 1097 559 1078 q 488 1116 519 1116 m 606 396 l 503 711 q 488 793 494 739 l 482 793 q 467 714 477 747 l 363 396 l 606 396 z "},"Æ":{"ha":1299,"x_min":-1,"x_max":1254,"o":"m 1254 0 l 672 0 l 672 216 l 353 216 l 253 0 l -1 0 l 490 972 l 1232 972 l 1232 794 l 890 794 l 890 578 l 1208 578 l 1208 400 l 890 400 l 890 178 l 1254 178 l 1254 0 m 672 385 l 672 794 l 619 794 l 428 385 l 672 385 z "},"Ç":{"ha":867,"x_min":50,"x_max":808,"o":"m 808 35 q 530 -17 702 -17 q 178 115 307 -17 q 50 465 50 246 q 194 844 50 699 q 568 989 338 989 q 808 953 711 989 l 808 742 q 586 800 711 800 q 365 714 449 800 q 281 481 281 628 q 360 256 281 340 q 574 172 439 172 q 808 235 702 172 l 808 35 m 414 -306 l 414 -212 q 463 -216 437 -216 q 546 -167 546 -216 q 471 -122 546 -122 q 446 -123 462 -122 l 446 0 l 562 0 l 562 -56 q 689 -168 689 -61 q 473 -309 689 -309 q 414 -306 442 -309 z "},"È":{"ha":739,"x_min":111,"x_max":694,"o":"m 694 0 l 111 0 l 111 972 l 672 972 l 672 794 l 330 794 l 330 578 l 648 578 l 648 400 l 330 400 l 330 178 l 694 178 l 694 0 m 519 1063 l 366 1063 l 153 1282 l 343 1282 l 519 1063 z "},"É":{"ha":739,"x_min":111,"x_max":694,"o":"m 694 0 l 111 0 l 111 972 l 672 972 l 672 794 l 330 794 l 330 578 l 648 578 l 648 400 l 330 400 l 330 178 l 694 178 l 694 0 m 633 1282 l 421 1063 l 267 1063 l 443 1282 l 633 1282 z "},"Ê":{"ha":739,"x_min":111,"x_max":694,"o":"m 694 0 l 111 0 l 111 972 l 672 972 l 672 794 l 330 794 l 330 578 l 648 578 l 648 400 l 330 400 l 330 178 l 694 178 l 694 0 m 632 1063 l 492 1063 l 385 1190 l 285 1063 l 144 1063 l 304 1283 l 472 1283 l 632 1063 z "},"Ë":{"ha":739,"x_min":111,"x_max":694,"o":"m 694 0 l 111 0 l 111 972 l 672 972 l 672 794 l 330 794 l 330 578 l 648 578 l 648 400 l 330 400 l 330 178 l 694 178 l 694 0 m 551 1063 q 476 1089 505 1063 q 447 1156 447 1116 q 476 1223 447 1197 q 551 1249 505 1249 q 626 1222 596 1249 q 655 1156 655 1196 q 626 1089 655 1115 q 551 1063 597 1063 m 240 1063 q 165 1089 194 1063 q 136 1156 136 1116 q 165 1222 136 1196 q 240 1249 195 1249 q 315 1222 286 1249 q 344 1156 344 1196 q 315 1088 344 1114 q 240 1063 286 1063 z "},"Ì":{"ha":440,"x_min":-6,"x_max":412,"o":"m 412 972 l 412 803 l 330 803 l 330 170 l 412 170 l 412 0 l 30 0 l 30 170 l 111 170 l 111 803 l 30 803 l 30 972 l 412 972 m 361 1063 l 207 1063 l -6 1282 l 184 1282 l 361 1063 z "},"Í":{"ha":440,"x_min":30,"x_max":441,"o":"m 412 972 l 412 803 l 330 803 l 330 170 l 412 170 l 412 0 l 30 0 l 30 170 l 111 170 l 111 803 l 30 803 l 30 972 l 412 972 m 441 1282 l 229 1063 l 75 1063 l 251 1282 l 441 1282 z "},"Î":{"ha":440,"x_min":-19,"x_max":469,"o":"m 412 972 l 412 803 l 330 803 l 330 170 l 412 170 l 412 0 l 30 0 l 30 170 l 111 170 l 111 803 l 30 803 l 30 972 l 412 972 m 469 1063 l 328 1063 l 221 1190 l 121 1063 l -19 1063 l 140 1283 l 309 1283 l 469 1063 z "},"Ï":{"ha":440,"x_min":-36,"x_max":484,"o":"m 412 972 l 412 803 l 330 803 l 330 170 l 412 170 l 412 0 l 30 0 l 30 170 l 111 170 l 111 803 l 30 803 l 30 972 l 412 972 m 379 1063 q 304 1089 334 1063 q 275 1156 275 1116 q 304 1223 275 1197 q 379 1249 334 1249 q 454 1222 425 1249 q 484 1156 484 1196 q 454 1089 484 1115 q 379 1063 425 1063 m 68 1063 q -7 1089 22 1063 q -36 1156 -36 1116 q -6 1222 -36 1196 q 68 1249 24 1249 q 143 1222 115 1249 q 172 1156 172 1196 q 143 1088 172 1114 q 68 1063 115 1063 z "},"Ñ":{"ha":1097,"x_min":111,"x_max":986,"o":"m 986 0 l 765 0 l 364 611 q 315 692 329 665 l 313 692 q 318 534 318 640 l 318 0 l 111 0 l 111 972 l 347 972 l 733 380 q 782 301 760 340 l 785 301 q 779 435 779 335 l 779 972 l 986 972 l 986 0 m 818 1274 q 780 1127 818 1179 q 677 1075 743 1075 q 564 1104 619 1075 q 480 1136 503 1136 q 426 1063 426 1136 l 330 1063 q 368 1209 330 1157 q 472 1261 405 1261 q 586 1228 527 1261 q 667 1198 640 1198 q 720 1274 720 1198 l 818 1274 z "},"Ò":{"ha":1053,"x_min":50,"x_max":1003,"o":"m 522 -17 q 182 119 313 -17 q 50 473 50 255 q 184 846 50 704 q 538 989 317 989 q 874 852 746 989 q 1003 493 1003 716 q 870 123 1003 264 q 522 -17 736 -17 m 532 800 q 349 714 416 800 q 281 485 281 627 q 349 256 281 340 q 526 172 416 172 q 706 254 640 172 q 772 481 772 336 q 708 716 772 632 q 532 800 644 800 m 659 1063 l 505 1063 l 292 1282 l 482 1282 l 659 1063 z "},"Ó":{"ha":1053,"x_min":50,"x_max":1003,"o":"m 522 -17 q 182 119 313 -17 q 50 473 50 255 q 184 846 50 704 q 538 989 317 989 q 874 852 746 989 q 1003 493 1003 716 q 870 123 1003 264 q 522 -17 736 -17 m 532 800 q 349 714 416 800 q 281 485 281 627 q 349 256 281 340 q 526 172 416 172 q 706 254 640 172 q 772 481 772 336 q 708 716 772 632 q 532 800 644 800 m 753 1282 l 541 1063 l 386 1063 l 562 1282 l 753 1282 z "},"Ô":{"ha":1053,"x_min":50,"x_max":1003,"o":"m 522 -17 q 182 119 313 -17 q 50 473 50 255 q 184 846 50 704 q 538 989 317 989 q 874 852 746 989 q 1003 493 1003 716 q 870 123 1003 264 q 522 -17 736 -17 m 532 800 q 349 714 416 800 q 281 485 281 627 q 349 256 281 340 q 526 172 416 172 q 706 254 640 172 q 772 481 772 336 q 708 716 772 632 q 532 800 644 800 m 779 1063 l 639 1063 l 532 1190 l 432 1063 l 292 1063 l 451 1283 l 619 1283 l 779 1063 z "},"Õ":{"ha":1053,"x_min":50,"x_max":1003,"o":"m 522 -17 q 182 119 313 -17 q 50 473 50 255 q 184 846 50 704 q 538 989 317 989 q 874 852 746 989 q 1003 493 1003 716 q 870 123 1003 264 q 522 -17 736 -17 m 532 800 q 349 714 416 800 q 281 485 281 627 q 349 256 281 340 q 526 172 416 172 q 706 254 640 172 q 772 481 772 336 q 708 716 772 632 q 532 800 644 800 m 778 1274 q 740 1127 778 1179 q 637 1075 703 1075 q 524 1104 579 1075 q 440 1136 463 1136 q 386 1063 386 1136 l 290 1063 q 328 1209 290 1157 q 432 1261 365 1261 q 546 1228 487 1261 q 627 1198 600 1198 q 680 1274 680 1198 l 778 1274 z "},"Ö":{"ha":1053,"x_min":50,"x_max":1003,"o":"m 522 -17 q 182 119 313 -17 q 50 473 50 255 q 184 846 50 704 q 538 989 317 989 q 874 852 746 989 q 1003 493 1003 716 q 870 123 1003 264 q 522 -17 736 -17 m 532 800 q 349 714 416 800 q 281 485 281 627 q 349 256 281 340 q 526 172 416 172 q 706 254 640 172 q 772 481 772 336 q 708 716 772 632 q 532 800 644 800 m 681 1063 q 606 1089 635 1063 q 577 1156 577 1116 q 606 1223 577 1197 q 681 1249 635 1249 q 756 1222 726 1249 q 785 1156 785 1196 q 756 1089 785 1115 q 681 1063 727 1063 m 370 1063 q 295 1089 324 1063 q 266 1156 266 1116 q 296 1222 266 1196 q 370 1249 326 1249 q 445 1222 416 1249 q 474 1156 474 1196 q 445 1088 474 1114 q 370 1063 416 1063 z "},"Ø":{"ha":1053,"x_min":50,"x_max":1003,"o":"m 236 74 l 139 -41 l 54 29 l 155 149 q 50 473 50 279 q 183 846 50 704 q 538 989 317 989 q 810 908 696 989 l 897 1010 l 982 940 l 890 833 q 1003 493 1003 701 q 870 123 1003 264 q 522 -17 736 -17 q 236 74 359 -17 m 689 766 q 532 818 623 818 q 337 725 409 818 q 265 481 265 633 q 297 310 265 382 l 689 766 m 753 675 l 361 216 q 526 154 429 154 q 717 241 645 154 q 789 479 789 328 q 753 675 789 591 z "},"Œ":{"ha":1305,"x_min":50,"x_max":1261,"o":"m 1261 0 l 700 0 q 621 -8 682 0 q 514 -17 559 -17 q 178 121 306 -17 q 50 473 50 258 q 182 847 50 705 q 532 989 313 989 q 634 981 574 989 q 708 972 694 972 l 1239 972 l 1239 794 l 897 794 l 897 575 l 1215 575 l 1215 396 l 897 396 l 897 178 l 1261 178 l 1261 0 m 672 207 l 672 765 q 530 800 614 800 q 349 712 416 800 q 282 482 282 625 q 351 257 282 341 q 528 172 419 172 q 672 207 606 172 z "},"Š":{"ha":779,"x_min":62,"x_max":730,"o":"m 66 37 l 66 254 q 195 180 125 205 q 334 155 264 155 q 407 163 376 155 q 458 183 437 170 q 489 215 479 197 q 499 254 499 233 q 483 304 499 282 q 438 346 467 327 q 372 382 410 365 q 288 418 333 400 q 118 534 174 466 q 62 700 62 603 q 93 830 62 776 q 176 920 123 885 q 298 972 229 956 q 444 989 367 989 q 579 980 520 989 q 687 951 637 970 l 687 749 q 634 779 663 766 q 574 800 605 791 q 514 812 544 808 q 456 817 484 817 q 389 809 419 817 q 337 789 358 802 q 304 759 316 777 q 293 718 293 741 q 306 674 293 694 q 342 638 319 655 q 400 604 366 621 q 477 570 434 587 q 582 518 535 545 q 661 456 628 490 q 712 377 694 421 q 730 273 730 332 q 699 137 730 192 q 615 47 668 81 q 492 -2 562 13 q 344 -17 422 -17 q 192 -3 264 -17 q 66 37 119 10 m 660 1262 l 498 1042 l 330 1042 l 171 1262 l 310 1262 l 415 1135 l 521 1262 l 660 1262 z "},"Ù":{"ha":1004,"x_min":100,"x_max":904,"o":"m 904 421 q 496 -17 904 -17 q 100 411 100 -17 l 100 972 l 319 972 l 319 408 q 504 172 319 172 q 685 400 685 172 l 685 972 l 904 972 l 904 421 m 624 1063 l 470 1063 l 257 1282 l 448 1282 l 624 1063 z "},"Ú":{"ha":1004,"x_min":100,"x_max":904,"o":"m 904 421 q 496 -17 904 -17 q 100 411 100 -17 l 100 972 l 319 972 l 319 408 q 504 172 319 172 q 685 400 685 172 l 685 972 l 904 972 l 904 421 m 738 1282 l 526 1063 l 371 1063 l 547 1282 l 738 1282 z "},"Û":{"ha":1004,"x_min":100,"x_max":904,"o":"m 904 421 q 496 -17 904 -17 q 100 411 100 -17 l 100 972 l 319 972 l 319 408 q 504 172 319 172 q 685 400 685 172 l 685 972 l 904 972 l 904 421 m 745 1063 l 605 1063 l 498 1190 l 398 1063 l 258 1063 l 417 1283 l 585 1283 l 745 1063 z "},"Ü":{"ha":1004,"x_min":100,"x_max":904,"o":"m 904 421 q 496 -17 904 -17 q 100 411 100 -17 l 100 972 l 319 972 l 319 408 q 504 172 319 172 q 685 400 685 172 l 685 972 l 904 972 l 904 421 m 657 1063 q 583 1089 612 1063 q 553 1156 553 1116 q 583 1223 553 1197 q 657 1249 612 1249 q 732 1222 703 1249 q 762 1156 762 1196 q 732 1089 762 1115 q 657 1063 703 1063 m 347 1063 q 271 1089 300 1063 q 242 1156 242 1116 q 272 1222 242 1196 q 347 1249 302 1249 q 421 1222 393 1249 q 450 1156 450 1196 q 421 1088 450 1114 q 347 1063 393 1063 z "},"Ý":{"ha":843,"x_min":0,"x_max":844,"o":"m 844 972 l 528 346 l 528 0 l 309 0 l 309 342 l 0 972 l 250 972 l 407 610 q 429 530 411 600 l 432 530 q 453 607 441 579 l 612 972 l 844 972 m 612 1259 l 400 1040 l 245 1040 l 422 1259 l 612 1259 z "},"Ÿ":{"ha":843,"x_min":0,"x_max":844,"o":"m 844 972 l 528 346 l 528 0 l 309 0 l 309 342 l 0 972 l 250 972 l 407 610 q 429 530 411 600 l 432 530 q 453 607 441 579 l 612 972 l 844 972 m 582 1063 q 507 1089 536 1063 q 478 1156 478 1116 q 507 1223 478 1197 q 582 1249 536 1249 q 657 1222 627 1249 q 686 1156 686 1196 q 657 1089 686 1115 q 582 1063 628 1063 m 271 1063 q 196 1089 225 1063 q 167 1156 167 1116 q 197 1222 167 1196 q 271 1249 227 1249 q 346 1222 317 1249 q 375 1156 375 1196 q 346 1088 375 1114 q 271 1063 317 1063 z "},"Ž":{"ha":843,"x_min":28,"x_max":811,"o":"m 811 0 l 28 0 l 28 126 l 526 794 l 64 794 l 64 972 l 810 972 l 810 850 l 322 178 l 811 178 l 811 0 m 671 1260 l 510 1040 l 342 1040 l 182 1260 l 321 1260 l 427 1133 l 532 1260 l 671 1260 z "},"Ð":{"ha":1024,"x_min":0,"x_max":974,"o":"m 111 0 l 111 397 l 0 397 l 0 578 l 111 578 l 111 972 l 456 972 q 974 498 974 972 q 832 136 974 271 q 456 0 691 0 l 111 0 m 330 794 l 330 578 l 514 578 l 514 397 l 330 397 l 330 178 l 439 178 q 662 263 581 178 q 743 496 743 349 q 663 714 743 635 q 437 794 583 794 l 330 794 z "},"Þ":{"ha":853,"x_min":111,"x_max":822,"o":"m 330 191 l 330 0 l 111 0 l 111 972 l 330 972 l 330 829 l 454 829 q 822 519 822 829 q 716 282 822 373 q 435 191 611 191 l 330 191 m 330 661 l 330 358 l 416 358 q 591 511 591 358 q 416 661 591 661 l 330 661 z "},"a":{"ha":747,"x_min":39,"x_max":668,"o":"m 668 0 l 465 0 l 465 100 l 463 100 q 256 -17 393 -17 q 97 40 155 -17 q 39 193 39 98 q 278 427 39 395 l 467 452 q 343 566 467 566 q 107 492 219 566 l 107 653 q 230 694 152 676 q 371 711 307 711 q 668 415 668 711 l 668 0 m 467 282 l 467 329 l 340 313 q 236 218 236 299 q 261 158 236 182 q 330 135 287 135 q 429 177 391 135 q 467 282 467 218 z "},"b":{"ha":861,"x_min":90,"x_max":812,"o":"m 307 81 l 304 81 l 304 0 l 90 0 l 90 1028 l 304 1028 l 304 590 l 307 590 q 533 711 387 711 q 740 619 667 711 q 812 367 812 527 q 728 88 812 193 q 501 -17 643 -17 q 307 81 373 -17 m 301 374 l 301 302 q 340 191 301 235 q 439 147 378 147 q 552 204 512 147 q 593 364 593 260 q 556 499 593 450 q 450 547 519 547 q 343 499 386 547 q 301 374 301 451 z "},"c":{"ha":667,"x_min":49,"x_max":616,"o":"m 616 25 q 407 -17 544 -17 q 148 80 247 -17 q 49 330 49 177 q 155 609 49 507 q 439 711 261 711 q 616 679 562 711 l 616 497 q 467 547 549 547 q 320 493 374 547 q 267 345 267 439 q 318 200 267 252 q 460 147 370 147 q 616 197 540 147 l 616 25 z "},"d":{"ha":860,"x_min":49,"x_max":770,"o":"m 770 0 l 555 0 l 555 96 l 553 96 q 338 -17 479 -17 q 128 75 208 -17 q 49 332 49 167 q 136 608 49 504 q 366 711 224 711 q 553 615 500 711 l 555 615 l 555 1028 l 770 1028 l 770 0 m 559 338 l 559 390 q 520 503 559 458 q 418 547 481 547 q 307 491 347 547 q 267 338 267 435 q 305 197 267 246 q 412 147 344 147 q 518 199 477 147 q 559 338 559 252 z "},"e":{"ha":751,"x_min":49,"x_max":714,"o":"m 714 286 l 261 286 q 452 135 272 135 q 653 189 566 135 l 653 35 q 403 -17 557 -17 q 142 76 235 -17 q 49 336 49 170 q 149 610 49 509 q 396 711 250 711 q 631 621 548 711 q 714 376 714 531 l 714 286 m 515 418 q 395 567 515 567 q 306 524 343 567 q 260 418 268 481 l 515 418 z "},"f":{"ha":532,"x_min":31,"x_max":543,"o":"m 543 864 q 464 880 502 880 q 361 768 361 880 l 361 694 l 519 694 l 519 536 l 361 536 l 361 0 l 147 0 l 147 536 l 31 536 l 31 694 l 147 694 l 147 781 q 224 972 147 899 q 435 1044 302 1044 q 543 1031 500 1044 l 543 864 z "},"g":{"ha":860,"x_min":49,"x_max":771,"o":"m 771 79 q 659 -220 771 -114 q 335 -326 547 -326 q 113 -286 195 -326 l 113 -106 q 329 -168 220 -168 q 497 -111 437 -168 q 557 45 557 -54 l 557 100 l 554 100 q 338 -17 481 -17 q 127 77 205 -17 q 49 328 49 170 q 136 608 49 504 q 364 711 222 711 q 554 614 491 711 l 557 614 l 557 694 l 771 694 l 771 79 m 559 334 l 559 389 q 520 501 559 454 q 419 547 481 547 q 307 492 348 547 q 267 335 267 436 q 305 198 267 248 q 411 147 344 147 q 518 198 477 147 q 559 334 559 250 z "},"h":{"ha":836,"x_min":90,"x_max":757,"o":"m 757 0 l 543 0 l 543 395 q 432 547 543 547 q 340 505 375 547 q 304 396 304 462 l 304 0 l 90 0 l 90 1028 l 304 1028 l 304 591 l 307 591 q 521 711 386 711 q 757 427 757 711 l 757 0 z "},"i":{"ha":395,"x_min":75,"x_max":322,"o":"m 199 804 q 110 837 144 804 q 75 916 75 869 q 110 994 75 964 q 199 1025 144 1025 q 288 994 254 1025 q 322 916 322 964 q 288 836 322 867 q 199 804 254 804 m 304 0 l 90 0 l 90 694 l 304 694 l 304 0 z "},"j":{"ha":395,"x_min":-90,"x_max":322,"o":"m 199 804 q 110 837 144 804 q 75 916 75 869 q 110 994 75 964 q 199 1025 144 1025 q 288 994 254 1025 q 322 916 322 964 q 288 836 322 867 q 199 804 254 804 m 304 12 q 229 -234 304 -142 q 12 -326 154 -326 q -90 -306 -35 -326 l -90 -138 q -11 -163 -45 -163 q 90 -4 90 -163 l 90 694 l 304 694 l 304 12 z "},"k":{"ha":777,"x_min":90,"x_max":786,"o":"m 786 0 l 529 0 l 307 345 l 304 345 l 304 0 l 90 0 l 90 1028 l 304 1028 l 304 374 l 307 374 l 514 694 l 768 694 l 519 368 l 786 0 z "},"l":{"ha":395,"x_min":90,"x_max":304,"o":"m 304 0 l 90 0 l 90 1028 l 304 1028 l 304 0 z "},"m":{"ha":1272,"x_min":90,"x_max":1193,"o":"m 1193 0 l 979 0 l 979 396 q 868 547 979 547 q 782 502 815 547 q 749 389 749 456 l 749 0 l 534 0 l 534 400 q 425 547 534 547 q 337 504 370 547 q 304 386 304 460 l 304 0 l 90 0 l 90 694 l 304 694 l 304 586 l 307 586 q 400 676 340 642 q 532 711 460 711 q 733 582 679 711 q 966 711 812 711 q 1193 432 1193 711 l 1193 0 z "},"n":{"ha":840,"x_min":90,"x_max":761,"o":"m 761 0 l 547 0 l 547 386 q 432 547 547 547 q 340 505 376 547 q 304 396 304 462 l 304 0 l 90 0 l 90 694 l 304 694 l 304 585 l 307 585 q 530 711 384 711 q 761 425 761 711 l 761 0 z "},"o":{"ha":849,"x_min":49,"x_max":800,"o":"m 421 -17 q 148 80 248 -17 q 49 345 49 178 q 152 614 49 517 q 431 711 255 711 q 702 614 604 711 q 800 357 800 517 q 699 83 800 184 q 421 -17 597 -17 m 427 547 q 309 495 351 547 q 267 347 267 443 q 428 147 267 147 q 582 353 582 147 q 427 547 582 547 z "},"p":{"ha":861,"x_min":90,"x_max":812,"o":"m 307 81 l 304 81 l 304 -319 l 90 -319 l 90 694 l 304 694 l 304 590 l 307 590 q 530 711 387 711 q 739 619 665 711 q 812 367 812 526 q 727 88 812 193 q 498 -17 641 -17 q 307 81 373 -17 m 301 366 l 301 310 q 339 193 301 238 q 439 147 377 147 q 552 204 512 147 q 593 364 593 260 q 450 547 593 547 q 343 497 385 547 q 301 366 301 448 z "},"q":{"ha":860,"x_min":49,"x_max":770,"o":"m 770 -319 l 555 -319 l 555 96 l 553 96 q 339 -17 480 -17 q 129 74 208 -17 q 49 330 49 165 q 136 608 49 504 q 364 711 224 711 q 553 614 492 711 l 555 614 l 555 694 l 770 694 l 770 -319 m 559 332 l 559 387 q 520 501 559 455 q 419 547 481 547 q 307 491 348 547 q 267 336 267 435 q 306 197 267 248 q 410 147 346 147 q 518 198 477 147 q 559 332 559 249 z "},"r":{"ha":553,"x_min":90,"x_max":543,"o":"m 543 501 q 453 522 505 522 q 344 471 383 522 q 304 332 304 420 l 304 0 l 90 0 l 90 694 l 304 694 l 304 566 l 307 566 q 490 707 358 707 q 543 699 524 707 l 543 501 z "},"s":{"ha":611,"x_min":45,"x_max":578,"o":"m 45 18 l 45 192 q 150 144 98 160 q 250 129 203 129 q 339 144 307 129 q 372 192 372 160 q 357 226 372 212 q 319 250 342 239 q 268 268 296 260 q 214 286 240 276 q 141 320 173 302 q 89 361 110 338 q 56 416 67 385 q 45 490 45 448 q 70 591 45 549 q 138 660 96 633 q 235 699 180 686 q 349 711 290 711 q 442 704 395 711 q 536 684 490 697 l 536 518 q 449 554 495 542 q 357 566 402 566 q 318 562 336 566 q 285 551 299 558 q 262 533 271 544 q 254 507 254 522 q 267 475 254 488 q 298 451 279 461 q 342 434 318 441 q 390 418 366 426 q 467 385 433 403 q 527 344 502 368 q 565 288 551 320 q 578 212 578 256 q 551 107 578 151 q 480 36 524 63 q 377 -4 435 8 q 257 -17 319 -17 q 45 18 142 -17 z "},"t":{"ha":541,"x_min":28,"x_max":510,"o":"m 510 8 q 367 -17 463 -17 q 140 218 140 -17 l 140 536 l 28 536 l 28 694 l 140 694 l 140 844 l 354 905 l 354 694 l 510 694 l 510 536 l 354 536 l 354 256 q 440 147 354 147 q 510 167 474 147 l 510 8 z "},"u":{"ha":840,"x_min":79,"x_max":750,"o":"m 750 0 l 536 0 l 536 106 l 533 106 q 321 -17 454 -17 q 79 275 79 -17 l 79 694 l 293 694 l 293 294 q 410 147 293 147 q 502 188 467 147 q 536 297 536 228 l 536 694 l 750 694 l 750 0 z "},"v":{"ha":753,"x_min":3,"x_max":751,"o":"m 751 694 l 493 0 l 249 0 l 3 694 l 232 694 l 353 267 q 376 143 373 194 l 379 143 q 404 262 384 191 l 528 694 l 751 694 z "},"w":{"ha":1107,"x_min":11,"x_max":1096,"o":"m 1096 694 l 896 0 l 671 0 l 568 407 q 557 496 558 448 l 553 496 q 539 410 548 443 l 429 0 l 207 0 l 11 694 l 229 694 l 325 241 q 335 164 332 210 l 339 164 q 351 244 342 212 l 471 694 l 675 694 l 782 241 q 791 163 786 224 l 796 163 q 807 241 800 202 l 897 694 l 1096 694 z "},"x":{"ha":767,"x_min":5,"x_max":761,"o":"m 761 694 l 532 358 l 760 0 l 513 0 l 412 187 q 383 250 400 210 l 380 250 q 353 189 370 222 l 252 0 l 5 0 l 240 346 l 20 694 l 268 694 l 367 500 q 395 435 387 461 l 397 435 q 427 501 408 467 l 528 694 l 761 694 z "},"y":{"ha":747,"x_min":-3,"x_max":751,"o":"m 751 694 l 469 -56 q 163 -326 368 -326 q 35 -309 85 -326 l 35 -138 q 127 -163 77 -163 q 243 -85 210 -163 l 279 1 l -3 694 l 235 694 l 364 272 q 383 179 376 233 l 386 179 q 408 271 392 218 l 539 694 l 751 694 z "},"z":{"ha":665,"x_min":17,"x_max":640,"o":"m 640 0 l 17 0 l 17 89 l 366 536 l 52 536 l 52 694 l 637 694 l 637 589 l 307 158 l 640 158 l 640 0 z "},"à":{"ha":747,"x_min":39,"x_max":668,"o":"m 668 0 l 465 0 l 465 100 l 463 100 q 256 -17 393 -17 q 97 40 155 -17 q 39 193 39 98 q 278 427 39 395 l 467 452 q 343 566 467 566 q 107 492 219 566 l 107 653 q 230 694 152 676 q 371 711 307 711 q 668 415 668 711 l 668 0 m 467 282 l 467 329 l 340 313 q 236 218 236 299 q 261 158 236 182 q 330 135 287 135 q 429 177 391 135 q 467 282 467 218 m 526 804 l 372 804 l 159 1023 l 349 1023 l 526 804 z "},"á":{"ha":747,"x_min":39,"x_max":668,"o":"m 668 0 l 465 0 l 465 100 l 463 100 q 256 -17 393 -17 q 97 40 155 -17 q 39 193 39 98 q 278 427 39 395 l 467 452 q 343 566 467 566 q 107 492 219 566 l 107 653 q 230 694 152 676 q 371 711 307 711 q 668 415 668 711 l 668 0 m 467 282 l 467 329 l 340 313 q 236 218 236 299 q 261 158 236 182 q 330 135 287 135 q 429 177 391 135 q 467 282 467 218 m 604 1023 l 392 804 l 237 804 l 414 1023 l 604 1023 z "},"â":{"ha":747,"x_min":39,"x_max":668,"o":"m 668 0 l 465 0 l 465 100 l 463 100 q 256 -17 393 -17 q 97 40 155 -17 q 39 193 39 98 q 278 427 39 395 l 467 452 q 343 566 467 566 q 107 492 219 566 l 107 653 q 230 694 152 676 q 371 711 307 711 q 668 415 668 711 l 668 0 m 467 282 l 467 329 l 340 313 q 236 218 236 299 q 261 158 236 182 q 330 135 287 135 q 429 177 391 135 q 467 282 467 218 m 620 804 l 479 804 l 372 932 l 273 804 l 132 804 l 292 1025 l 460 1025 l 620 804 z "},"ã":{"ha":747,"x_min":39,"x_max":668,"o":"m 668 0 l 465 0 l 465 100 l 463 100 q 256 -17 393 -17 q 97 40 155 -17 q 39 193 39 98 q 278 427 39 395 l 467 452 q 343 566 467 566 q 107 492 219 566 l 107 653 q 230 694 152 676 q 371 711 307 711 q 668 415 668 711 l 668 0 m 467 282 l 467 329 l 340 313 q 236 218 236 299 q 261 158 236 182 q 330 135 287 135 q 429 177 391 135 q 467 282 467 218 m 615 1015 q 577 868 615 920 q 475 817 540 817 q 361 846 416 817 q 277 878 300 878 q 223 804 223 878 l 127 804 q 165 951 127 899 q 269 1003 202 1003 q 383 970 324 1003 q 465 940 437 940 q 517 1015 517 940 l 615 1015 z "},"ä":{"ha":747,"x_min":39,"x_max":668,"o":"m 668 0 l 465 0 l 465 100 l 463 100 q 256 -17 393 -17 q 97 40 155 -17 q 39 193 39 98 q 278 427 39 395 l 467 452 q 343 566 467 566 q 107 492 219 566 l 107 653 q 230 694 152 676 q 371 711 307 711 q 668 415 668 711 l 668 0 m 467 282 l 467 329 l 340 313 q 236 218 236 299 q 261 158 236 182 q 330 135 287 135 q 429 177 391 135 q 467 282 467 218 m 534 804 q 459 831 488 804 q 430 897 430 857 q 459 964 430 939 q 534 990 488 990 q 609 964 579 990 q 638 897 638 938 q 609 830 638 857 q 534 804 580 804 m 223 804 q 148 831 177 804 q 119 897 119 858 q 149 964 119 938 q 223 990 178 990 q 298 964 269 990 q 327 897 327 938 q 298 830 327 856 q 223 804 269 804 z "},"å":{"ha":747,"x_min":39,"x_max":668,"o":"m 668 0 l 465 0 l 465 100 l 463 100 q 256 -17 393 -17 q 97 40 155 -17 q 39 193 39 98 q 278 427 39 395 l 467 452 q 343 566 467 566 q 107 492 219 566 l 107 653 q 230 694 152 676 q 371 711 307 711 q 668 415 668 711 l 668 0 m 467 282 l 467 329 l 340 313 q 236 218 236 299 q 261 158 236 182 q 330 135 287 135 q 429 177 391 135 q 467 282 467 218 m 389 804 q 274 845 319 804 q 229 950 229 885 q 276 1059 229 1019 q 392 1100 323 1100 q 509 1060 465 1100 q 554 954 554 1019 q 506 846 554 888 q 389 804 457 804 m 389 1017 q 323 953 323 1017 q 389 889 323 889 q 439 908 419 889 q 458 953 458 926 q 439 999 458 981 q 389 1017 420 1017 z "},"æ":{"ha":1150,"x_min":39,"x_max":1112,"o":"m 1112 286 l 660 286 q 851 135 673 135 q 1053 189 960 135 l 1053 36 q 796 -17 947 -17 q 526 104 614 -17 l 524 104 q 278 -17 428 -17 q 102 39 165 -17 q 39 195 39 95 q 104 353 39 294 q 292 422 170 413 l 465 436 q 340 566 465 566 q 107 493 222 566 l 107 653 q 358 711 234 711 q 578 621 517 711 l 581 621 q 802 711 670 711 q 1029 621 947 711 q 1112 374 1112 531 l 1112 286 m 914 418 q 794 567 914 567 q 705 525 743 567 q 660 418 667 483 l 914 418 m 465 281 l 465 311 l 359 302 q 235 214 235 292 q 261 157 235 180 q 330 135 288 135 q 427 175 389 135 q 465 281 465 216 z "},"ç":{"ha":667,"x_min":49,"x_max":616,"o":"m 616 25 q 407 -17 544 -17 q 148 80 247 -17 q 49 330 49 177 q 155 609 49 507 q 439 711 261 711 q 616 679 562 711 l 616 497 q 467 547 549 547 q 320 493 374 547 q 267 345 267 439 q 318 200 267 252 q 460 147 370 147 q 616 197 540 147 l 616 25 m 289 -306 l 289 -212 q 338 -216 313 -216 q 421 -167 421 -216 q 346 -122 421 -122 q 321 -123 337 -122 l 321 0 l 437 0 l 437 -56 q 564 -168 564 -61 q 349 -309 564 -309 q 289 -306 317 -309 z "},"è":{"ha":751,"x_min":49,"x_max":714,"o":"m 714 286 l 261 286 q 452 135 272 135 q 653 189 566 135 l 653 35 q 403 -17 557 -17 q 142 76 235 -17 q 49 336 49 170 q 149 610 49 509 q 396 711 250 711 q 631 621 548 711 q 714 376 714 531 l 714 286 m 515 418 q 395 567 515 567 q 306 524 343 567 q 260 418 268 481 l 515 418 m 539 804 l 385 804 l 172 1023 l 363 1023 l 539 804 z "},"é":{"ha":751,"x_min":49,"x_max":714,"o":"m 714 286 l 261 286 q 452 135 272 135 q 653 189 566 135 l 653 35 q 403 -17 557 -17 q 142 76 235 -17 q 49 336 49 170 q 149 610 49 509 q 396 711 250 711 q 631 621 548 711 q 714 376 714 531 l 714 286 m 515 418 q 395 567 515 567 q 306 524 343 567 q 260 418 268 481 l 515 418 m 625 1023 l 412 804 l 258 804 l 434 1023 l 625 1023 z "},"ê":{"ha":751,"x_min":49,"x_max":714,"o":"m 714 286 l 261 286 q 452 135 272 135 q 653 189 566 135 l 653 35 q 403 -17 557 -17 q 142 76 235 -17 q 49 336 49 170 q 149 610 49 509 q 396 711 250 711 q 631 621 548 711 q 714 376 714 531 l 714 286 m 515 418 q 395 567 515 567 q 306 524 343 567 q 260 418 268 481 l 515 418 m 644 804 l 503 804 l 396 932 l 296 804 l 156 804 l 315 1025 l 484 1025 l 644 804 z "},"ë":{"ha":751,"x_min":49,"x_max":714,"o":"m 714 286 l 261 286 q 452 135 272 135 q 653 189 566 135 l 653 35 q 403 -17 557 -17 q 142 76 235 -17 q 49 336 49 170 q 149 610 49 509 q 396 711 250 711 q 631 621 548 711 q 714 376 714 531 l 714 286 m 515 418 q 395 567 515 567 q 306 524 343 567 q 260 418 268 481 l 515 418 m 548 804 q 473 831 503 804 q 444 897 444 857 q 473 964 444 939 q 548 990 503 990 q 623 964 593 990 q 652 897 652 938 q 623 830 652 857 q 548 804 594 804 m 237 804 q 162 831 191 804 q 133 897 133 858 q 163 964 133 938 q 237 990 193 990 q 312 964 283 990 q 341 897 341 938 q 312 830 341 856 q 237 804 283 804 z "},"ì":{"ha":395,"x_min":-18,"x_max":349,"o":"m 304 0 l 90 0 l 90 694 l 304 694 l 304 0 m 349 804 l 195 804 l -18 1023 l 172 1023 l 349 804 z "},"í":{"ha":395,"x_min":48,"x_max":415,"o":"m 304 0 l 90 0 l 90 694 l 304 694 l 304 0 m 415 1023 l 203 804 l 48 804 l 224 1023 l 415 1023 z "},"î":{"ha":395,"x_min":-42,"x_max":446,"o":"m 304 0 l 90 0 l 90 694 l 304 694 l 304 0 m 446 804 l 305 804 l 198 932 l 98 804 l -42 804 l 117 1025 l 286 1025 l 446 804 z "},"ï":{"ha":395,"x_min":-58,"x_max":461,"o":"m 304 0 l 90 0 l 90 694 l 304 694 l 304 0 m 357 804 q 282 831 311 804 q 253 897 253 857 q 282 964 253 939 q 357 990 311 990 q 432 964 402 990 q 461 897 461 938 q 432 830 461 857 q 357 804 403 804 m 46 804 q -29 831 0 804 q -58 897 -58 858 q -28 964 -58 938 q 46 990 1 990 q 121 964 92 990 q 150 897 150 938 q 121 830 150 856 q 46 804 92 804 z "},"ñ":{"ha":840,"x_min":90,"x_max":761,"o":"m 761 0 l 547 0 l 547 386 q 432 547 547 547 q 340 505 376 547 q 304 396 304 462 l 304 0 l 90 0 l 90 694 l 304 694 l 304 585 l 307 585 q 530 711 384 711 q 761 425 761 711 l 761 0 m 666 1015 q 628 868 666 920 q 526 817 591 817 q 412 846 467 817 q 328 878 351 878 q 274 804 274 878 l 178 804 q 216 951 178 899 q 320 1003 253 1003 q 434 970 375 1003 q 515 940 488 940 q 568 1015 568 940 l 666 1015 z "},"ò":{"ha":849,"x_min":49,"x_max":800,"o":"m 421 -17 q 148 80 248 -17 q 49 345 49 178 q 152 614 49 517 q 431 711 255 711 q 702 614 604 711 q 800 357 800 517 q 699 83 800 184 q 421 -17 597 -17 m 427 547 q 309 495 351 547 q 267 347 267 443 q 428 147 267 147 q 582 353 582 147 q 427 547 582 547 m 578 804 l 424 804 l 211 1023 l 401 1023 l 578 804 z "},"ó":{"ha":849,"x_min":49,"x_max":800,"o":"m 421 -17 q 148 80 248 -17 q 49 345 49 178 q 152 614 49 517 q 431 711 255 711 q 702 614 604 711 q 800 357 800 517 q 699 83 800 184 q 421 -17 597 -17 m 427 547 q 309 495 351 547 q 267 347 267 443 q 428 147 267 147 q 582 353 582 147 q 427 547 582 547 m 656 1023 l 444 804 l 290 804 l 466 1023 l 656 1023 z "},"ô":{"ha":849,"x_min":49,"x_max":800,"o":"m 421 -17 q 148 80 248 -17 q 49 345 49 178 q 152 614 49 517 q 431 711 255 711 q 702 614 604 711 q 800 357 800 517 q 699 83 800 184 q 421 -17 597 -17 m 427 547 q 309 495 351 547 q 267 347 267 443 q 428 147 267 147 q 582 353 582 147 q 427 547 582 547 m 670 804 l 530 804 l 422 932 l 323 804 l 182 804 l 342 1025 l 510 1025 l 670 804 z "},"õ":{"ha":849,"x_min":49,"x_max":800,"o":"m 421 -17 q 148 80 248 -17 q 49 345 49 178 q 152 614 49 517 q 431 711 255 711 q 702 614 604 711 q 800 357 800 517 q 699 83 800 184 q 421 -17 597 -17 m 427 547 q 309 495 351 547 q 267 347 267 443 q 428 147 267 147 q 582 353 582 147 q 427 547 582 547 m 668 1015 q 630 868 668 920 q 528 817 593 817 q 414 846 469 817 q 330 878 353 878 q 276 804 276 878 l 180 804 q 218 951 180 899 q 322 1003 255 1003 q 436 970 377 1003 q 517 940 490 940 q 570 1015 570 940 l 668 1015 z "},"ö":{"ha":849,"x_min":49,"x_max":800,"o":"m 421 -17 q 148 80 248 -17 q 49 345 49 178 q 152 614 49 517 q 431 711 255 711 q 702 614 604 711 q 800 357 800 517 q 699 83 800 184 q 421 -17 597 -17 m 427 547 q 309 495 351 547 q 267 347 267 443 q 428 147 267 147 q 582 353 582 147 q 427 547 582 547 m 583 804 q 508 831 537 804 q 479 897 479 857 q 508 964 479 939 q 583 990 537 990 q 657 964 628 990 q 687 897 687 938 q 658 830 687 857 q 583 804 629 804 m 272 804 q 197 831 226 804 q 168 897 168 858 q 197 964 168 938 q 272 990 227 990 q 347 964 318 990 q 376 897 376 938 q 347 830 376 856 q 272 804 318 804 z "},"ø":{"ha":849,"x_min":26,"x_max":818,"o":"m 818 685 l 724 586 q 800 357 800 489 q 700 83 800 181 q 421 -16 600 -16 q 199 43 287 -16 l 107 -53 l 26 20 l 119 117 q 49 346 49 212 q 152 615 49 517 q 432 713 256 713 q 643 657 553 713 l 737 757 l 818 685 m 524 536 q 428 564 486 564 q 253 349 253 564 q 265 267 253 299 l 524 536 m 585 441 l 318 164 q 427 134 359 134 q 597 353 597 134 q 585 441 597 403 z "},"œ":{"ha":1284,"x_min":49,"x_max":1246,"o":"m 1246 286 l 791 286 q 983 135 801 135 q 1183 189 1097 135 l 1183 35 q 949 -17 1087 -17 q 684 111 778 -17 l 681 111 q 404 -16 588 -16 q 147 81 245 -16 q 49 345 49 178 q 149 614 49 515 q 412 713 248 713 q 574 679 503 713 q 679 593 645 646 l 682 593 q 937 711 762 711 q 1164 621 1082 711 q 1246 378 1246 530 l 1246 286 m 1046 418 q 928 567 1046 567 q 836 524 873 567 q 791 418 799 481 l 1046 418 m 428 547 q 309 495 351 547 q 267 347 267 442 q 427 149 267 149 q 582 350 582 149 q 542 495 582 444 q 428 547 501 547 z "},"š":{"ha":611,"x_min":45,"x_max":578,"o":"m 45 18 l 45 192 q 150 144 98 160 q 250 129 203 129 q 339 144 307 129 q 372 192 372 160 q 357 226 372 212 q 319 250 342 239 q 268 268 296 260 q 214 286 240 276 q 141 320 173 302 q 89 361 110 338 q 56 416 67 385 q 45 490 45 448 q 70 591 45 549 q 138 660 96 633 q 235 699 180 686 q 349 711 290 711 q 442 704 395 711 q 536 684 490 697 l 536 518 q 449 554 495 542 q 357 566 402 566 q 318 562 336 566 q 285 551 299 558 q 262 533 271 544 q 254 507 254 522 q 267 475 254 488 q 298 451 279 461 q 342 434 318 441 q 390 418 366 426 q 467 385 433 403 q 527 344 502 368 q 565 288 551 320 q 578 212 578 256 q 551 107 578 151 q 480 36 524 63 q 377 -4 435 8 q 257 -17 319 -17 q 45 18 142 -17 m 550 1025 l 389 804 l 220 804 l 61 1025 l 200 1025 l 305 897 l 411 1025 l 550 1025 z "},"ß":{"ha":872,"x_min":90,"x_max":832,"o":"m 370 5 l 370 183 q 489 147 426 147 q 579 183 545 147 q 612 281 612 218 q 552 405 612 359 q 382 454 492 451 l 382 604 q 499 650 457 610 q 541 758 541 691 q 510 848 541 815 q 429 880 480 880 q 304 714 304 880 l 304 0 l 90 0 l 90 711 q 183 954 90 863 q 441 1044 276 1044 q 674 970 589 1044 q 760 779 760 896 q 711 634 760 696 q 586 549 663 572 l 586 546 q 832 275 832 499 q 746 68 832 153 q 514 -17 661 -17 q 370 5 443 -17 z "},"ù":{"ha":840,"x_min":79,"x_max":750,"o":"m 750 0 l 536 0 l 536 106 l 533 106 q 321 -17 454 -17 q 79 275 79 -17 l 79 694 l 293 694 l 293 294 q 410 147 293 147 q 502 188 467 147 q 536 297 536 228 l 536 694 l 750 694 l 750 0 m 532 804 l 378 804 l 165 1023 l 355 1023 l 532 804 z "},"ú":{"ha":840,"x_min":79,"x_max":750,"o":"m 750 0 l 536 0 l 536 106 l 533 106 q 321 -17 454 -17 q 79 275 79 -17 l 79 694 l 293 694 l 293 294 q 410 147 293 147 q 502 188 467 147 q 536 297 536 228 l 536 694 l 750 694 l 750 0 m 663 1023 l 450 804 l 296 804 l 472 1023 l 663 1023 z "},"û":{"ha":840,"x_min":79,"x_max":750,"o":"m 750 0 l 536 0 l 536 106 l 533 106 q 321 -17 454 -17 q 79 275 79 -17 l 79 694 l 293 694 l 293 294 q 410 147 293 147 q 502 188 467 147 q 536 297 536 228 l 536 694 l 750 694 l 750 0 m 658 804 l 517 804 l 410 932 l 311 804 l 170 804 l 330 1025 l 498 1025 l 658 804 z "},"ü":{"ha":840,"x_min":79,"x_max":750,"o":"m 750 0 l 536 0 l 536 106 l 533 106 q 321 -17 454 -17 q 79 275 79 -17 l 79 694 l 293 694 l 293 294 q 410 147 293 147 q 502 188 467 147 q 536 297 536 228 l 536 694 l 750 694 l 750 0 m 572 804 q 498 831 527 804 q 469 897 469 857 q 498 964 469 939 q 572 990 527 990 q 647 964 618 990 q 677 897 677 938 q 648 830 677 857 q 572 804 618 804 m 262 804 q 186 831 216 804 q 157 897 157 858 q 187 964 157 938 q 262 990 217 990 q 337 964 308 990 q 366 897 366 938 q 337 830 366 856 q 262 804 308 804 z "},"ý":{"ha":747,"x_min":-3,"x_max":751,"o":"m 751 694 l 469 -56 q 163 -326 368 -326 q 35 -309 85 -326 l 35 -138 q 127 -163 77 -163 q 243 -85 210 -163 l 279 1 l -3 694 l 235 694 l 364 272 q 383 179 376 233 l 386 179 q 408 271 392 218 l 539 694 l 751 694 m 566 1023 l 353 804 l 199 804 l 375 1023 l 566 1023 z "},"ÿ":{"ha":747,"x_min":-3,"x_max":751,"o":"m 751 694 l 469 -56 q 163 -326 368 -326 q 35 -309 85 -326 l 35 -138 q 127 -163 77 -163 q 243 -85 210 -163 l 279 1 l -3 694 l 235 694 l 364 272 q 383 179 376 233 l 386 179 q 408 271 392 218 l 539 694 l 751 694 m 538 804 q 463 831 492 804 q 434 897 434 857 q 463 964 434 939 q 538 990 492 990 q 613 964 583 990 q 642 897 642 938 q 613 830 642 857 q 538 804 584 804 m 227 804 q 152 831 181 804 q 123 897 123 858 q 153 964 123 938 q 227 990 182 990 q 302 964 273 990 q 331 897 331 938 q 302 830 331 856 q 227 804 273 804 z "},"ž":{"ha":665,"x_min":17,"x_max":640,"o":"m 640 0 l 17 0 l 17 89 l 366 536 l 52 536 l 52 694 l 637 694 l 637 589 l 307 158 l 640 158 l 640 0 m 591 1025 l 430 804 l 262 804 l 102 1025 l 241 1025 l 347 897 l 452 1025 l 591 1025 z "},"ð":{"ha":824,"x_min":49,"x_max":775,"o":"m 513 654 l 515 656 q 383 817 458 755 l 186 720 l 131 815 l 294 893 q 111 1028 188 978 l 350 1028 q 439 962 357 1024 l 624 1053 l 676 960 l 530 889 q 775 382 775 692 q 673 94 775 205 q 406 -17 572 -17 q 143 81 237 -17 q 49 349 49 179 q 139 605 49 505 q 374 705 229 705 q 513 654 453 705 m 415 547 q 306 494 345 547 q 267 349 267 441 q 305 200 267 254 q 412 147 344 147 q 518 202 479 147 q 557 353 557 258 q 415 547 557 547 z "},"þ":{"ha":861,"x_min":90,"x_max":812,"o":"m 307 81 l 304 81 l 304 -319 l 90 -319 l 90 1028 l 304 1028 l 304 590 l 307 590 q 530 711 387 711 q 739 619 665 711 q 812 367 812 526 q 727 88 812 193 q 498 -17 641 -17 q 307 81 373 -17 m 301 366 l 301 310 q 339 193 301 238 q 439 147 377 147 q 552 204 512 147 q 593 364 593 260 q 450 547 593 547 q 343 497 385 547 q 301 366 301 448 z "},"&":{"ha":1180,"x_min":51,"x_max":1158,"o":"m 1003 -16 q 935 -6 967 -16 q 874 20 903 3 q 819 58 845 36 q 770 105 793 80 q 710 63 745 85 q 630 24 675 41 q 532 -4 586 7 q 418 -16 479 -16 q 271 3 338 -16 q 155 60 203 22 q 78 153 106 98 q 51 282 51 209 q 72 385 51 340 q 125 464 92 430 q 201 522 159 498 q 286 563 243 547 q 244 601 265 579 q 205 647 222 622 q 178 703 189 673 q 168 766 168 732 q 189 861 168 819 q 250 930 211 902 q 343 974 289 959 q 463 989 397 989 q 577 973 525 989 q 666 930 629 958 q 724 863 703 902 q 744 777 744 824 q 699 647 744 702 q 572 557 654 591 q 634 523 604 542 q 692 479 664 504 q 748 424 721 455 q 802 353 775 393 q 881 502 857 423 q 905 667 905 581 q 902 716 905 692 q 892 760 899 740 l 1075 760 q 1086 718 1082 739 q 1089 670 1089 698 q 1075 542 1089 604 q 1036 422 1061 479 q 976 315 1011 366 q 897 220 940 264 q 966 166 930 185 q 1032 148 1001 148 q 1099 155 1065 148 q 1158 175 1133 162 l 1158 14 q 1084 -8 1120 -1 q 1003 -16 1048 -16 m 429 146 q 504 154 469 146 q 570 175 539 162 q 628 205 602 188 q 677 240 655 222 q 609 332 643 294 q 542 396 575 370 q 476 441 509 423 q 410 475 443 460 q 356 445 382 461 q 311 406 331 428 q 280 356 292 384 q 268 291 268 328 q 279 232 268 258 q 312 186 291 205 q 363 157 334 168 q 429 146 393 146 m 554 762 q 547 798 554 782 q 526 824 539 813 q 497 840 513 834 q 463 846 481 846 q 421 839 440 846 q 389 821 403 832 q 368 793 375 809 q 360 759 360 777 q 384 689 360 721 q 443 637 408 657 q 485 656 465 646 q 520 682 505 667 q 545 717 536 697 q 554 762 554 736 z "},",":{"ha":376,"x_min":26,"x_max":293,"o":"m 293 171 l 193 -172 l 26 -172 l 96 171 l 293 171 z "},";":{"ha":376,"x_min":26,"x_max":317,"o":"m 191 479 q 102 512 137 479 q 66 591 66 545 q 102 672 66 641 q 192 703 138 703 q 282 671 247 703 q 317 591 317 640 q 282 511 317 542 q 191 479 248 479 m 293 171 l 193 -172 l 26 -172 l 96 171 l 293 171 z "},":":{"ha":376,"x_min":62,"x_max":314,"o":"m 186 479 q 98 512 133 479 q 62 591 62 544 q 99 671 62 640 q 189 703 135 703 q 279 671 244 703 q 314 591 314 640 q 278 511 314 542 q 186 479 243 479 m 186 -17 q 98 16 133 -17 q 62 96 62 48 q 99 176 62 144 q 189 207 135 207 q 279 175 244 207 q 314 96 314 144 q 278 15 314 46 q 186 -17 243 -17 z "},".":{"ha":376,"x_min":62,"x_max":314,"o":"m 186 -17 q 98 16 133 -17 q 62 96 62 48 q 99 176 62 144 q 189 207 135 207 q 279 175 244 207 q 314 96 314 144 q 278 15 314 46 q 186 -17 243 -17 z "},"…":{"ha":1267,"x_min":87,"x_max":1181,"o":"m 1054 -16 q 966 17 1001 -16 q 930 97 930 50 q 966 177 930 146 q 1055 208 1002 208 q 1145 177 1110 208 q 1181 97 1181 145 q 1146 16 1181 47 q 1054 -16 1111 -16 m 632 -16 q 545 17 579 -16 q 510 97 510 50 q 545 177 510 146 q 633 208 580 208 q 723 177 688 208 q 758 97 758 145 q 723 16 758 47 q 632 -16 688 -16 m 210 -16 q 122 17 157 -16 q 87 97 87 50 q 122 177 87 146 q 211 208 157 208 q 301 177 266 208 q 336 97 336 145 q 301 16 336 47 q 210 -16 267 -16 z "},"!":{"ha":454,"x_min":103,"x_max":351,"o":"m 339 972 l 313 302 l 139 302 l 114 972 l 339 972 m 228 -16 q 138 17 174 -16 q 103 97 103 50 q 139 177 103 146 q 228 208 174 208 q 317 177 282 208 q 351 97 351 145 q 317 16 351 48 q 228 -16 283 -16 z "},"¡":{"ha":454,"x_min":103,"x_max":351,"o":"m 228 489 q 138 520 173 489 q 103 599 103 551 q 138 680 103 648 q 228 711 173 711 q 316 679 281 711 q 351 599 351 646 q 316 519 351 550 q 228 489 281 489 m 342 -277 l 117 -277 l 142 395 l 315 395 l 342 -277 z "},"?":{"ha":608,"x_min":42,"x_max":581,"o":"m 178 281 q 168 321 172 299 q 164 363 164 343 q 170 420 164 394 q 189 468 176 446 q 219 512 201 491 q 262 553 237 532 q 307 593 288 574 q 340 630 326 612 q 360 669 353 649 q 367 713 367 689 q 359 752 367 734 q 338 783 352 770 q 304 804 324 796 q 260 811 284 811 q 150 789 207 811 q 42 722 93 767 l 42 926 q 156 973 94 958 q 283 989 218 989 q 401 975 347 989 q 495 931 455 961 q 558 855 536 901 q 581 743 581 808 q 572 668 581 702 q 544 605 562 635 q 498 548 526 575 q 436 491 471 520 q 394 454 412 471 q 365 421 376 437 q 347 386 353 404 q 340 343 340 367 q 345 310 340 327 q 357 281 349 293 l 178 281 m 277 -16 q 187 17 223 -16 q 151 97 151 51 q 187 176 151 144 q 277 208 223 208 q 366 176 331 208 q 401 97 401 145 q 367 16 401 48 q 277 -16 332 -16 z "},"¿":{"ha":608,"x_min":36,"x_max":575,"o":"m 439 414 q 449 375 446 397 q 453 333 453 353 q 447 276 453 302 q 429 228 441 250 q 398 184 416 205 q 355 143 380 163 q 311 103 330 121 q 277 65 291 84 q 257 27 264 47 q 250 -18 250 7 q 258 -57 250 -39 q 279 -87 265 -75 q 313 -108 293 -100 q 357 -115 333 -115 q 467 -93 410 -115 q 575 -26 524 -71 l 575 -231 q 461 -277 523 -262 q 334 -293 399 -293 q 216 -279 271 -293 q 122 -235 162 -265 q 59 -159 81 -205 q 36 -47 36 -113 q 45 27 36 -6 q 73 91 55 61 q 119 148 92 121 q 181 205 146 176 q 223 241 205 224 q 253 275 241 258 q 271 310 264 292 q 277 353 277 329 q 272 386 277 369 q 260 414 268 403 l 439 414 m 340 711 q 430 679 395 711 q 466 599 466 645 q 430 519 466 551 q 340 488 394 488 q 251 519 286 488 q 216 599 216 551 q 250 680 216 648 q 340 711 286 711 z "},"(":{"ha":513,"x_min":107,"x_max":501,"o":"m 501 -221 l 326 -221 q 107 372 107 20 q 326 972 107 712 l 500 972 q 294 372 294 700 q 501 -221 294 45 z "},")":{"ha":513,"x_min":12,"x_max":407,"o":"m 186 -221 l 12 -221 q 220 372 220 43 q 12 972 220 699 l 187 972 q 407 372 407 711 q 186 -221 407 23 z "},"[":{"ha":513,"x_min":147,"x_max":465,"o":"m 465 -221 l 147 -221 l 147 972 l 465 972 l 465 836 l 323 836 l 323 -85 l 465 -85 l 465 -221 z "},"]":{"ha":513,"x_min":47,"x_max":367,"o":"m 367 -221 l 47 -221 l 47 -85 l 191 -85 l 191 836 l 47 836 l 47 972 l 367 972 l 367 -221 z "},"{":{"ha":513,"x_min":72,"x_max":457,"o":"m 457 -221 q 242 -167 309 -221 q 175 26 175 -113 l 175 189 q 72 314 175 314 l 72 439 q 175 568 175 439 l 175 720 q 241 916 175 859 q 457 972 308 972 l 457 846 q 349 728 349 846 l 349 583 q 244 378 349 420 l 244 375 q 349 167 349 333 l 349 28 q 374 -66 349 -39 q 457 -94 399 -94 l 457 -221 z "},"}":{"ha":513,"x_min":57,"x_max":441,"o":"m 441 314 q 338 187 338 314 l 338 31 q 272 -167 338 -113 q 57 -221 205 -221 l 57 -94 q 140 -67 114 -94 q 165 26 165 -39 l 165 171 q 269 374 165 333 l 269 376 q 165 589 165 419 l 165 728 q 57 846 165 846 l 57 972 q 271 916 205 972 q 338 722 338 859 l 338 567 q 441 439 338 439 l 441 314 z "},"|":{"ha":453,"x_min":142,"x_max":313,"o":"m 313 -326 l 142 -326 l 142 1063 l 313 1063 l 313 -326 z "},"/":{"ha":616,"x_min":-33,"x_max":632,"o":"m 632 972 l 158 -161 l -33 -161 l 439 972 l 632 972 z "},"\\":{"ha":606,"x_min":0,"x_max":652,"o":"m 652 -161 l 463 -161 l 0 972 l 191 972 l 652 -161 z "},"'":{"ha":407,"x_min":115,"x_max":292,"o":"m 292 985 l 271 685 l 135 685 l 115 985 l 292 985 z "},"\"":{"ha":685,"x_min":119,"x_max":566,"o":"m 566 985 l 545 684 l 408 684 l 387 985 l 566 985 m 297 985 l 277 685 l 139 685 l 119 985 l 297 985 z "},"‘":{"ha":403,"x_min":65,"x_max":326,"o":"m 326 996 l 252 694 l 65 694 l 193 996 l 326 996 z "},"’":{"ha":403,"x_min":77,"x_max":339,"o":"m 339 996 l 208 694 l 77 694 l 154 996 l 339 996 z "},"“":{"ha":685,"x_min":65,"x_max":608,"o":"m 608 996 l 532 694 l 347 694 l 476 996 l 608 996 m 326 996 l 252 694 l 65 694 l 193 996 l 326 996 z "},"”":{"ha":685,"x_min":77,"x_max":621,"o":"m 621 996 l 492 694 l 358 694 l 435 996 l 621 996 m 339 996 l 208 694 l 77 694 l 154 996 l 339 996 z "},"‚":{"ha":403,"x_min":61,"x_max":323,"o":"m 323 149 l 193 -153 l 61 -153 l 139 149 l 323 149 z "},"„":{"ha":685,"x_min":61,"x_max":606,"o":"m 606 149 l 475 -153 l 343 -153 l 419 149 l 606 149 m 323 149 l 193 -153 l 61 -153 l 139 149 l 323 149 z "},"‹":{"ha":478,"x_min":36,"x_max":441,"o":"m 441 136 l 260 136 l 36 364 l 260 597 l 441 597 l 215 364 l 441 136 z "},"›":{"ha":478,"x_min":36,"x_max":441,"o":"m 441 364 l 218 136 l 36 136 l 262 364 l 37 597 l 218 597 l 441 364 z "},"«":{"ha":807,"x_min":36,"x_max":771,"o":"m 771 136 l 589 136 l 367 364 l 589 597 l 771 597 l 545 364 l 771 136 m 441 136 l 260 136 l 36 364 l 260 597 l 440 597 l 214 364 l 441 136 z "},"»":{"ha":807,"x_min":36,"x_max":771,"o":"m 771 364 l 549 136 l 367 136 l 593 364 l 368 597 l 549 597 l 771 364 m 441 364 l 218 136 l 36 136 l 264 364 l 37 597 l 218 597 l 441 364 z "},"*":{"ha":632,"x_min":47,"x_max":586,"o":"m 586 714 l 400 689 l 533 546 l 410 461 l 317 633 l 224 461 l 100 546 l 233 689 l 47 714 l 96 851 l 267 778 l 237 972 l 396 972 l 367 778 l 536 851 l 586 714 z "},"†":{"ha":564,"x_min":22,"x_max":541,"o":"m 541 589 l 356 609 l 326 137 l 238 137 l 208 609 l 22 589 l 22 742 l 221 722 l 201 972 l 363 972 l 342 722 l 541 742 l 541 589 z "},"‡":{"ha":564,"x_min":22,"x_max":541,"o":"m 541 327 l 339 347 l 363 137 l 201 137 l 224 347 l 22 327 l 22 480 l 204 460 l 227 555 l 204 650 l 22 629 l 22 783 l 224 762 l 201 972 l 363 972 l 339 762 l 541 783 l 541 629 l 359 650 l 337 555 l 359 460 l 541 480 l 541 327 z "},"·":{"ha":376,"x_min":62,"x_max":314,"o":"m 186 330 q 98 363 133 330 q 62 443 62 395 q 99 523 62 492 q 189 554 135 554 q 279 523 244 554 q 314 443 314 491 q 278 362 314 393 q 186 330 243 330 z "},"•":{"ha":587,"x_min":109,"x_max":482,"o":"m 294 191 q 163 245 218 191 q 109 378 109 300 q 163 509 109 455 q 294 564 217 564 q 427 509 372 564 q 482 378 482 454 q 427 246 482 301 q 294 191 372 191 z "},"@":{"ha":1325,"x_min":92,"x_max":1236,"o":"m 761 252 l 757 252 q 585 122 709 122 q 434 190 491 122 q 376 378 376 258 q 456 630 376 533 q 647 728 535 728 q 774 648 748 728 l 777 648 l 783 715 l 936 715 q 905 338 905 427 q 957 243 905 243 q 1046 315 1011 243 q 1082 503 1082 387 q 981 763 1082 661 q 699 864 880 864 q 376 729 505 864 q 248 399 248 593 q 361 102 248 210 q 675 -7 475 -7 q 954 52 827 -7 l 954 -78 q 656 -127 838 -127 q 249 16 406 -127 q 92 401 92 159 q 259 817 92 648 q 690 985 427 985 q 1085 854 935 985 q 1236 510 1236 724 q 1144 228 1236 334 q 916 122 1052 122 q 806 158 848 122 q 761 252 764 194 m 671 610 q 571 540 610 610 q 533 379 533 471 q 559 278 533 314 q 627 241 585 241 q 727 310 690 241 q 764 493 764 378 q 738 578 764 547 q 671 610 713 610 z "},"©":{"ha":1214,"x_min":89,"x_max":1126,"o":"m 606 -17 q 234 123 380 -17 q 89 484 89 264 q 238 844 89 699 q 611 989 388 989 q 980 847 833 989 q 1126 486 1126 706 q 976 127 1126 271 q 606 -17 826 -17 m 608 913 q 300 791 422 913 q 179 486 179 669 q 302 181 179 302 q 608 60 425 60 q 912 181 788 60 q 1036 485 1036 303 q 914 791 1036 669 q 608 913 792 913 m 817 200 q 631 154 732 154 q 396 245 489 154 q 302 472 302 336 q 400 723 302 629 q 653 818 497 818 q 815 781 738 818 l 815 621 q 650 672 749 672 q 519 620 572 672 q 467 481 467 568 q 520 347 467 398 q 654 296 573 296 q 817 347 750 296 l 817 200 z "},"®":{"ha":1214,"x_min":89,"x_max":1126,"o":"m 606 -17 q 234 123 380 -17 q 89 484 89 264 q 238 844 89 699 q 611 989 388 989 q 980 847 833 989 q 1126 486 1126 706 q 976 127 1126 271 q 606 -17 826 -17 m 608 913 q 300 791 422 913 q 179 486 179 669 q 302 181 179 302 q 608 60 425 60 q 912 181 788 60 q 1036 485 1036 303 q 914 791 1036 669 q 608 913 792 913 m 873 179 l 701 179 l 650 336 q 575 419 623 419 l 525 419 l 525 179 l 382 179 l 382 804 l 599 804 q 850 627 850 804 q 703 461 850 498 l 703 458 q 799 359 764 445 l 873 179 m 525 685 l 525 529 l 600 529 q 694 610 694 529 q 586 685 694 685 l 525 685 z "},"™":{"ha":1071,"x_min":52,"x_max":946,"o":"m 946 524 l 844 524 l 844 825 l 842 825 l 733 524 l 642 524 l 543 825 l 539 825 l 539 524 l 439 524 l 439 972 l 586 972 l 692 665 l 694 665 l 808 972 l 946 972 l 946 524 m 395 889 l 273 889 l 273 524 l 168 524 l 168 889 l 52 889 l 52 972 l 395 972 l 395 889 z "},"§":{"ha":674,"x_min":89,"x_max":611,"o":"m 510 294 q 566 176 566 243 q 492 15 566 75 q 298 -45 418 -45 q 102 1 188 -45 l 102 170 q 313 98 224 98 q 399 165 399 98 q 334 239 399 207 q 191 315 238 283 q 117 394 144 347 q 89 496 89 441 q 174 654 89 593 q 114 800 114 714 q 183 953 114 895 q 370 1011 253 1011 q 546 974 464 1011 l 546 804 q 370 869 452 869 q 286 806 286 869 q 314 753 286 775 q 439 688 341 731 q 611 478 611 612 q 510 294 611 365 m 293 586 q 249 511 249 560 q 283 442 249 473 q 404 375 318 412 q 449 458 449 405 q 413 527 449 500 q 293 586 376 553 z "},"¶":{"ha":707,"x_min":62,"x_max":642,"o":"m 642 863 l 562 863 l 562 0 l 444 0 l 444 863 l 364 863 l 364 0 l 244 0 l 244 567 q 114 629 166 572 q 62 772 62 687 q 120 916 62 860 q 264 972 178 972 l 642 972 l 642 863 z "},"-":{"ha":562,"x_min":97,"x_max":468,"o":"m 468 296 l 97 296 l 97 446 l 468 446 l 468 296 z "},"–":{"ha":694,"x_min":0,"x_max":694,"o":"m 694 296 l 0 296 l 0 446 l 694 446 l 694 296 z "},"—":{"ha":1389,"x_min":0,"x_max":1389,"o":"m 1389 296 l 0 296 l 0 446 l 1389 446 l 1389 296 z "},"‒":{"ha":749,"x_min":61,"x_max":688,"o":"m 688 296 l 61 296 l 61 446 l 688 446 l 688 296 z "},"―":{"ha":1389,"x_min":0,"x_max":1389,"o":"m 1389 296 l 0 296 l 0 446 l 1389 446 l 1389 296 z "},"#":{"ha":823,"x_min":25,"x_max":798,"o":"m 798 725 l 771 603 l 646 603 l 608 435 l 749 435 l 718 313 l 583 313 l 530 78 l 395 78 l 444 313 l 289 313 l 239 78 l 103 78 l 151 313 l 25 313 l 50 435 l 178 435 l 214 603 l 77 603 l 100 725 l 239 725 l 289 966 l 428 966 l 378 725 l 533 725 l 585 966 l 722 966 l 672 725 l 798 725 m 509 603 l 351 603 l 314 435 l 471 435 l 509 603 z "},"¹":{"ha":547,"x_min":97,"x_max":489,"o":"m 489 396 l 107 396 l 107 513 l 227 513 l 227 836 l 97 808 l 97 930 l 372 986 l 372 513 l 489 513 l 489 396 z "},"²":{"ha":562,"x_min":79,"x_max":489,"o":"m 489 396 l 79 396 l 79 503 l 248 661 q 312 736 300 711 q 325 791 325 761 q 306 839 325 820 q 254 857 286 857 q 111 787 188 857 l 111 933 q 281 986 191 986 q 427 940 373 986 q 481 811 481 893 q 455 715 481 764 q 334 582 430 667 l 262 519 l 262 517 l 489 517 l 489 396 z "},"³":{"ha":562,"x_min":89,"x_max":485,"o":"m 89 418 l 89 541 q 239 494 161 494 q 340 564 340 494 q 224 633 340 633 l 144 633 l 144 746 l 221 746 q 322 811 322 746 q 241 872 322 872 q 107 828 169 872 l 107 947 q 269 986 174 986 q 413 945 360 986 q 465 836 465 904 q 368 704 465 736 l 368 701 q 485 567 485 673 q 418 433 485 484 q 244 382 352 382 q 89 418 154 382 z "},"%":{"ha":1204,"x_min":61,"x_max":1143,"o":"m 292 479 q 124 545 188 479 q 61 722 61 611 q 129 915 61 844 q 309 986 196 986 q 477 922 416 986 q 538 741 538 857 q 471 550 538 621 q 292 479 404 479 m 304 867 q 205 729 205 867 q 300 599 205 599 q 396 734 396 599 q 304 867 396 867 m 1002 972 l 368 0 l 203 0 l 835 972 l 1002 972 m 897 -14 q 730 52 793 -14 q 667 229 667 118 q 734 422 667 351 q 914 493 802 493 q 1083 429 1023 493 q 1143 249 1143 366 q 1076 58 1143 129 q 897 -14 1009 -14 m 908 374 q 810 236 810 374 q 905 106 810 106 q 1002 241 1002 106 q 976 339 1002 304 q 908 374 950 374 z "},"‰":{"ha":1745,"x_min":61,"x_max":1683,"o":"m 292 479 q 124 545 188 479 q 61 722 61 611 q 129 915 61 844 q 309 986 196 986 q 477 922 416 986 q 538 741 538 857 q 471 550 538 621 q 292 479 404 479 m 304 867 q 205 729 205 867 q 300 599 205 599 q 396 734 396 599 q 304 867 396 867 m 1002 972 l 368 0 l 203 0 l 836 972 l 1002 972 m 1436 -14 q 1269 52 1333 -14 q 1206 229 1206 118 q 1273 422 1206 351 q 1453 493 1341 493 q 1623 429 1562 493 q 1683 249 1683 366 q 1616 58 1683 129 q 1436 -14 1548 -14 m 1449 374 q 1350 236 1350 374 q 1444 106 1350 106 q 1541 241 1541 106 q 1516 339 1541 304 q 1449 374 1490 374 m 897 -14 q 730 52 793 -14 q 667 229 667 118 q 734 422 667 351 q 914 493 802 493 q 1083 429 1023 493 q 1143 249 1143 366 q 1076 58 1143 129 q 897 -14 1009 -14 m 908 374 q 810 236 810 374 q 905 106 810 106 q 1002 241 1002 106 q 976 339 1002 304 q 908 374 950 374 z "},"⁄":{"ha":488,"x_min":-138,"x_max":632,"o":"m 632 972 l 28 0 l -138 0 l 467 972 l 632 972 z "},"¼":{"ha":1322,"x_min":66,"x_max":1251,"o":"m 458 396 l 77 396 l 77 513 l 196 513 l 196 836 l 66 808 l 66 930 l 342 986 l 342 513 l 458 513 l 458 396 m 1021 972 l 416 0 l 251 0 l 855 972 l 1021 972 m 1251 119 l 1177 119 l 1177 0 l 1032 0 l 1032 119 l 764 119 l 764 215 l 1002 576 l 1177 576 l 1177 224 l 1251 224 l 1251 119 m 1035 460 l 1029 460 q 1003 408 1020 435 l 889 224 l 1032 224 l 1032 403 q 1035 460 1032 435 z "},"½":{"ha":1341,"x_min":66,"x_max":1250,"o":"m 458 396 l 77 396 l 77 513 l 196 513 l 196 836 l 66 808 l 66 930 l 342 986 l 342 513 l 458 513 l 458 396 m 1021 972 l 417 0 l 252 0 l 856 972 l 1021 972 m 1250 0 l 840 0 l 840 106 l 1008 265 q 1073 340 1061 315 q 1086 395 1086 365 q 1066 443 1086 424 q 1015 461 1047 461 q 872 391 949 461 l 872 537 q 1042 590 952 590 q 1188 544 1134 590 q 1242 415 1242 497 q 1216 319 1242 368 q 1095 186 1191 271 l 1023 123 l 1023 121 l 1250 121 l 1250 0 z "},"¾":{"ha":1322,"x_min":89,"x_max":1283,"o":"m 89 418 l 89 541 q 239 494 161 494 q 340 564 340 494 q 224 633 340 633 l 144 633 l 144 746 l 221 746 q 322 811 322 746 q 241 872 322 872 q 107 828 169 872 l 107 947 q 269 986 174 986 q 413 945 360 986 q 465 836 465 904 q 368 704 465 736 l 368 701 q 485 567 485 673 q 418 433 485 484 q 244 382 352 382 q 89 418 154 382 m 1061 972 l 457 0 l 292 0 l 896 972 l 1061 972 m 1283 119 l 1208 119 l 1208 0 l 1064 0 l 1064 119 l 796 119 l 796 215 l 1034 576 l 1208 576 l 1208 224 l 1283 224 l 1283 119 m 1067 460 l 1061 460 q 1035 408 1052 435 l 921 224 l 1064 224 l 1064 403 q 1067 460 1064 435 z "},"+":{"ha":982,"x_min":161,"x_max":822,"o":"m 822 329 l 561 329 l 561 68 l 424 68 l 424 329 l 161 329 l 161 467 l 424 467 l 424 729 l 561 729 l 561 467 l 822 467 l 822 329 z "},"−":{"ha":982,"x_min":161,"x_max":822,"o":"m 822 329 l 161 329 l 161 467 l 822 467 l 822 329 z "},"±":{"ha":982,"x_min":161,"x_max":822,"o":"m 822 471 l 561 471 l 561 208 l 424 208 l 424 471 l 164 471 l 164 608 l 424 608 l 424 873 l 561 873 l 561 608 l 822 608 l 822 471 m 821 0 l 161 0 l 161 138 l 821 138 l 821 0 z "},"×":{"ha":982,"x_min":164,"x_max":821,"o":"m 821 168 l 722 71 l 493 301 l 262 71 l 164 170 l 395 397 l 164 628 l 260 726 l 493 496 l 725 726 l 819 624 l 590 397 l 821 168 z "},"÷":{"ha":982,"x_min":161,"x_max":822,"o":"m 496 574 q 428 601 456 574 q 400 667 400 628 q 427 737 400 709 q 496 765 454 765 q 563 738 538 765 q 589 668 589 711 q 561 600 589 627 q 496 574 534 574 m 822 329 l 161 329 l 161 467 l 822 467 l 822 329 m 493 32 q 425 58 453 32 q 397 123 397 85 q 424 194 397 165 q 493 222 451 222 q 561 195 535 222 q 586 125 586 168 q 559 58 586 83 q 493 32 532 32 z "},"=":{"ha":982,"x_min":161,"x_max":822,"o":"m 822 475 l 161 475 l 161 614 l 822 614 l 822 475 m 822 180 l 161 180 l 161 318 l 822 318 l 822 180 z "},"<":{"ha":982,"x_min":175,"x_max":808,"o":"m 808 43 l 175 332 l 175 441 l 808 745 l 808 583 l 357 390 l 357 386 l 808 204 l 808 43 z "},">":{"ha":982,"x_min":175,"x_max":808,"o":"m 808 340 l 175 52 l 175 212 l 628 393 l 628 396 l 175 590 l 175 751 l 808 450 l 808 340 z "},"¬":{"ha":982,"x_min":161,"x_max":822,"o":"m 822 180 l 685 180 l 685 444 l 161 444 l 161 582 l 822 582 l 822 180 z "},"°":{"ha":528,"x_min":78,"x_max":464,"o":"m 271 607 q 134 663 190 607 q 78 799 78 719 q 134 934 78 879 q 271 989 190 989 q 407 934 351 989 q 464 799 464 879 q 407 663 464 719 q 271 607 351 607 m 271 886 q 209 861 234 886 q 183 799 183 836 q 209 736 183 762 q 271 710 234 710 q 332 736 307 710 q 358 799 358 762 q 333 861 358 836 q 271 886 307 886 z "},"^":{"ha":982,"x_min":138,"x_max":847,"o":"m 847 414 l 682 414 l 488 811 l 485 811 l 301 414 l 138 414 l 429 989 l 539 989 l 847 414 z "},"~":{"ha":982,"x_min":132,"x_max":851,"o":"m 851 524 q 790 343 847 410 q 639 277 734 277 q 464 336 567 277 q 358 379 390 379 q 271 271 275 379 l 132 271 q 193 452 136 385 q 347 518 250 518 q 509 467 423 518 q 631 414 597 414 q 689 444 666 414 q 713 524 711 474 l 851 524 z "},"¦":{"ha":453,"x_min":142,"x_max":313,"o":"m 313 464 l 142 464 l 142 1063 l 313 1063 l 313 464 m 313 -326 l 142 -326 l 142 281 l 313 281 l 313 -326 z "},"_":{"ha":576,"x_min":0,"x_max":576,"o":"m 576 -201 l 0 -201 l 0 -121 l 576 -121 l 576 -201 z "},"ª":{"ha":570,"x_min":49,"x_max":501,"o":"m 501 486 l 357 486 l 357 545 l 354 545 q 205 472 295 472 q 93 513 137 472 q 49 621 49 555 q 227 786 49 764 l 357 803 q 262 880 357 880 q 96 828 182 880 l 96 947 q 290 986 180 986 q 501 783 501 986 l 501 486 m 357 668 l 357 715 l 273 704 q 195 639 195 693 q 265 579 195 579 q 329 605 302 579 q 357 668 357 631 z "},"º":{"ha":633,"x_min":47,"x_max":582,"o":"m 311 472 q 117 539 186 472 q 47 728 47 607 q 121 918 47 849 q 319 986 195 986 q 512 917 442 986 q 582 737 582 848 q 510 542 582 612 q 311 472 437 472 m 315 868 q 204 730 204 868 q 315 590 204 590 q 424 732 424 590 q 315 868 424 868 z "},"¤":{"ha":772,"x_min":35,"x_max":737,"o":"m 737 243 l 642 144 l 545 240 q 386 196 473 196 q 228 240 300 196 l 131 144 l 35 243 l 131 336 q 86 492 86 411 q 131 647 86 574 l 35 742 l 131 840 l 228 745 q 386 789 300 789 q 545 745 473 789 l 642 840 l 737 742 l 642 647 q 688 492 688 572 q 642 336 688 414 l 737 243 m 386 654 q 271 607 318 654 q 224 493 224 560 q 271 379 224 426 q 386 332 318 332 q 502 379 454 332 q 550 493 550 426 q 500 607 550 559 q 386 654 451 654 z "},"€":{"ha":799,"x_min":74,"x_max":742,"o":"m 742 31 q 533 -18 662 -18 q 284 66 380 -18 q 157 307 188 151 l 74 307 l 74 436 l 139 436 q 138 476 138 453 q 140 532 138 488 l 74 532 l 74 659 l 160 659 q 301 902 197 815 q 559 989 405 989 q 742 951 673 989 l 742 775 q 570 835 666 835 q 438 787 495 835 q 358 659 382 739 l 647 659 l 647 532 l 338 532 q 335 476 335 492 q 336 436 335 458 l 647 436 l 647 307 l 357 307 q 559 136 408 136 q 742 197 655 136 l 742 31 z "},"$":{"ha":799,"x_min":83,"x_max":734,"o":"m 457 5 l 457 -142 l 358 -142 l 358 1 q 102 64 220 2 l 102 252 q 219 193 141 220 q 358 161 297 165 l 358 408 q 141 536 199 467 q 83 704 83 605 q 159 885 83 810 q 358 972 234 960 l 358 1099 l 457 1099 l 457 975 q 671 929 600 968 l 671 746 q 457 817 576 804 l 457 559 q 670 437 606 506 q 734 271 734 368 q 663 89 734 158 q 457 5 591 20 m 358 599 l 358 814 q 264 715 264 797 q 358 599 264 646 m 457 370 l 457 164 q 554 261 554 179 q 457 370 554 328 z "},"¢":{"ha":799,"x_min":115,"x_max":681,"o":"m 681 140 q 558 103 631 112 l 558 -25 l 449 -25 l 449 100 q 209 202 302 108 q 115 446 115 297 q 206 704 115 604 q 449 821 297 804 l 449 964 l 558 964 l 558 823 q 681 793 633 819 l 681 608 q 558 656 629 648 l 558 267 q 681 313 631 278 l 681 140 m 449 271 l 449 650 q 317 460 317 610 q 449 271 317 309 z "},"£":{"ha":799,"x_min":97,"x_max":755,"o":"m 755 0 l 97 0 l 97 154 q 228 336 228 189 l 228 415 l 111 415 l 111 562 l 228 562 l 228 689 q 311 906 228 823 q 534 989 393 989 q 693 956 621 989 l 693 781 q 551 825 627 825 q 427 669 427 825 l 427 562 l 608 562 l 608 415 l 427 415 l 427 357 q 323 164 427 232 l 755 164 l 755 0 z "},"¥":{"ha":799,"x_min":28,"x_max":785,"o":"m 785 972 l 545 538 l 715 538 l 715 410 l 509 410 l 509 306 l 715 306 l 715 178 l 509 178 l 509 0 l 300 0 l 300 178 l 86 178 l 86 306 l 300 306 l 300 410 l 86 410 l 86 538 l 260 538 l 28 972 l 245 972 l 412 586 l 415 586 q 440 647 418 593 l 578 972 l 785 972 z "},"ƒ":{"ha":799,"x_min":53,"x_max":708,"o":"m 708 796 q 618 817 665 817 q 518 724 534 817 l 503 631 l 610 631 l 610 485 l 479 485 l 418 82 q 323 -129 397 -51 q 135 -207 248 -207 q 53 -193 101 -207 l 53 -29 q 115 -43 79 -43 q 220 94 199 -43 l 279 485 l 208 485 l 208 631 l 304 631 l 319 732 q 411 913 336 845 q 600 981 486 981 q 708 965 656 981 l 708 796 z "},"`":{"ha":436,"x_min":37,"x_max":404,"o":"m 404 804 l 250 804 l 37 1023 l 228 1023 l 404 804 z "},"´":{"ha":421,"x_min":37,"x_max":404,"o":"m 404 1023 l 192 804 l 37 804 l 214 1023 l 404 1023 z "},"ˆ":{"ha":532,"x_min":21,"x_max":509,"o":"m 509 804 l 368 804 l 261 932 l 161 804 l 21 804 l 180 1025 l 349 1025 l 509 804 z "},"ˇ":{"ha":532,"x_min":22,"x_max":511,"o":"m 511 1025 l 350 804 l 182 804 l 22 1025 l 161 1025 l 267 897 l 372 1025 l 511 1025 z "},"˜":{"ha":532,"x_min":24,"x_max":511,"o":"m 511 1015 q 474 868 511 920 q 371 817 436 817 q 257 846 313 817 q 174 878 197 878 q 119 804 119 878 l 24 804 q 61 951 24 899 q 165 1003 98 1003 q 279 970 220 1003 q 361 940 333 940 q 414 1015 414 940 l 511 1015 z "},"¨":{"ha":642,"x_min":58,"x_max":578,"o":"m 473 804 q 399 831 428 804 q 370 897 370 857 q 399 964 370 939 q 473 990 428 990 q 548 964 519 990 q 578 897 578 938 q 549 830 578 857 q 473 804 519 804 m 163 804 q 87 831 117 804 q 58 897 58 858 q 88 964 58 938 q 163 990 118 990 q 238 964 209 990 q 267 897 267 938 q 238 830 267 856 q 163 804 209 804 z "},"¯":{"ha":468,"x_min":35,"x_max":432,"o":"m 432 804 l 35 804 l 35 921 l 432 921 l 432 804 z "},"˘":{"ha":481,"x_min":12,"x_max":469,"o":"m 469 1013 q 400 861 461 917 q 239 804 338 804 q 77 862 140 804 q 12 1013 15 920 l 134 1013 q 241 921 145 921 q 347 1013 334 921 l 469 1013 z "},"˚":{"ha":376,"x_min":26,"x_max":351,"o":"m 186 804 q 72 845 117 804 q 26 950 26 885 q 74 1059 26 1019 q 189 1100 121 1100 q 307 1060 262 1100 q 351 954 351 1019 q 303 846 351 888 q 186 804 254 804 m 186 1017 q 121 953 121 1017 q 186 889 121 889 q 236 908 216 889 q 256 953 256 926 q 236 999 256 981 q 186 1017 217 1017 z "},"¸":{"ha":299,"x_min":35,"x_max":310,"o":"m 35 -306 l 35 -212 q 83 -216 58 -216 q 167 -167 167 -216 q 92 -122 167 -122 q 66 -123 83 -122 l 66 0 l 183 0 l 183 -56 q 310 -168 310 -61 q 94 -309 310 -309 q 35 -306 63 -309 z "},"µ":{"ha":851,"x_min":90,"x_max":787,"o":"m 787 0 l 568 0 q 551 104 551 47 l 548 104 q 401 -16 509 -16 q 307 28 336 -16 l 304 28 l 304 -268 l 90 -268 l 90 694 l 304 694 l 304 295 q 420 155 304 155 q 545 327 545 155 l 545 694 l 761 694 l 761 213 q 787 0 761 53 z "},"◻":{"ha":827,"x_min":122,"x_max":705,"o":"m 122 778 l 705 778 l 705 195 l 122 195 l 122 778 m 176 249 l 651 249 l 651 724 l 176 724 l 176 249 z "},"◼":{"ha":827,"x_min":122,"x_max":705,"o":"m 122 778 l 705 778 l 705 195 l 122 195 l 122 778 z "},"◽":{"ha":827,"x_min":239,"x_max":589,"o":"m 239 661 l 589 661 l 589 311 l 239 311 l 239 661 m 286 359 l 541 359 l 541 614 l 286 614 l 286 359 z "},"◾":{"ha":827,"x_min":239,"x_max":589,"o":"m 239 661 l 589 661 l 589 311 l 239 311 l 239 661 z "},"‌":{"ha":0,"x_min":-24,"x_max":24,"o":"m 24 1187 l 24 -277 l -24 -277 l -24 1187 l 24 1187 z "},"‍":{"ha":0,"x_min":-149,"x_max":149,"o":"m 24 -277 l -24 -277 l -24 984 l -115 892 l -149 925 l -33 1040 l -149 1154 l -115 1187 l 0 1071 l 115 1187 l 149 1154 l 33 1040 l 149 925 l 115 892 l 24 984 l 24 -277 z "},"◌":{"ha":825,"x_min":69,"x_max":756,"o":"m 665 623 q 632 589 665 589 q 597 623 597 589 q 632 656 597 656 q 665 623 665 656 m 564 689 q 532 656 564 656 q 496 689 496 656 q 532 724 496 724 q 564 689 564 724 m 732 522 q 697 488 732 488 q 664 522 664 488 q 699 555 664 555 q 732 522 732 555 m 756 404 q 724 370 756 370 q 688 404 688 370 q 724 438 688 438 q 756 404 756 438 m 446 714 q 412 680 446 680 q 378 714 378 680 q 412 747 378 747 q 446 714 446 747 m 329 689 q 294 656 329 656 q 261 689 261 656 q 294 724 261 724 q 329 689 329 724 m 732 286 q 697 253 732 253 q 664 286 664 253 q 697 321 664 321 q 732 286 732 321 m 229 623 q 195 589 229 589 q 161 621 161 589 q 195 656 161 656 q 229 623 229 656 m 665 184 q 632 151 665 151 q 597 184 597 151 q 632 219 597 219 q 665 184 665 219 m 564 118 q 532 85 564 85 q 496 118 496 85 q 532 153 496 153 q 564 118 564 153 m 161 522 q 129 488 161 488 q 94 522 94 488 q 127 555 94 555 q 161 522 161 555 m 137 404 q 104 370 137 370 q 69 404 69 370 q 104 438 69 438 q 137 404 137 438 m 446 96 q 412 61 446 61 q 378 96 378 61 q 412 129 378 129 q 446 96 446 129 m 161 286 q 127 253 161 253 q 94 286 94 253 q 127 321 94 321 q 161 286 161 321 m 329 121 q 294 85 329 85 q 261 118 261 85 q 294 153 261 153 q 329 121 329 153 m 229 184 q 195 151 229 151 q 161 184 161 151 q 195 219 161 219 q 229 184 229 219 z "},"͏":{"ha":0,"x_min":0,"x_max":0,"o":""},"⁠":{"ha":0,"x_min":0,"x_max":0,"o":""},"က":{"ha":1470,"x_min":75,"x_max":1396,"o":"m 1211 359 q 1200 431 1211 396 q 1166 492 1189 465 q 1108 534 1143 518 q 1023 550 1073 550 q 948 537 982 550 q 890 503 915 525 q 849 453 865 481 q 825 391 832 424 q 828 367 827 379 q 829 341 829 354 q 816 237 829 288 q 781 140 804 186 q 727 56 758 95 q 660 -12 696 18 l 541 117 q 578 158 559 135 q 611 208 596 180 q 634 269 625 236 q 644 340 644 302 q 632 415 644 378 q 597 483 621 452 q 537 531 573 513 q 452 550 501 550 q 366 531 402 550 q 307 483 330 513 q 271 415 283 452 q 260 340 260 378 q 269 269 260 302 q 293 208 278 236 q 326 158 307 180 q 362 117 344 135 l 243 -12 q 176 56 207 18 q 122 140 145 95 q 87 237 100 186 q 75 341 75 288 q 102 488 75 420 q 180 605 130 555 q 299 683 230 654 q 452 711 368 711 q 615 677 541 711 q 739 587 688 644 q 860 677 788 644 q 1023 711 932 711 q 1173 686 1105 711 q 1291 614 1242 661 q 1368 504 1341 568 q 1396 360 1396 439 q 1368 208 1396 277 q 1292 89 1341 138 q 1176 11 1243 39 q 1029 -16 1109 -16 q 973 -12 998 -16 q 930 -1 947 -7 q 892 14 908 5 l 943 163 q 970 153 956 157 q 997 147 982 150 q 1029 144 1013 144 q 1099 159 1066 144 q 1157 202 1133 174 q 1196 270 1182 231 q 1211 359 1211 310 z "},"ခ":{"ha":842,"x_min":64,"x_max":767,"o":"m 767 349 q 740 198 767 265 q 663 83 712 131 q 547 9 614 35 q 401 -16 480 -16 q 270 7 330 -16 q 168 69 211 30 q 97 160 124 109 q 64 269 71 212 q 115 313 86 293 q 179 348 144 333 q 255 370 214 362 q 341 378 296 378 q 471 353 413 378 q 574 286 529 328 q 582 348 582 315 q 572 418 582 382 q 541 483 562 454 q 485 531 519 513 q 401 550 450 550 q 342 541 368 550 q 295 517 315 532 q 258 481 274 502 q 231 437 242 460 l 81 513 q 133 593 102 557 q 203 655 163 629 q 293 696 243 682 q 401 711 342 711 q 550 684 482 711 q 666 609 617 657 q 741 494 714 561 q 767 349 767 428 m 401 144 q 459 155 431 144 q 510 184 487 165 q 438 240 481 217 q 340 264 395 264 q 287 257 312 264 q 239 239 261 251 q 302 171 263 198 q 401 144 342 144 z "},"ဂ":{"ha":903,"x_min":75,"x_max":829,"o":"m 452 550 q 366 531 402 550 q 307 483 330 513 q 271 415 283 452 q 260 340 260 378 q 269 269 260 302 q 293 208 278 236 q 326 158 307 180 q 362 117 344 135 l 243 -12 q 176 56 207 18 q 122 140 145 95 q 87 237 100 186 q 75 341 75 288 q 102 488 75 420 q 180 605 130 555 q 299 683 230 654 q 452 711 368 711 q 602 683 533 711 q 722 605 671 654 q 801 488 772 555 q 829 341 829 420 q 816 237 829 288 q 781 140 804 186 q 727 56 758 95 q 660 -12 696 18 l 541 117 q 578 158 559 135 q 611 208 596 180 q 634 269 625 236 q 644 340 644 302 q 632 415 644 378 q 597 483 621 452 q 537 531 573 513 q 452 550 501 550 z "},"ဃ":{"ha":1466,"x_min":68,"x_max":1392,"o":"m 1206 343 q 1192 434 1206 395 q 1153 498 1178 473 q 1095 537 1128 524 q 1025 550 1062 550 q 993 547 1008 550 q 966 541 978 544 q 939 532 951 536 l 888 680 q 926 695 904 688 q 969 706 943 701 q 1025 711 994 711 q 1172 686 1105 711 q 1288 615 1239 662 q 1364 499 1337 568 q 1392 342 1392 431 q 1364 197 1392 263 q 1287 84 1337 132 q 1169 10 1238 37 q 1019 -16 1101 -16 q 857 16 928 -16 q 736 106 785 49 q 605 16 683 49 q 428 -16 527 -16 q 283 4 347 -16 q 174 61 219 24 q 105 148 130 97 q 81 258 81 198 q 93 335 81 303 q 123 389 105 366 q 161 429 140 412 q 199 461 181 446 q 228 492 216 476 q 240 528 240 507 q 229 556 240 545 q 197 568 218 568 q 172 563 183 568 q 152 552 160 557 q 134 537 142 545 l 68 653 q 102 680 82 669 q 143 698 121 691 q 189 708 165 705 q 234 711 212 711 q 303 697 272 711 q 357 661 335 684 q 392 604 380 637 q 405 533 405 572 q 395 467 405 494 q 369 418 385 439 q 336 380 353 397 q 302 346 318 363 q 277 309 287 329 q 267 262 267 289 q 276 219 267 241 q 306 181 286 198 q 356 155 326 165 q 428 144 386 144 q 521 163 481 144 q 589 212 562 182 q 630 279 616 242 q 644 354 644 317 q 634 426 644 393 q 611 486 625 458 q 578 537 596 514 q 541 578 559 559 l 660 707 q 727 638 696 677 q 781 554 758 600 q 816 458 804 509 q 829 353 829 407 q 827 322 829 338 q 824 292 826 307 q 849 234 832 261 q 890 188 866 208 q 947 156 915 168 q 1019 144 979 144 q 1104 162 1069 144 q 1162 207 1139 179 q 1196 271 1185 235 q 1206 343 1206 307 z "},"င":{"ha":821,"x_min":75,"x_max":760,"o":"m 441 -16 q 294 9 361 -16 q 178 83 227 35 q 102 198 130 131 q 75 349 75 265 q 101 494 75 428 q 176 609 127 561 q 292 684 224 657 q 441 711 359 711 q 549 696 499 711 q 638 655 598 682 q 709 593 678 629 q 760 513 739 557 l 611 437 q 584 481 600 460 q 547 517 568 502 q 500 541 526 532 q 441 550 473 550 q 357 531 391 550 q 301 483 323 513 q 270 418 279 454 q 260 348 260 382 q 274 266 260 303 q 313 201 288 229 q 371 159 338 174 q 441 144 404 144 q 499 153 473 144 q 547 177 526 161 q 584 213 568 192 q 611 257 600 233 l 760 181 q 709 101 739 137 q 638 38 678 64 q 549 -2 598 12 q 441 -16 499 -16 z "},"စ":{"ha":881,"x_min":75,"x_max":806,"o":"m 806 348 q 779 197 806 264 q 703 83 751 130 q 587 9 654 35 q 441 -16 519 -16 q 294 9 361 -16 q 178 83 227 35 q 102 197 130 130 q 75 348 75 264 q 101 494 75 427 q 176 608 127 560 q 292 684 224 656 q 441 711 359 711 q 589 684 522 711 q 705 608 656 656 q 780 494 753 560 q 806 348 806 427 m 441 144 q 511 159 478 144 q 568 201 544 174 q 607 266 593 229 q 621 348 621 303 q 611 418 621 382 q 580 483 602 454 q 524 531 559 513 q 441 550 490 550 q 422 549 431 550 q 405 547 413 549 q 467 461 444 509 q 490 349 490 413 q 468 234 490 283 q 407 147 445 185 q 424 145 415 146 q 441 144 432 144 m 260 348 q 270 278 260 310 q 298 220 280 245 q 336 277 321 245 q 351 348 351 309 q 336 415 351 382 q 296 477 322 449 q 268 414 277 448 q 260 348 260 380 z "},"ဆ":{"ha":1388,"x_min":64,"x_max":1314,"o":"m 1314 348 q 1286 197 1314 264 q 1210 83 1259 130 q 1094 9 1161 35 q 948 -16 1027 -16 q 867 -7 906 -16 q 794 19 829 3 q 729 59 759 36 q 674 108 699 81 q 620 59 650 81 q 555 19 589 36 q 481 -7 520 3 q 401 -16 443 -16 q 270 7 330 -16 q 168 69 211 30 q 97 160 124 109 q 64 269 71 212 q 115 313 86 293 q 179 348 144 333 q 255 370 214 362 q 341 378 296 378 q 471 353 413 378 q 574 286 529 328 q 582 348 582 315 q 572 418 582 382 q 541 483 562 454 q 485 531 519 513 q 401 550 450 550 q 342 541 368 550 q 295 517 315 532 q 258 481 274 502 q 231 437 242 460 l 81 513 q 133 593 102 557 q 203 655 163 629 q 293 696 243 682 q 401 711 342 711 q 483 701 444 711 q 556 674 522 691 q 620 635 591 658 q 674 586 650 612 q 728 635 699 612 q 793 674 758 658 q 866 701 827 691 q 948 711 905 711 q 1097 684 1029 711 q 1212 608 1164 656 q 1287 494 1261 560 q 1314 348 1314 427 m 948 144 q 1018 159 985 144 q 1076 201 1051 174 q 1114 266 1100 229 q 1128 348 1128 303 q 1119 418 1128 382 q 1087 483 1109 454 q 1031 531 1066 513 q 948 550 997 550 q 864 531 899 550 q 808 483 830 513 q 777 418 787 454 q 767 348 767 382 q 781 266 767 303 q 820 201 795 229 q 878 159 845 174 q 948 144 911 144 m 401 144 q 459 155 431 144 q 510 184 487 165 q 438 240 481 217 q 340 264 395 264 q 287 257 312 264 q 239 239 261 251 q 302 171 263 198 q 401 144 342 144 z "},"ဇ":{"ha":909,"x_min":75,"x_max":837,"o":"m 441 711 q 569 688 513 711 q 663 630 625 666 q 721 549 701 594 q 741 457 741 503 q 734 409 741 429 q 775 362 756 387 q 808 315 794 337 q 837 265 824 290 l 720 193 q 703 225 713 208 q 682 257 694 239 q 656 292 670 275 q 636 279 650 286 q 604 264 623 271 q 562 252 585 257 q 512 248 538 248 q 449 257 481 248 q 392 283 418 266 q 351 326 367 300 q 335 384 335 351 q 347 439 335 414 q 379 483 358 465 q 428 512 399 501 q 490 522 456 522 q 531 519 513 522 q 562 513 549 516 q 589 503 577 509 q 560 538 578 523 q 520 563 545 552 q 461 574 496 574 q 369 553 407 574 q 307 500 331 532 q 271 431 282 469 q 260 358 260 393 q 275 274 260 313 q 316 207 290 235 q 380 161 343 178 q 461 144 417 144 q 516 149 492 144 q 555 159 539 153 q 588 173 574 165 l 688 45 q 634 14 667 27 q 563 -7 606 3 q 461 -16 521 -16 q 307 9 378 -16 q 184 83 236 35 q 104 198 133 131 q 75 349 75 265 q 101 494 75 428 q 176 609 128 561 q 292 684 224 657 q 441 711 360 711 m 578 380 q 558 398 569 391 q 536 410 549 405 q 508 416 524 416 q 467 406 481 416 q 454 382 454 397 q 458 367 454 374 q 471 357 463 361 q 488 351 478 353 q 507 349 497 349 q 537 354 524 349 q 559 365 550 359 q 578 380 570 372 z "},"ဈ":{"ha":1249,"x_min":75,"x_max":1154,"o":"m 806 348 q 767 170 806 247 q 658 46 727 93 l 658 -352 q 669 -416 658 -387 q 702 -465 681 -445 q 752 -497 723 -486 q 817 -508 781 -508 q 881 -497 852 -508 q 931 -465 910 -486 q 964 -416 952 -445 q 975 -352 975 -387 l 975 696 l 1154 696 l 1154 -352 q 1146 -425 1154 -387 q 1122 -497 1139 -462 q 1078 -564 1105 -532 q 1014 -618 1052 -595 q 927 -655 977 -642 q 817 -669 878 -669 q 705 -655 754 -669 q 619 -618 656 -642 q 555 -564 581 -595 q 511 -497 528 -532 q 487 -425 494 -462 q 479 -352 479 -387 l 479 -14 q 441 -16 459 -16 q 294 9 361 -16 q 178 83 227 35 q 102 197 130 130 q 75 348 75 264 q 101 494 75 427 q 176 608 127 560 q 292 684 224 656 q 441 711 359 711 q 589 684 522 711 q 705 608 656 656 q 780 494 753 560 q 806 348 806 427 m 441 144 q 511 159 478 144 q 568 201 544 174 q 607 266 593 229 q 621 348 621 303 q 611 418 621 382 q 580 483 602 454 q 524 531 559 513 q 441 550 490 550 q 422 549 431 550 q 405 547 413 549 q 467 461 444 509 q 490 349 490 413 q 468 234 490 283 q 407 147 445 185 q 424 145 415 146 q 441 144 432 144 m 260 348 q 270 278 260 310 q 298 220 280 245 q 336 277 321 245 q 351 348 351 309 q 336 415 351 382 q 296 477 322 449 q 268 414 277 448 q 260 348 260 380 z "},"ဉ":{"ha":821,"x_min":61,"x_max":1321,"o":"m 399 -659 q 288 -646 336 -659 q 201 -609 239 -632 q 137 -554 163 -585 q 94 -488 111 -523 q 69 -415 77 -452 q 61 -342 61 -378 l 61 181 l 210 257 q 238 213 222 233 q 275 177 254 192 q 322 153 296 161 q 380 144 348 144 q 451 159 418 144 q 508 201 484 174 q 547 266 533 229 q 562 348 562 303 q 552 418 562 382 q 520 483 542 454 q 464 531 498 513 q 380 550 430 550 q 321 541 348 550 q 274 517 295 532 q 238 481 254 502 q 210 437 222 460 l 61 513 q 113 593 82 557 q 183 655 143 629 q 273 696 223 682 q 380 711 322 711 q 529 684 462 711 q 645 609 597 657 q 720 494 694 561 q 747 349 747 428 q 719 198 747 265 q 643 83 692 131 q 527 9 594 35 q 380 -16 460 -16 q 240 9 304 -16 l 240 -342 q 252 -407 240 -378 q 284 -456 263 -435 q 334 -487 305 -476 q 399 -498 363 -498 l 983 -498 q 1048 -487 1019 -498 q 1098 -456 1077 -476 q 1131 -407 1119 -435 q 1142 -342 1142 -378 l 1142 -269 l 1321 -269 l 1321 -342 q 1313 -415 1321 -378 q 1289 -488 1305 -452 q 1245 -554 1272 -523 q 1181 -609 1219 -585 q 1094 -646 1143 -632 q 983 -659 1045 -659 l 399 -659 z "},"ည":{"ha":1440,"x_min":61,"x_max":1321,"o":"m 1118 343 q 1104 434 1118 395 q 1065 498 1090 473 q 1007 537 1040 524 q 937 550 974 550 q 905 547 920 550 q 878 541 890 544 q 850 532 863 536 l 800 680 q 838 695 816 688 q 881 706 855 701 q 937 711 906 711 q 1084 686 1017 711 q 1200 615 1151 662 q 1276 499 1249 568 q 1303 342 1303 431 q 1276 197 1303 263 q 1199 84 1249 132 q 1081 10 1149 37 q 931 -16 1013 -16 q 774 14 844 -16 q 656 97 705 44 q 537 14 608 43 q 380 -16 467 -16 q 240 9 304 -16 l 240 -342 q 252 -407 240 -378 q 284 -456 263 -435 q 334 -487 305 -476 q 399 -498 363 -498 l 983 -498 q 1048 -487 1019 -498 q 1098 -456 1077 -476 q 1131 -407 1119 -435 q 1142 -342 1142 -378 l 1142 -269 l 1321 -269 l 1321 -342 q 1313 -415 1321 -378 q 1289 -488 1305 -452 q 1245 -554 1272 -523 q 1181 -609 1219 -585 q 1094 -646 1143 -632 q 983 -659 1045 -659 l 399 -659 q 288 -646 336 -659 q 201 -609 239 -632 q 137 -554 163 -585 q 94 -488 111 -523 q 69 -415 77 -452 q 61 -342 61 -378 l 61 182 l 210 258 q 238 213 222 234 q 274 177 254 193 q 321 153 295 162 q 380 144 348 144 q 464 163 430 144 q 520 211 498 182 q 552 276 542 241 q 562 347 562 312 q 547 429 562 391 q 508 493 533 466 q 451 535 484 520 q 380 550 418 550 q 322 542 348 550 q 275 518 296 533 q 238 482 254 503 q 210 437 222 461 l 61 513 q 113 594 82 557 q 183 656 143 630 q 273 696 223 682 q 380 711 322 711 q 527 685 460 711 q 643 611 594 659 q 719 496 692 564 q 747 346 747 429 q 741 276 747 309 q 768 224 751 248 q 809 182 785 200 q 863 155 833 165 q 931 144 894 144 q 1016 162 981 144 q 1074 207 1051 179 q 1107 271 1097 235 q 1118 343 1118 307 z "},"ဋ":{"ha":821,"x_min":75,"x_max":909,"o":"m 760 181 l 760 -144 q 618 -208 699 -182 q 438 -234 538 -234 q 365 -229 399 -234 q 296 -216 330 -224 l 296 -300 q 365 -312 330 -308 q 438 -317 399 -317 q 618 -299 539 -317 q 760 -240 696 -281 l 760 -492 l 909 -492 l 909 -652 l 581 -652 l 581 -456 q 512 -462 548 -460 q 438 -464 477 -464 q 253 -447 335 -464 q 117 -404 171 -430 l 117 10 q 263 -61 183 -35 q 438 -87 342 -87 q 512 -80 477 -87 q 581 -62 548 -73 l 581 9 q 441 -16 517 -16 q 294 9 361 -16 q 178 83 227 35 q 102 198 130 131 q 75 349 75 265 q 101 494 75 428 q 176 609 127 561 q 292 684 224 657 q 441 711 359 711 q 549 696 499 711 q 638 655 598 682 q 709 593 678 629 q 760 513 739 557 l 611 437 q 584 481 600 460 q 547 517 568 502 q 500 541 526 532 q 441 550 473 550 q 357 531 391 550 q 301 483 323 513 q 270 418 279 454 q 260 348 260 382 q 274 266 260 303 q 313 201 288 229 q 371 159 338 174 q 441 144 404 144 q 499 153 473 144 q 547 177 526 161 q 584 213 568 192 q 611 257 600 233 l 760 181 z "},"ဌ":{"ha":821,"x_min":75,"x_max":760,"o":"m 760 181 l 760 -342 q 752 -415 760 -378 q 728 -488 745 -452 q 684 -554 711 -523 q 620 -609 658 -585 q 533 -646 583 -632 q 422 -659 484 -659 l 362 -659 q 241 -643 294 -659 q 150 -597 187 -627 q 94 -525 113 -567 q 75 -432 75 -484 q 95 -342 75 -381 q 150 -278 115 -304 q 229 -239 184 -252 q 321 -226 273 -226 q 381 -233 353 -226 q 431 -248 410 -240 q 479 -270 457 -258 l 430 -404 q 403 -389 417 -396 q 375 -377 391 -382 q 344 -372 359 -372 q 281 -390 302 -372 q 260 -433 260 -407 q 265 -463 260 -452 q 282 -481 270 -473 q 314 -494 294 -490 q 364 -498 334 -498 l 422 -498 q 487 -487 458 -498 q 537 -456 516 -476 q 570 -407 558 -435 q 581 -336 581 -378 l 581 9 q 441 -16 517 -16 q 294 9 361 -16 q 178 83 227 35 q 102 198 130 131 q 75 349 75 265 q 101 494 75 428 q 176 609 127 561 q 292 684 224 657 q 441 711 359 711 q 549 696 499 711 q 638 655 598 682 q 709 593 678 629 q 760 513 739 557 l 611 437 q 584 481 600 460 q 547 517 568 502 q 500 541 526 532 q 441 550 473 550 q 357 531 391 550 q 301 483 323 513 q 270 418 279 454 q 260 348 260 382 q 274 266 260 303 q 313 201 288 229 q 371 159 338 174 q 441 144 404 144 q 499 153 473 144 q 547 177 526 161 q 584 213 568 192 q 611 257 600 233 l 760 181 z "},"ဍ":{"ha":821,"x_min":61,"x_max":853,"o":"m 380 -16 q 240 9 304 -16 l 240 -62 q 309 -80 273 -73 q 383 -87 345 -87 q 558 -61 479 -87 q 704 10 638 -35 l 704 -492 l 853 -492 l 853 -652 l 525 -652 l 525 -216 q 457 -229 492 -224 q 383 -234 422 -234 q 203 -208 283 -234 q 61 -144 123 -182 l 61 181 l 210 257 q 238 213 222 233 q 275 177 254 192 q 322 153 296 161 q 380 144 348 144 q 451 159 418 144 q 508 201 484 174 q 547 266 533 229 q 562 348 562 303 q 552 418 562 382 q 520 483 542 454 q 464 531 498 513 q 380 550 430 550 q 321 541 348 550 q 274 517 295 532 q 238 481 254 502 q 210 437 222 460 l 61 513 q 113 593 82 557 q 183 655 143 629 q 273 696 223 682 q 380 711 322 711 q 529 684 462 711 q 645 609 597 657 q 720 494 694 561 q 747 349 747 428 q 719 198 747 265 q 643 83 692 131 q 527 9 594 35 q 380 -16 460 -16 z "},"ဎ":{"ha":903,"x_min":68,"x_max":829,"o":"m 267 262 q 276 219 267 241 q 306 181 286 198 q 356 155 326 165 q 428 144 386 144 q 521 163 481 144 q 589 212 562 182 q 630 279 616 242 q 644 354 644 317 q 634 426 644 393 q 611 486 625 458 q 578 537 596 514 q 541 578 559 559 l 660 707 q 727 638 696 677 q 781 554 758 600 q 816 458 804 509 q 829 353 829 407 q 800 207 829 274 q 719 90 771 139 q 592 12 667 40 q 428 -16 518 -16 q 283 4 347 -16 q 174 61 219 24 q 105 148 130 97 q 81 258 81 198 q 93 335 81 303 q 123 389 105 366 q 161 429 140 412 q 199 461 181 446 q 228 492 216 476 q 240 528 240 507 q 229 556 240 545 q 197 568 218 568 q 172 563 183 568 q 152 552 160 557 q 134 537 142 545 l 68 653 q 102 680 82 669 q 143 698 121 691 q 189 708 165 705 q 234 711 212 711 q 303 697 272 711 q 357 661 335 684 q 392 604 380 637 q 405 533 405 572 q 395 467 405 494 q 369 418 385 439 q 336 380 353 397 q 302 346 318 363 q 277 309 287 329 q 267 262 267 289 z "},"ဏ":{"ha":1684,"x_min":75,"x_max":1609,"o":"m 1237 711 q 1387 685 1318 711 q 1505 611 1455 659 q 1582 498 1554 564 q 1609 353 1609 433 q 1584 202 1609 270 q 1512 85 1558 134 q 1401 10 1466 37 q 1257 -16 1336 -16 q 1201 -12 1225 -16 q 1160 -3 1177 -8 q 1126 11 1141 3 l 1177 159 q 1200 152 1188 155 q 1225 146 1211 149 q 1256 144 1240 144 q 1319 158 1289 144 q 1373 199 1350 172 q 1410 264 1396 226 q 1424 353 1424 303 q 1413 425 1424 389 q 1379 488 1402 460 q 1321 533 1356 516 q 1237 550 1286 550 q 1153 533 1187 550 q 1099 490 1120 515 q 1070 437 1079 465 q 1062 387 1062 409 q 1067 320 1062 347 q 1077 272 1072 294 q 1087 231 1082 251 q 1092 182 1092 210 q 1067 84 1092 123 q 1005 24 1042 46 q 924 -7 968 1 q 842 -16 880 -16 q 788 -13 817 -16 q 732 -1 760 -9 q 679 22 705 7 q 634 59 654 37 q 604 111 615 81 q 592 182 592 142 q 597 231 592 210 q 607 272 602 251 q 617 320 612 294 q 622 387 622 347 q 613 437 622 409 q 584 490 604 465 q 530 533 564 515 q 447 550 496 550 q 363 533 398 550 q 305 488 328 516 q 271 425 282 460 q 260 353 260 389 q 274 264 260 303 q 311 199 288 226 q 365 158 334 172 q 428 144 395 144 q 458 146 444 144 q 484 152 473 149 q 507 159 496 155 l 558 11 q 524 -3 543 3 q 483 -12 507 -8 q 427 -16 458 -16 q 283 10 348 -16 q 172 85 218 37 q 100 202 125 134 q 75 353 75 270 q 102 498 75 433 q 179 611 130 564 q 297 685 229 659 q 447 711 366 711 q 568 695 514 711 q 665 651 623 679 q 707 678 684 667 q 752 697 729 690 q 798 707 775 704 q 842 711 821 711 q 886 707 863 711 q 931 696 909 704 q 976 678 954 689 q 1018 651 998 667 q 1115 695 1061 679 q 1237 711 1169 711 m 807 391 q 802 335 807 361 q 792 286 798 309 q 782 243 787 263 q 777 208 777 224 q 793 160 777 179 q 842 140 810 140 q 890 160 874 140 q 907 208 907 179 q 902 243 907 224 q 892 286 897 263 q 882 335 886 309 q 877 391 877 361 q 906 522 877 458 q 901 529 905 524 q 889 540 897 534 q 869 550 881 546 q 842 554 858 554 q 814 550 825 554 q 794 539 802 545 q 783 529 787 534 q 778 522 779 524 q 807 391 807 458 z "},"တ":{"ha":1444,"x_min":75,"x_max":1369,"o":"m 1184 359 q 1173 431 1184 396 q 1140 492 1162 465 q 1082 534 1117 518 q 997 550 1046 550 q 926 539 958 550 q 869 508 894 528 q 828 462 844 488 q 802 405 811 435 q 806 348 806 377 q 779 197 806 264 q 703 83 751 130 q 587 9 654 35 q 441 -16 519 -16 q 294 9 361 -16 q 178 83 227 35 q 102 197 130 130 q 75 348 75 264 q 101 494 75 427 q 176 608 127 560 q 292 684 224 656 q 440 711 359 711 q 600 680 529 711 q 719 593 670 648 q 838 679 768 648 q 997 711 908 711 q 1147 686 1078 711 q 1265 614 1215 661 q 1342 504 1314 568 q 1369 360 1369 439 q 1342 208 1369 277 q 1265 89 1314 138 q 1149 11 1217 39 q 1003 -16 1082 -16 q 946 -12 972 -16 q 903 -1 921 -7 q 865 14 882 5 l 916 163 q 943 153 929 157 q 971 147 956 150 q 1002 144 986 144 q 1073 159 1040 144 q 1131 202 1106 174 q 1170 270 1156 231 q 1184 359 1184 310 m 621 348 q 611 418 621 382 q 580 483 602 454 q 524 531 559 513 q 441 550 490 550 q 357 531 391 550 q 301 483 323 513 q 270 418 279 454 q 260 348 260 382 q 274 266 260 303 q 313 201 288 229 q 371 159 338 174 q 441 144 404 144 q 511 159 478 144 q 568 201 544 174 q 607 266 593 229 q 621 348 621 303 z "},"ထ":{"ha":1428,"x_min":75,"x_max":1353,"o":"m 713 585 q 768 634 738 612 q 832 674 798 657 q 905 701 867 691 q 987 711 944 711 q 1136 684 1068 711 q 1252 608 1203 656 q 1326 494 1300 560 q 1353 348 1353 427 q 1325 197 1353 264 q 1249 83 1298 130 q 1133 9 1200 35 q 987 -16 1066 -16 q 907 -7 945 -16 q 833 19 868 3 q 768 59 798 36 q 713 108 738 81 q 659 59 689 81 q 594 19 629 36 q 521 -7 559 3 q 441 -16 482 -16 q 294 9 361 -16 q 178 83 227 35 q 102 197 130 130 q 75 348 75 264 q 101 494 75 427 q 176 608 127 560 q 292 684 224 656 q 440 711 359 711 q 522 701 483 711 q 595 674 561 691 q 660 634 630 657 q 713 585 689 612 m 1168 348 q 1158 418 1168 382 q 1127 483 1148 454 q 1071 531 1105 513 q 987 550 1036 550 q 904 531 938 550 q 848 483 869 513 q 816 418 826 454 q 806 348 806 382 q 821 266 806 303 q 860 201 835 229 q 917 159 884 174 q 987 144 950 144 q 1058 159 1025 144 q 1115 201 1090 174 q 1154 266 1139 229 q 1168 348 1168 303 m 621 348 q 611 418 621 382 q 580 483 602 454 q 524 531 559 513 q 441 550 490 550 q 357 531 391 550 q 301 483 323 513 q 270 418 279 454 q 260 348 260 382 q 274 266 260 303 q 313 201 288 229 q 371 159 338 174 q 441 144 404 144 q 511 159 478 144 q 568 201 544 174 q 607 266 593 229 q 621 348 621 303 z "},"ဒ":{"ha":776,"x_min":64,"x_max":701,"o":"m 516 203 q 510 229 516 218 q 495 248 505 240 q 474 262 486 256 q 450 271 463 267 q 385 281 421 279 l 385 415 q 421 418 406 416 q 452 425 435 420 q 483 438 469 429 q 507 459 497 446 q 516 492 516 473 q 509 519 516 505 q 485 547 501 534 q 444 569 469 560 q 385 577 419 577 q 321 569 347 577 q 280 548 296 560 q 257 520 264 535 q 250 494 250 506 l 64 494 q 86 580 64 541 q 148 649 107 620 q 248 694 189 677 q 385 711 308 711 q 511 695 453 711 q 611 652 569 680 q 677 583 654 623 q 701 491 701 542 q 692 442 701 464 q 667 403 682 420 q 630 372 651 386 q 587 349 610 359 l 587 343 q 630 322 609 334 q 667 292 651 309 q 692 253 682 275 q 701 203 701 231 q 677 112 701 153 q 611 43 654 71 q 511 -1 569 14 q 385 -16 453 -16 q 248 0 308 -16 q 148 45 189 16 q 86 114 107 75 q 64 200 64 154 l 250 200 q 257 174 250 189 q 280 147 264 159 q 321 126 296 134 q 385 117 347 117 q 444 126 419 117 q 485 147 469 134 q 509 175 501 160 q 516 203 516 190 z "},"ဓ":{"ha":881,"x_min":75,"x_max":806,"o":"m 806 348 q 779 197 806 264 q 703 83 751 130 q 587 9 654 35 q 441 -16 519 -16 q 294 9 361 -16 q 178 83 227 35 q 102 197 130 130 q 75 348 75 264 q 101 494 75 427 q 176 608 127 560 q 292 684 224 656 q 441 711 359 711 q 589 684 522 711 q 705 608 656 656 q 780 494 753 560 q 806 348 806 427 m 621 348 q 611 418 621 382 q 580 483 602 454 q 524 531 559 513 q 441 550 490 550 q 357 531 391 550 q 301 483 323 513 q 270 418 279 454 q 260 348 260 382 q 260 337 260 342 q 260 326 260 332 q 340 375 296 357 q 441 394 384 394 q 541 377 497 394 q 621 330 585 359 l 621 348 m 441 144 q 511 159 478 144 q 569 202 544 174 q 512 240 544 226 q 441 254 480 254 q 374 240 408 254 q 313 201 341 227 q 370 159 338 174 q 441 144 403 144 z "},"န":{"ha":821,"x_min":64,"x_max":757,"o":"m 64 177 q 82 252 64 218 q 127 309 99 286 q 194 344 156 332 q 272 357 231 357 q 352 344 313 357 q 423 307 391 332 q 477 243 454 281 q 508 155 499 205 q 541 173 528 163 q 561 193 553 183 q 572 213 569 203 q 576 231 576 223 q 554 281 576 260 q 499 322 532 303 q 428 360 467 341 q 357 404 390 380 q 302 460 324 429 q 281 536 281 492 q 300 623 281 589 q 351 676 320 656 q 419 703 381 696 q 492 711 456 711 q 563 701 530 711 q 620 680 595 691 q 673 648 648 666 l 583 533 q 560 547 572 541 q 536 557 550 553 q 508 562 523 562 q 477 554 488 562 q 466 532 466 546 q 478 507 466 519 q 511 484 491 495 q 558 460 532 472 q 611 433 584 448 q 665 399 639 418 q 711 356 691 380 q 744 301 732 332 q 757 231 757 270 q 744 155 757 191 q 703 87 732 118 q 627 33 674 56 q 513 -3 581 9 l 513 -652 l 334 -652 l 334 -16 q 215 3 266 -14 q 131 45 165 19 q 81 105 98 71 q 64 177 64 139 m 275 223 q 247 213 257 223 q 236 186 236 203 q 260 149 236 165 q 332 131 284 134 q 328 164 331 147 q 319 194 326 180 q 302 215 313 207 q 275 223 291 223 z "},"ပ":{"ha":903,"x_min":75,"x_max":829,"o":"m 452 144 q 537 163 501 144 q 597 212 573 182 q 632 279 621 242 q 644 354 644 317 q 634 426 644 393 q 611 486 625 458 q 578 537 596 514 q 541 578 559 559 l 660 707 q 727 638 696 677 q 781 554 758 600 q 816 458 804 509 q 829 353 829 407 q 801 207 829 274 q 723 90 773 139 q 604 12 673 40 q 452 -16 535 -16 q 301 12 370 -16 q 181 90 232 40 q 103 207 131 139 q 75 353 75 274 q 87 458 75 407 q 122 554 100 509 q 176 638 145 600 q 243 707 207 677 l 362 578 q 326 537 344 559 q 293 486 307 514 q 269 426 278 458 q 260 354 260 393 q 271 279 260 317 q 307 212 283 242 q 366 163 330 182 q 452 144 402 144 z "},"ဖ":{"ha":903,"x_min":75,"x_max":829,"o":"m 452 144 q 498 149 477 144 q 425 254 451 194 q 399 389 399 315 q 418 490 399 440 q 467 582 437 539 q 537 657 498 625 q 619 707 577 690 q 694 651 656 686 q 761 572 731 617 q 810 472 791 527 q 829 353 829 416 q 801 207 829 274 q 723 90 773 139 q 604 12 673 40 q 452 -16 535 -16 q 301 12 370 -16 q 181 90 232 40 q 103 207 131 139 q 75 353 75 274 q 87 458 75 407 q 122 554 100 509 q 176 638 145 600 q 243 707 207 677 l 362 578 q 326 537 344 559 q 293 486 307 514 q 269 426 278 458 q 260 354 260 393 q 271 279 260 317 q 307 212 283 242 q 366 163 330 182 q 452 144 402 144 m 644 354 q 627 449 644 408 q 587 523 611 490 q 552 460 565 495 q 539 389 539 425 q 558 297 539 338 q 608 229 576 256 q 635 289 626 257 q 644 354 644 321 z "},"ဗ":{"ha":903,"x_min":75,"x_max":829,"o":"m 829 353 q 801 207 829 274 q 723 90 773 139 q 604 12 673 40 q 452 -16 535 -16 q 301 12 370 -16 q 181 90 232 40 q 103 207 131 139 q 75 353 75 274 q 90 458 75 407 q 129 554 104 509 q 187 638 154 600 q 257 707 220 677 l 384 675 q 367 643 372 656 q 361 612 361 629 q 370 578 361 593 q 391 553 378 563 q 420 538 404 543 q 452 534 436 534 q 484 539 467 534 q 513 554 500 544 q 534 579 526 564 q 542 612 542 593 q 536 643 542 629 q 519 675 531 656 l 646 707 q 716 638 683 677 q 774 554 749 600 q 814 458 799 509 q 829 353 829 407 m 452 144 q 537 163 501 144 q 597 212 573 182 q 632 279 621 242 q 644 354 644 317 q 636 424 644 394 q 618 477 629 454 q 550 420 591 441 q 452 399 509 399 q 352 421 393 399 q 284 479 311 442 q 267 424 273 455 q 260 354 260 393 q 271 279 260 317 q 307 212 283 242 q 366 163 330 182 q 452 144 402 144 z "},"ဘ":{"ha":1378,"x_min":61,"x_max":1303,"o":"m 1118 359 q 1107 431 1118 396 q 1074 492 1097 465 q 1016 534 1051 518 q 931 550 981 550 q 863 540 894 550 q 809 512 833 530 q 768 470 785 494 q 741 418 751 446 q 747 349 747 385 q 719 198 747 265 q 643 83 692 131 q 527 9 594 35 q 380 -16 460 -16 q 273 -2 322 -16 q 183 38 223 12 q 113 101 143 64 q 61 181 82 137 l 210 257 q 238 213 222 233 q 275 177 254 192 q 322 153 296 161 q 380 144 348 144 q 451 159 418 144 q 508 201 484 174 q 547 266 533 229 q 562 348 562 303 q 552 418 562 382 q 520 483 542 454 q 464 531 498 513 q 380 550 430 550 q 321 541 348 550 q 274 517 295 532 q 238 481 254 502 q 210 437 222 460 l 61 513 q 113 593 82 557 q 183 655 143 629 q 273 696 223 682 q 380 711 322 711 q 537 681 467 711 q 656 597 608 650 q 774 680 705 650 q 931 711 844 711 q 1081 686 1013 711 q 1199 614 1149 661 q 1276 504 1249 568 q 1303 360 1303 439 q 1276 208 1303 277 q 1200 89 1249 138 q 1084 11 1151 39 q 937 -16 1017 -16 q 881 -12 906 -16 q 838 -1 855 -7 q 800 14 816 5 l 850 163 q 878 153 863 157 q 905 147 890 150 q 937 144 920 144 q 1007 159 974 144 q 1065 202 1040 174 q 1104 270 1090 231 q 1118 359 1118 310 z "},"မ":{"ha":903,"x_min":75,"x_max":829,"o":"m 644 354 q 634 426 644 393 q 611 486 625 458 q 578 537 596 514 q 541 578 559 559 l 660 707 q 727 638 696 677 q 781 554 758 600 q 816 458 804 509 q 829 353 829 407 q 801 207 829 274 q 723 90 773 139 q 604 12 673 40 q 452 -16 535 -16 q 301 12 370 -16 q 181 90 232 40 q 103 207 131 139 q 75 353 75 274 q 87 458 75 407 q 122 554 100 509 q 176 638 145 600 q 243 707 207 677 l 362 578 q 326 537 344 559 q 293 486 307 514 q 269 426 278 458 q 260 354 260 393 q 262 317 260 336 q 345 373 298 352 q 452 394 391 394 q 558 374 512 394 q 642 321 605 355 q 644 354 644 338 m 452 144 q 528 159 495 144 q 584 197 560 174 q 526 239 559 223 q 452 254 493 254 q 383 240 418 254 q 319 197 348 225 q 376 159 343 173 q 452 144 408 144 z "},"ယ":{"ha":1467,"x_min":75,"x_max":1392,"o":"m 1207 343 q 1193 434 1207 395 q 1154 498 1179 473 q 1096 537 1129 524 q 1025 550 1063 550 q 994 547 1009 550 q 966 541 979 544 q 939 532 952 536 l 888 680 q 926 695 905 688 q 969 706 944 701 q 1026 711 995 711 q 1173 686 1105 711 q 1289 615 1240 662 q 1365 499 1337 568 q 1392 342 1392 431 q 1365 197 1392 263 q 1288 84 1337 132 q 1170 10 1238 37 q 1020 -16 1101 -16 q 858 16 929 -16 q 738 105 787 48 q 614 16 687 48 q 452 -16 542 -16 q 301 12 370 -16 q 181 90 232 40 q 103 207 131 139 q 75 353 75 274 q 87 458 75 407 q 122 554 100 509 q 176 638 145 600 q 243 707 207 677 l 362 578 q 326 537 344 559 q 293 486 307 514 q 269 426 278 458 q 260 354 260 393 q 271 279 260 317 q 307 212 283 242 q 366 163 330 182 q 452 144 402 144 q 537 163 501 144 q 597 212 573 182 q 632 279 621 242 q 644 354 644 317 q 634 426 644 393 q 611 486 625 458 q 578 537 596 514 q 541 578 559 559 l 660 707 q 727 638 696 677 q 781 554 758 600 q 816 458 804 509 q 829 353 829 407 q 824 293 829 321 q 849 235 832 262 q 890 188 866 208 q 947 156 915 168 q 1020 144 980 144 q 1105 162 1069 144 q 1163 207 1140 179 q 1196 271 1185 235 q 1207 343 1207 307 z "},"ရ":{"ha":916,"x_min":75,"x_max":970,"o":"m 821 -492 l 970 -492 l 970 -652 l 642 -652 l 642 342 q 630 419 642 382 q 594 486 618 457 q 533 532 570 515 q 447 550 496 550 q 384 542 412 550 q 335 519 356 534 q 298 485 313 505 q 274 441 283 465 q 368 422 321 439 q 457 372 414 405 q 513 317 489 348 q 554 250 538 286 q 579 177 570 215 q 587 100 587 138 q 586 56 587 79 q 578 14 584 33 q 541 -1 562 5 q 497 -12 522 -7 q 441 -16 472 -16 q 294 11 361 -16 q 178 89 227 39 q 102 208 130 138 q 75 360 75 277 q 102 504 75 439 q 179 614 130 568 q 297 686 229 661 q 447 711 366 711 q 603 684 534 711 q 721 608 672 656 q 795 491 769 559 q 821 342 821 423 l 821 -492 m 445 144 q 418 215 437 180 q 371 272 399 250 q 318 300 345 292 q 264 310 291 308 q 287 240 271 271 q 327 188 303 210 q 379 156 350 167 q 445 144 409 144 z "},"လ":{"ha":1469,"x_min":75,"x_max":1394,"o":"m 260 359 q 274 270 260 310 q 313 202 288 231 q 371 159 338 174 q 441 144 404 144 q 473 147 457 144 q 500 153 488 150 q 528 163 515 157 l 578 14 q 541 -1 562 5 q 497 -12 522 -7 q 441 -16 472 -16 q 294 11 361 -16 q 178 89 227 39 q 102 208 130 138 q 75 360 75 277 q 102 504 75 439 q 179 614 130 568 q 297 686 229 661 q 447 711 366 711 q 593 688 530 711 q 702 620 656 665 q 778 510 747 576 q 826 360 808 445 q 848 281 834 320 q 885 212 862 243 q 941 163 907 182 q 1022 144 975 144 q 1107 162 1072 144 q 1165 207 1142 179 q 1198 271 1187 235 q 1209 343 1209 307 q 1195 434 1209 395 q 1156 498 1181 473 q 1098 537 1131 524 q 1027 550 1065 550 q 996 547 1011 550 q 968 541 981 544 q 941 532 954 536 l 890 680 q 928 695 907 688 q 971 706 946 701 q 1028 711 997 711 q 1175 686 1107 711 q 1291 615 1242 662 q 1367 499 1339 568 q 1394 342 1394 431 q 1367 197 1394 263 q 1290 84 1339 132 q 1172 10 1240 37 q 1022 -16 1103 -16 q 880 6 941 -16 q 775 71 819 28 q 701 177 730 114 q 652 323 671 240 q 627 409 642 368 q 588 481 612 450 q 531 531 565 513 q 447 550 496 550 q 362 534 397 550 q 304 492 327 518 q 271 431 281 465 q 260 359 260 396 z "},"ဝ":{"ha":881,"x_min":75,"x_max":806,"o":"m 441 144 q 511 159 478 144 q 568 201 544 174 q 607 266 593 229 q 621 348 621 303 q 611 418 621 382 q 580 483 602 454 q 524 531 559 513 q 441 550 490 550 q 357 531 391 550 q 301 483 323 513 q 270 418 279 454 q 260 348 260 382 q 274 266 260 303 q 313 201 288 229 q 371 159 338 174 q 441 144 404 144 m 806 348 q 779 197 806 264 q 703 83 751 130 q 587 9 654 35 q 441 -16 519 -16 q 294 9 361 -16 q 178 83 227 35 q 102 197 130 130 q 75 348 75 264 q 101 494 75 427 q 176 608 127 560 q 292 684 224 656 q 441 711 359 711 q 589 684 522 711 q 705 608 656 656 q 780 494 753 560 q 806 348 806 427 z "},"သ":{"ha":1378,"x_min":61,"x_max":1303,"o":"m 1118 343 q 1104 434 1118 395 q 1065 498 1090 473 q 1007 537 1040 524 q 937 550 974 550 q 905 547 920 550 q 878 541 890 544 q 850 532 863 536 l 800 680 q 838 695 816 688 q 881 706 855 701 q 937 711 906 711 q 1084 686 1017 711 q 1200 615 1151 662 q 1276 499 1249 568 q 1303 342 1303 431 q 1276 197 1303 263 q 1199 84 1249 132 q 1081 10 1149 37 q 931 -16 1013 -16 q 774 14 844 -16 q 656 97 705 44 q 537 14 608 43 q 380 -16 467 -16 q 273 -2 322 -16 q 183 39 223 13 q 113 101 143 65 q 61 182 82 138 l 210 258 q 238 213 222 234 q 274 177 254 193 q 321 153 295 162 q 380 144 348 144 q 464 163 430 144 q 520 211 498 182 q 552 276 542 241 q 562 347 562 312 q 547 429 562 391 q 508 493 533 466 q 451 535 484 520 q 380 550 418 550 q 322 542 348 550 q 275 518 296 533 q 238 482 254 503 q 210 437 222 461 l 61 513 q 113 594 82 557 q 183 656 143 630 q 273 696 223 682 q 380 711 322 711 q 527 685 460 711 q 643 611 594 659 q 719 496 692 564 q 747 346 747 429 q 741 276 747 309 q 768 224 751 248 q 809 182 785 200 q 863 155 833 165 q 931 144 894 144 q 1016 162 981 144 q 1074 207 1051 179 q 1107 271 1097 235 q 1118 343 1118 307 z "},"ဟ":{"ha":1467,"x_min":75,"x_max":1392,"o":"m 1207 359 q 1196 431 1207 396 q 1163 492 1185 465 q 1105 534 1140 518 q 1020 550 1069 550 q 949 539 981 550 q 892 508 917 528 q 851 462 867 488 q 825 405 834 435 q 828 379 827 392 q 829 353 829 367 q 801 207 829 274 q 723 90 773 139 q 604 12 673 40 q 452 -16 535 -16 q 301 12 370 -16 q 181 90 232 40 q 103 207 131 139 q 75 353 75 274 q 87 458 75 407 q 122 554 100 509 q 176 638 145 600 q 243 707 207 677 l 362 578 q 326 537 344 559 q 293 486 307 514 q 269 426 278 458 q 260 354 260 393 q 271 279 260 317 q 307 212 283 242 q 366 163 330 182 q 452 144 402 144 q 537 163 501 144 q 597 212 573 182 q 632 279 621 242 q 644 354 644 317 q 634 426 644 393 q 611 486 625 458 q 578 537 596 514 q 541 578 559 559 l 660 707 q 751 604 713 663 q 868 682 800 654 q 1020 711 935 711 q 1170 686 1101 711 q 1288 614 1238 661 q 1365 504 1337 568 q 1392 360 1392 439 q 1365 208 1392 277 q 1289 89 1337 138 q 1173 11 1240 39 q 1026 -16 1105 -16 q 969 -12 995 -16 q 926 -1 944 -7 q 888 14 905 5 l 939 163 q 966 153 952 157 q 994 147 979 150 q 1025 144 1009 144 q 1096 159 1063 144 q 1154 202 1129 174 q 1193 270 1179 231 q 1207 359 1207 310 z "},"ဠ":{"ha":821,"x_min":75,"x_max":760,"o":"m 760 181 l 760 -144 q 618 -208 699 -182 q 438 -234 538 -234 q 365 -229 399 -234 q 296 -216 330 -224 l 296 -356 q 327 -463 296 -427 q 428 -498 357 -498 l 450 -498 q 551 -463 520 -498 q 581 -356 581 -427 l 581 -344 l 760 -344 l 760 -356 q 754 -428 760 -391 q 735 -497 749 -464 q 698 -561 721 -531 q 641 -612 675 -590 q 559 -647 606 -634 q 450 -659 511 -659 l 428 -659 q 318 -647 366 -659 q 237 -612 271 -634 q 180 -561 203 -590 q 143 -497 157 -531 q 123 -428 129 -464 q 117 -356 117 -391 l 117 10 q 263 -61 183 -35 q 438 -87 342 -87 q 512 -80 477 -87 q 581 -62 548 -73 l 581 9 q 441 -16 517 -16 q 294 9 361 -16 q 178 83 227 35 q 102 198 130 131 q 75 349 75 265 q 101 494 75 428 q 176 609 127 561 q 292 684 224 657 q 441 711 359 711 q 549 696 499 711 q 638 655 598 682 q 709 593 678 629 q 760 513 739 557 l 611 437 q 584 481 600 460 q 547 517 568 502 q 500 541 526 532 q 441 550 473 550 q 357 531 391 550 q 301 483 323 513 q 270 418 279 454 q 260 348 260 382 q 274 266 260 303 q 313 201 288 229 q 371 159 338 174 q 441 144 404 144 q 499 153 473 144 q 547 177 526 161 q 584 213 568 192 q 611 257 600 233 l 760 181 z "},"ဿ":{"ha":1938,"x_min":61,"x_max":1863,"o":"m 1118 343 q 1104 434 1118 395 q 1065 498 1090 473 q 1007 537 1040 524 q 937 550 974 550 q 905 547 920 550 q 878 541 890 544 q 850 532 863 536 l 800 680 q 838 695 816 688 q 881 706 855 701 q 937 711 906 711 q 1084 686 1017 711 q 1200 615 1151 662 q 1276 499 1249 568 q 1303 342 1303 431 q 1302 311 1303 326 q 1299 280 1301 296 q 1325 227 1308 252 q 1366 184 1342 202 q 1421 155 1390 165 q 1491 144 1453 144 q 1575 162 1540 144 q 1633 207 1611 179 q 1667 271 1656 235 q 1678 343 1678 307 q 1664 434 1678 395 q 1625 498 1649 473 q 1567 537 1600 524 q 1496 550 1533 550 q 1465 547 1480 550 q 1437 541 1449 544 q 1410 532 1423 536 l 1359 680 q 1397 695 1375 688 q 1440 706 1415 701 q 1497 711 1466 711 q 1643 686 1576 711 q 1759 615 1710 662 q 1835 499 1808 568 q 1863 342 1863 431 q 1835 197 1863 263 q 1758 84 1808 132 q 1640 10 1709 37 q 1491 -16 1572 -16 q 1332 15 1402 -16 q 1214 99 1263 45 q 1092 14 1164 44 q 931 -16 1020 -16 q 774 14 844 -16 q 656 97 705 44 q 537 14 608 43 q 380 -16 467 -16 q 273 -2 322 -16 q 183 39 223 13 q 113 101 143 65 q 61 182 82 138 l 210 258 q 238 213 222 234 q 274 177 254 193 q 321 153 295 162 q 380 144 348 144 q 464 163 430 144 q 520 211 498 182 q 552 276 542 241 q 562 347 562 312 q 547 429 562 391 q 508 493 533 466 q 451 535 484 520 q 380 550 418 550 q 322 542 348 550 q 275 518 296 533 q 238 482 254 503 q 210 437 222 461 l 61 513 q 113 594 82 557 q 183 656 143 630 q 273 696 223 682 q 380 711 322 711 q 527 685 460 711 q 643 611 594 659 q 719 496 692 564 q 747 346 747 429 q 741 276 747 309 q 768 224 751 248 q 809 182 785 200 q 863 155 833 165 q 931 144 894 144 q 1016 162 981 144 q 1074 207 1051 179 q 1107 271 1097 235 q 1118 343 1118 307 z "},"ၐ":{"ha":903,"x_min":75,"x_max":829,"o":"m 452 550 q 366 531 402 550 q 307 483 330 513 q 271 415 283 452 q 260 340 260 378 q 269 269 260 302 q 293 208 278 236 q 326 158 307 180 q 362 117 344 135 l 243 -12 q 176 56 207 18 q 122 140 145 95 q 87 237 100 186 q 75 341 75 288 q 102 488 75 420 q 180 605 130 555 q 299 683 230 654 q 452 711 368 711 q 602 683 533 711 q 722 605 671 654 q 801 488 772 555 q 829 341 829 420 q 816 237 829 288 q 781 140 804 186 q 727 56 758 95 q 660 -12 696 18 l 541 117 q 578 158 559 135 q 611 208 596 180 q 634 269 625 236 q 644 340 644 302 q 632 415 644 378 q 597 483 621 452 q 537 531 573 513 q 452 550 501 550 m 323 347 q 333 398 323 374 q 359 439 342 422 q 400 468 376 457 q 452 478 424 478 q 503 468 479 478 q 544 439 527 457 q 570 398 561 422 q 580 347 580 374 q 570 296 580 320 q 544 254 561 272 q 503 226 527 237 q 452 216 479 216 q 400 226 424 216 q 359 254 376 237 q 333 296 342 272 q 323 347 323 320 m 386 347 q 391 319 386 332 q 404 296 395 306 q 425 281 412 287 q 452 276 437 276 q 499 296 481 276 q 517 347 517 317 q 499 398 517 377 q 452 418 481 418 q 425 413 437 418 q 404 397 412 407 q 391 375 395 388 q 386 347 386 361 z "},"ၑ":{"ha":903,"x_min":75,"x_max":829,"o":"m 452 144 q 537 163 501 144 q 597 212 573 182 q 632 279 621 242 q 644 354 644 317 q 634 426 644 393 q 611 486 625 458 q 578 537 596 514 q 541 578 559 559 l 660 707 q 727 638 696 677 q 781 554 758 600 q 816 458 804 509 q 829 353 829 407 q 801 207 829 274 q 723 90 773 139 q 604 12 673 40 q 452 -16 535 -16 q 301 12 370 -16 q 181 90 232 40 q 103 207 131 139 q 75 353 75 274 q 87 458 75 407 q 122 554 100 509 q 176 638 145 600 q 243 707 207 677 l 362 578 q 326 537 344 559 q 293 486 307 514 q 269 426 278 458 q 260 354 260 393 q 271 279 260 317 q 307 212 283 242 q 366 163 330 182 q 452 144 402 144 m 580 347 q 570 297 580 321 q 544 255 561 273 q 503 227 527 237 q 452 216 479 216 q 400 227 424 216 q 359 255 376 237 q 333 297 342 273 q 323 347 323 321 q 333 398 323 374 q 359 440 342 422 q 400 468 376 458 q 452 479 424 479 q 503 468 479 479 q 544 440 527 458 q 570 398 561 422 q 580 347 580 374 m 517 347 q 513 375 517 362 q 499 398 508 389 q 479 413 491 408 q 452 418 467 418 q 405 398 422 418 q 387 347 387 378 q 405 297 387 317 q 452 276 422 276 q 479 282 467 276 q 499 297 491 288 q 513 320 508 307 q 517 347 517 333 z "},"ၒ":{"ha":903,"x_min":75,"x_max":836,"o":"m 637 262 q 627 309 637 289 q 601 346 616 329 q 568 380 585 363 q 534 418 550 397 q 509 467 519 439 q 498 533 498 494 q 511 604 498 572 q 546 661 524 637 q 600 697 568 684 q 669 711 631 711 q 714 708 691 711 q 760 698 738 705 q 802 680 782 691 q 836 653 821 669 l 769 537 q 751 552 760 545 q 731 563 742 557 q 707 568 720 568 q 674 556 685 568 q 663 528 663 545 q 675 492 663 507 q 705 461 687 476 q 743 429 722 446 q 781 389 763 412 q 810 335 798 366 q 822 258 822 303 q 798 148 822 198 q 729 61 774 97 q 620 4 684 24 q 475 -16 556 -16 q 311 12 385 -16 q 184 90 237 40 q 103 207 132 139 q 75 353 75 274 q 87 458 75 407 q 122 554 100 509 q 176 638 145 600 q 243 707 207 677 l 362 578 q 326 537 344 559 q 293 486 307 514 q 269 426 278 458 q 260 354 260 393 q 274 279 260 317 q 315 212 288 242 q 382 163 342 182 q 475 144 422 144 q 547 155 517 144 q 598 181 578 165 q 627 219 618 198 q 637 262 637 241 z "},"ၓ":{"ha":856,"x_min":61,"x_max":795,"o":"m 428 144 q 500 155 469 144 q 550 181 530 165 q 580 219 570 198 q 589 262 589 241 q 580 309 589 289 q 557 346 571 329 q 527 380 543 363 q 497 418 511 397 q 474 467 483 439 q 465 533 465 494 q 477 604 465 572 q 512 661 490 637 q 566 697 534 684 q 635 711 597 711 q 680 708 657 711 q 723 698 702 705 q 762 680 743 691 q 795 653 781 669 l 728 537 q 713 552 722 545 q 696 563 706 557 q 673 568 686 568 q 642 556 655 568 q 629 528 629 545 q 640 492 629 507 q 667 461 651 476 q 702 429 683 446 q 737 389 721 412 q 764 335 753 366 q 774 258 774 303 q 750 148 774 198 q 682 61 726 97 q 573 4 637 24 q 428 -16 509 -16 q 283 4 347 -16 q 174 61 219 24 q 105 148 130 97 q 81 258 81 198 q 92 335 81 303 q 119 389 103 366 q 154 429 135 412 q 189 461 173 446 q 216 492 205 476 q 227 528 227 507 q 214 556 227 545 q 183 568 201 568 q 159 563 170 568 q 142 552 149 557 q 127 537 134 545 l 61 653 q 94 680 75 669 q 133 698 113 691 q 176 708 154 705 q 220 711 199 711 q 290 697 258 711 q 344 661 321 684 q 379 604 366 637 q 391 533 391 572 q 382 467 391 494 q 359 418 373 439 q 329 380 345 397 q 299 346 313 363 q 276 309 285 329 q 267 262 267 289 q 276 219 267 241 q 306 181 286 198 q 356 155 326 165 q 428 144 386 144 z "},"ၔ":{"ha":842,"x_min":75,"x_max":777,"o":"m 75 346 q 102 496 75 429 q 178 611 130 564 q 294 685 227 659 q 441 711 361 711 q 571 688 512 711 q 674 625 631 665 q 744 534 718 586 q 777 425 771 482 q 727 381 755 401 q 663 347 698 361 q 587 324 627 332 q 500 316 546 316 q 371 341 429 316 q 268 409 313 367 q 260 347 260 379 q 270 276 260 312 q 301 211 279 241 q 357 163 323 182 q 441 144 391 144 q 500 153 473 144 q 547 177 526 162 q 584 213 568 193 q 611 258 600 234 l 760 182 q 709 101 739 138 q 638 39 678 65 q 549 -2 598 13 q 441 -16 499 -16 q 292 11 359 -16 q 176 85 224 37 q 101 200 127 134 q 75 346 75 267 m 441 550 q 382 540 410 550 q 332 511 355 530 q 403 454 360 477 q 501 431 446 431 q 555 437 530 431 q 602 455 581 444 q 539 523 578 496 q 441 550 500 550 z "},"ၕ":{"ha":870,"x_min":75,"x_max":806,"o":"m 454 550 q 398 540 424 550 q 349 511 372 530 q 417 454 378 477 q 512 431 457 431 q 567 437 541 431 q 616 455 594 444 q 553 523 592 496 q 454 550 513 550 m 570 220 q 574 185 571 201 q 584 157 578 169 q 600 138 591 145 q 623 131 610 131 q 658 153 644 131 q 675 216 671 174 l 806 203 q 793 130 802 168 q 764 59 783 91 q 713 5 744 26 q 636 -16 682 -16 q 592 -10 612 -16 q 558 7 573 -3 q 531 32 543 18 q 512 62 520 46 l 509 62 q 485 32 500 46 q 451 7 470 18 q 408 -10 431 -3 q 360 -16 385 -16 q 233 12 287 -16 q 144 87 180 40 q 92 196 109 134 q 75 323 75 257 q 104 477 75 406 q 185 600 134 548 q 306 681 237 652 q 454 711 375 711 q 585 688 526 711 q 688 625 644 665 q 758 534 731 586 q 791 425 785 482 q 739 381 769 401 q 672 347 709 361 q 592 324 635 332 q 505 316 550 316 q 437 324 469 316 q 378 345 406 332 q 326 376 350 358 q 279 415 301 394 q 273 399 277 410 q 266 375 269 389 q 261 344 263 361 q 258 311 258 328 q 269 222 258 257 q 295 168 279 188 q 332 139 312 147 q 373 131 353 131 q 409 138 393 131 q 436 157 425 144 q 454 185 448 169 q 461 220 460 201 l 570 220 z "},"ၚ":{"ha":821,"x_min":75,"x_max":760,"o":"m 441 -16 q 294 9 361 -16 q 178 83 227 35 q 102 198 130 131 q 75 349 75 265 q 101 494 75 428 q 176 609 127 561 q 292 684 224 657 q 441 711 359 711 q 549 696 499 711 q 638 655 598 682 q 709 593 678 629 q 760 513 739 557 l 611 437 q 584 481 600 460 q 547 517 568 502 q 500 541 526 532 q 441 550 473 550 q 357 531 391 550 q 301 483 323 513 q 270 418 279 454 q 260 348 260 382 q 274 266 260 303 q 313 201 288 229 q 371 159 338 174 q 441 144 404 144 q 499 153 473 144 q 547 177 526 161 q 584 213 568 192 q 611 257 600 233 l 760 181 q 709 101 739 137 q 638 38 678 64 q 549 -2 598 12 q 441 -16 499 -16 m 553 -647 q 473 -669 513 -669 q 377 -652 416 -669 q 314 -611 338 -636 q 281 -557 291 -587 q 271 -500 271 -527 q 288 -420 271 -453 q 330 -362 304 -387 q 385 -320 355 -338 q 440 -288 414 -303 q 482 -259 465 -273 q 499 -227 499 -245 q 482 -188 499 -203 q 440 -173 465 -173 q 396 -192 412 -173 q 380 -237 380 -212 l 224 -237 q 236 -171 224 -206 q 275 -107 248 -136 q 342 -58 301 -77 q 441 -38 383 -38 q 546 -57 505 -38 q 613 -104 588 -76 q 647 -166 637 -133 q 657 -226 657 -199 q 640 -300 657 -269 q 598 -355 623 -332 q 543 -395 573 -378 q 488 -427 513 -412 q 446 -457 463 -442 q 429 -492 429 -473 q 444 -524 429 -514 q 478 -534 458 -534 q 503 -531 490 -534 q 526 -522 516 -527 l 553 -647 z "},"ၛ":{"ha":1208,"x_min":75,"x_max":1114,"o":"m 441 711 q 569 688 513 711 q 663 630 625 666 q 721 549 701 594 q 741 457 741 503 q 734 409 741 429 q 775 362 756 387 q 808 315 794 337 q 837 265 824 290 l 720 193 q 703 225 713 208 q 682 257 694 239 q 656 292 670 275 q 636 279 650 286 q 604 264 623 271 q 562 252 585 257 q 512 248 538 248 q 449 257 481 248 q 392 283 418 266 q 351 326 367 300 q 335 384 335 351 q 347 439 335 414 q 379 483 358 465 q 428 512 399 501 q 490 522 456 522 q 531 519 513 522 q 562 513 549 516 q 589 503 577 509 q 560 538 578 523 q 520 563 545 552 q 461 574 496 574 q 369 553 407 574 q 307 500 331 532 q 271 431 282 469 q 260 358 260 393 q 275 274 260 313 q 316 207 290 235 q 380 161 343 178 q 461 144 417 144 q 516 149 492 144 q 555 159 539 153 q 588 173 574 165 l 688 45 q 671 33 681 39 q 648 20 662 27 q 617 7 635 14 l 617 -352 q 629 -416 617 -387 q 661 -465 640 -445 q 711 -497 682 -486 q 776 -508 741 -508 q 840 -497 811 -508 q 890 -465 869 -486 q 923 -416 911 -445 q 935 -352 935 -387 l 935 696 l 1114 696 l 1114 -352 q 1106 -425 1114 -387 q 1081 -497 1098 -462 q 1038 -564 1064 -532 q 974 -618 1011 -595 q 887 -655 936 -642 q 776 -669 838 -669 q 665 -655 713 -669 q 578 -618 616 -642 q 514 -564 541 -595 q 471 -497 488 -532 q 446 -425 454 -462 q 438 -352 438 -387 l 438 -16 q 292 15 359 -12 q 177 90 225 42 q 102 202 129 137 q 75 349 75 268 q 101 494 75 428 q 176 609 128 561 q 292 684 224 657 q 441 711 360 711 m 578 380 q 558 398 569 391 q 536 410 549 405 q 508 416 524 416 q 467 406 481 416 q 454 382 454 397 q 458 367 454 374 q 471 357 463 361 q 488 351 478 353 q 507 349 497 349 q 537 354 524 349 q 559 365 550 359 q 578 380 570 372 z "},"ၜ":{"ha":881,"x_min":75,"x_max":806,"o":"m 441 144 q 510 159 477 144 q 568 201 543 174 q 607 266 593 229 q 621 348 621 303 q 611 418 621 382 q 580 483 602 454 q 524 531 559 513 q 441 550 490 550 q 357 531 391 550 q 301 483 323 513 q 270 418 279 454 q 260 348 260 382 q 274 266 260 303 q 313 201 288 229 q 371 159 338 174 q 441 144 404 144 m 441 711 q 589 684 522 711 q 705 608 656 656 q 780 494 753 560 q 806 348 806 427 q 779 197 806 264 q 703 83 751 130 q 587 9 654 35 q 441 -16 519 -16 q 294 9 361 -16 q 178 83 227 35 q 102 197 130 130 q 75 348 75 264 q 101 494 75 427 q 176 608 127 560 q 292 684 224 656 q 441 711 359 711 m 312 347 q 321 398 312 374 q 348 439 331 422 q 389 468 365 457 q 440 478 412 478 q 491 468 467 478 q 532 439 515 457 q 558 398 549 422 q 568 347 568 374 q 558 297 568 321 q 532 255 549 273 q 491 227 515 237 q 440 216 467 216 q 389 227 412 216 q 348 255 365 237 q 321 297 331 273 q 312 347 312 321 m 374 347 q 379 320 374 333 q 392 297 384 307 q 413 282 401 288 q 440 277 425 277 q 487 297 469 277 q 505 347 505 317 q 487 398 505 377 q 440 418 469 418 q 413 413 425 418 q 392 397 401 407 q 379 375 384 388 q 374 347 374 361 z "},"ၝ":{"ha":903,"x_min":75,"x_max":829,"o":"m 344 -372 q 281 -390 302 -372 q 260 -433 260 -407 q 265 -463 260 -452 q 282 -481 270 -473 q 314 -494 294 -490 q 364 -498 334 -498 l 422 -498 q 487 -487 458 -498 q 537 -456 516 -476 q 570 -407 558 -435 q 581 -342 581 -378 l 581 3 q 518 -11 551 -6 q 452 -16 486 -16 q 301 12 370 -16 q 181 90 232 40 q 103 207 131 139 q 75 353 75 274 q 87 458 75 407 q 122 554 100 509 q 176 638 145 600 q 243 707 207 677 l 362 578 q 326 537 344 559 q 293 486 307 514 q 269 426 278 458 q 260 354 260 393 q 262 317 260 336 q 345 373 298 352 q 452 394 391 394 q 558 374 512 394 q 642 321 605 355 q 644 354 644 338 q 634 426 644 393 q 611 486 625 458 q 578 537 596 514 q 541 578 559 559 l 660 707 q 727 638 696 677 q 781 554 758 600 q 816 458 804 509 q 829 353 829 407 q 811 234 829 290 q 760 132 793 178 l 760 -342 q 752 -415 760 -378 q 728 -488 745 -452 q 684 -554 711 -523 q 620 -609 658 -585 q 533 -646 583 -632 q 422 -659 484 -659 l 362 -659 q 241 -643 294 -659 q 150 -597 187 -627 q 94 -525 113 -567 q 75 -432 75 -484 q 95 -342 75 -381 q 150 -278 115 -304 q 229 -239 184 -252 q 321 -226 273 -226 q 381 -233 353 -226 q 431 -248 410 -240 q 479 -270 457 -258 l 430 -404 q 403 -389 417 -396 q 375 -377 391 -382 q 344 -372 359 -372 m 452 144 q 528 159 495 144 q 584 197 560 174 q 526 239 559 223 q 452 254 493 254 q 383 240 418 254 q 319 197 348 225 q 376 159 343 173 q 452 144 408 144 z "},"ၡ":{"ha":916,"x_min":75,"x_max":821,"o":"m 578 14 l 578 -652 l 250 -652 l 250 -492 l 399 -492 l 399 -14 q 269 23 328 -7 q 166 103 209 54 q 99 217 123 152 q 75 360 75 283 q 102 504 75 439 q 179 614 130 568 q 297 686 229 661 q 447 711 366 711 q 603 684 533 711 q 721 608 672 656 q 795 491 769 559 q 821 342 821 423 l 821 -652 l 642 -652 l 642 342 q 630 419 642 382 q 594 486 618 457 q 533 532 570 515 q 447 550 496 550 q 341 523 382 550 q 280 455 300 496 q 415 417 359 451 q 508 326 472 384 q 562 189 545 268 q 578 14 578 109 m 397 150 q 357 260 389 218 q 264 309 325 302 q 311 204 275 245 q 397 150 346 163 z "},"ၥ":{"ha":821,"x_min":61,"x_max":747,"o":"m 380 -16 q 273 -2 322 -16 q 183 38 223 12 q 113 101 143 64 q 61 181 82 137 l 210 257 q 238 213 222 233 q 275 177 254 192 q 322 153 296 161 q 380 144 348 144 q 451 159 418 144 q 508 201 484 174 q 547 266 533 229 q 562 348 562 303 q 552 418 562 382 q 520 483 542 454 q 464 531 498 513 q 380 550 430 550 q 321 541 348 550 q 274 517 295 532 q 238 481 254 502 q 210 437 222 460 l 61 513 q 113 593 82 557 q 183 655 143 629 q 273 696 223 682 q 380 711 322 711 q 529 684 462 711 q 645 609 597 657 q 720 494 694 561 q 747 349 747 428 q 719 198 747 265 q 643 83 692 131 q 527 9 594 35 q 380 -16 460 -16 z "},"ၦ":{"ha":903,"x_min":59,"x_max":813,"o":"m 436 144 q 522 163 486 144 q 581 212 557 182 q 616 279 605 242 q 628 354 628 317 q 619 426 628 393 q 595 486 610 458 q 562 537 581 514 q 526 578 544 559 l 644 707 q 712 638 681 677 q 765 554 743 600 q 801 458 788 509 q 813 353 813 407 q 785 207 813 274 q 708 90 758 139 q 589 12 658 40 q 436 -16 519 -16 q 286 12 355 -16 q 166 90 216 40 q 87 207 115 139 q 59 353 59 274 q 72 458 59 407 q 107 554 84 509 q 160 638 130 600 q 228 707 191 677 l 347 578 q 310 537 328 559 q 277 486 292 514 q 253 426 262 458 q 244 354 244 393 q 256 279 244 317 q 291 212 267 242 q 351 163 315 182 q 436 144 387 144 m 526 11 l 526 -652 l 205 -652 l 205 -492 l 354 -492 l 354 11 l 526 11 z "},"ၮ":{"ha":1806,"x_min":75,"x_max":1738,"o":"m 1553 359 q 1542 431 1553 396 q 1509 492 1531 465 q 1451 534 1486 518 q 1366 550 1415 550 q 1293 538 1326 550 q 1236 506 1261 526 q 1195 458 1212 486 q 1170 401 1178 431 q 1175 341 1175 373 q 1162 237 1175 288 q 1127 140 1149 186 q 1073 56 1104 95 q 1006 -12 1042 18 l 887 117 q 924 158 905 135 q 957 208 942 180 q 980 269 971 236 q 989 340 989 302 q 978 415 989 378 q 943 483 966 452 q 883 531 919 513 q 798 550 847 550 q 768 548 783 550 q 813 452 798 504 q 829 341 829 400 q 816 237 829 288 q 781 140 804 186 q 727 56 758 95 q 660 -12 696 18 l 541 117 q 578 158 559 135 q 611 208 596 180 q 634 269 625 236 q 644 340 644 302 q 632 415 644 378 q 597 483 621 452 q 537 531 573 513 q 452 550 501 550 q 366 531 402 550 q 307 483 330 513 q 271 415 283 452 q 260 340 260 378 q 269 269 260 302 q 293 208 278 236 q 326 158 307 180 q 362 117 344 135 l 243 -12 q 176 56 207 18 q 122 140 145 95 q 87 237 100 186 q 75 341 75 288 q 102 488 75 420 q 180 605 130 555 q 299 683 230 654 q 452 711 368 711 q 541 701 498 711 q 622 674 583 692 q 705 702 661 692 q 798 711 749 711 q 959 678 886 711 q 1083 588 1032 646 q 1203 678 1132 645 q 1366 711 1275 711 q 1516 686 1447 711 q 1634 614 1584 661 q 1711 504 1683 568 q 1738 360 1738 439 q 1711 208 1738 277 q 1634 89 1683 138 q 1518 11 1586 39 q 1372 -16 1451 -16 q 1315 -12 1341 -16 q 1272 -1 1290 -7 q 1234 14 1251 5 l 1285 163 q 1312 153 1298 157 q 1340 147 1324 150 q 1371 144 1355 144 q 1442 159 1409 144 q 1500 202 1475 174 q 1539 270 1525 231 q 1553 359 1553 310 z "},"ၯ":{"ha":1467,"x_min":75,"x_max":1392,"o":"m 1207 359 q 1196 431 1207 396 q 1163 492 1185 465 q 1105 534 1140 518 q 1020 550 1069 550 q 949 539 981 550 q 892 508 917 528 q 851 462 867 488 q 825 405 834 435 q 828 379 827 392 q 829 353 829 367 q 801 207 829 274 q 723 90 773 139 q 604 12 673 40 q 452 -16 535 -16 q 301 12 370 -16 q 181 90 232 40 q 103 207 131 139 q 75 353 75 274 q 87 458 75 407 q 122 554 100 509 q 176 638 145 600 q 243 707 207 677 l 362 578 q 326 537 344 559 q 293 486 307 514 q 269 426 278 458 q 260 354 260 393 q 271 279 260 317 q 307 212 283 242 q 366 163 330 182 q 452 144 402 144 q 537 163 501 144 q 597 212 573 182 q 632 279 621 242 q 644 354 644 317 q 634 426 644 393 q 611 486 625 458 q 578 537 596 514 q 541 578 559 559 l 660 707 q 751 604 713 663 q 868 682 800 654 q 1020 711 935 711 q 1170 686 1101 711 q 1288 614 1238 661 q 1365 504 1337 568 q 1392 360 1392 439 q 1365 208 1392 277 q 1289 89 1337 138 q 1173 11 1240 39 q 1026 -16 1105 -16 q 969 -12 995 -16 q 926 -1 944 -7 q 888 14 905 5 l 939 163 q 966 153 952 157 q 994 147 979 150 q 1025 144 1009 144 q 1096 159 1063 144 q 1154 202 1129 174 q 1193 270 1179 231 q 1207 359 1207 310 m 1154 11 l 1154 -652 l 832 -652 l 832 -492 l 981 -492 l 981 11 l 1154 11 z "},"ၰ":{"ha":1466,"x_min":68,"x_max":1392,"o":"m 1206 343 q 1192 434 1206 395 q 1153 498 1178 473 q 1095 537 1128 524 q 1025 550 1062 550 q 993 547 1008 550 q 966 541 978 544 q 939 532 951 536 l 888 680 q 926 695 904 688 q 969 706 943 701 q 1025 711 994 711 q 1172 686 1105 711 q 1288 615 1239 662 q 1364 499 1337 568 q 1392 342 1392 431 q 1364 197 1392 263 q 1287 84 1337 132 q 1169 10 1238 37 q 1019 -16 1101 -16 q 857 16 928 -16 q 736 106 785 49 q 605 16 683 49 q 428 -16 527 -16 q 283 4 347 -16 q 174 61 219 24 q 105 148 130 97 q 81 258 81 198 q 93 335 81 303 q 123 389 105 366 q 161 429 140 412 q 199 461 181 446 q 228 492 216 476 q 240 528 240 507 q 229 556 240 545 q 197 568 218 568 q 172 563 183 568 q 152 552 160 557 q 134 537 142 545 l 68 653 q 102 680 82 669 q 143 698 121 691 q 189 708 165 705 q 234 711 212 711 q 303 697 272 711 q 357 661 335 684 q 392 604 380 637 q 405 533 405 572 q 395 467 405 494 q 369 418 385 439 q 336 380 353 397 q 302 346 318 363 q 277 309 287 329 q 267 262 267 289 q 276 219 267 241 q 306 181 286 198 q 356 155 326 165 q 428 144 386 144 q 521 163 481 144 q 589 212 562 182 q 630 279 616 242 q 644 354 644 317 q 634 426 644 393 q 611 486 625 458 q 578 537 596 514 q 541 578 559 559 l 660 707 q 727 638 696 677 q 781 554 758 600 q 816 458 804 509 q 829 353 829 407 q 827 322 829 338 q 824 292 826 307 q 849 234 832 261 q 890 188 866 208 q 947 156 915 168 q 1019 144 979 144 q 1104 162 1069 144 q 1162 207 1139 179 q 1196 271 1185 235 q 1206 343 1206 307 m 1120 11 l 1120 -652 l 798 -652 l 798 -492 l 947 -492 l 947 11 l 1120 11 z "},"ၵ":{"ha":903,"x_min":68,"x_max":829,"o":"m 267 432 q 277 385 267 405 q 302 348 287 366 q 336 314 318 331 q 369 276 353 297 q 395 228 385 255 q 405 161 405 200 q 392 90 405 123 q 357 34 380 58 q 303 -3 335 10 q 234 -16 272 -16 q 189 -13 212 -16 q 143 -3 165 -10 q 102 14 121 3 q 68 41 82 25 l 134 157 q 152 142 142 149 q 172 132 160 136 q 197 127 183 127 q 229 138 218 127 q 240 167 240 149 q 228 203 240 187 q 199 233 216 218 q 161 265 181 248 q 123 305 140 282 q 93 360 105 328 q 81 436 81 391 q 105 547 81 496 q 174 634 130 597 q 283 690 219 670 q 428 711 347 711 q 592 683 518 711 q 719 605 667 654 q 800 488 771 555 q 829 341 829 420 q 816 237 829 288 q 781 140 804 186 q 727 56 758 95 q 660 -12 696 18 l 541 117 q 578 158 559 135 q 611 208 596 180 q 634 269 625 236 q 644 340 644 302 q 630 415 644 378 q 589 483 616 452 q 521 531 562 513 q 428 550 481 550 q 356 540 386 550 q 306 513 326 530 q 276 475 286 496 q 267 432 267 454 z "},"ၶ":{"ha":842,"x_min":47,"x_max":767,"o":"m 401 144 q 459 155 431 144 q 510 184 487 165 q 438 240 481 217 q 340 264 395 264 q 287 257 312 264 q 239 239 261 251 q 302 171 263 198 q 401 144 342 144 m 582 348 q 571 426 582 389 q 542 491 561 463 q 497 534 524 518 q 439 550 471 550 q 400 540 416 550 q 370 516 384 530 q 341 484 355 501 q 307 453 326 467 q 263 428 288 438 q 201 418 237 418 q 144 429 172 418 q 95 458 116 439 q 60 508 73 478 q 47 575 47 537 q 56 632 47 607 q 76 675 65 657 q 105 711 88 695 l 202 646 q 193 633 197 640 q 186 619 189 627 q 184 604 184 612 q 191 581 184 591 q 217 570 198 570 q 244 580 231 570 q 270 606 256 591 q 300 640 283 622 q 337 674 316 659 q 387 700 359 690 q 452 711 414 711 q 578 684 520 711 q 677 610 635 658 q 743 496 720 562 q 767 349 767 429 q 740 198 767 265 q 663 83 712 131 q 547 9 614 35 q 401 -16 480 -16 q 270 7 330 -16 q 168 69 211 30 q 97 160 124 109 q 64 269 71 212 q 115 313 86 293 q 179 348 144 333 q 255 370 214 362 q 341 378 296 378 q 471 353 413 378 q 574 286 529 328 q 582 348 582 315 z "},"ၷ":{"ha":924,"x_min":68,"x_max":849,"o":"m 438 550 q 366 539 396 550 q 315 510 335 528 q 286 469 296 492 q 276 425 276 447 q 286 379 276 399 q 309 343 295 360 q 340 311 323 327 q 372 275 357 295 q 395 227 386 254 q 405 161 405 200 q 392 90 405 123 q 357 34 380 58 q 303 -3 335 10 q 234 -16 272 -16 q 189 -13 212 -16 q 143 -3 165 -10 q 102 14 121 3 q 68 41 82 25 l 134 157 q 152 142 142 149 q 172 132 160 136 q 197 127 183 127 q 229 138 218 127 q 240 167 240 149 q 229 203 240 187 q 202 235 218 219 q 168 267 186 250 q 133 307 149 284 q 106 358 117 329 q 95 429 95 388 q 118 541 95 490 q 186 630 142 593 q 294 689 230 668 q 438 711 357 711 q 546 698 494 711 q 643 661 597 685 q 727 603 689 637 q 792 528 764 569 q 834 438 819 486 q 849 337 849 390 q 831 219 849 274 q 785 118 814 163 q 720 39 756 73 q 646 -16 684 5 q 566 33 604 1 q 499 109 528 66 q 454 201 471 151 q 437 301 437 250 q 457 431 437 373 q 520 534 478 490 q 480 546 501 541 q 438 550 460 550 m 664 336 q 654 394 664 365 q 627 448 644 422 q 590 384 603 421 q 576 302 576 347 q 587 233 576 267 q 616 172 597 199 q 651 243 637 203 q 664 336 664 283 z "},"ၸ":{"ha":1444,"x_min":75,"x_max":1369,"o":"m 260 359 q 274 270 260 310 q 313 202 288 231 q 371 159 338 174 q 441 144 404 144 q 473 147 457 144 q 500 153 488 150 q 528 163 515 157 l 578 14 q 541 -1 562 5 q 497 -12 522 -7 q 441 -16 472 -16 q 294 11 361 -16 q 178 89 227 39 q 102 208 130 138 q 75 360 75 277 q 102 504 75 439 q 179 614 130 568 q 297 686 229 661 q 447 711 366 711 q 606 679 536 711 q 725 593 676 648 q 844 680 774 648 q 1003 711 915 711 q 1152 684 1084 711 q 1268 608 1219 656 q 1343 494 1316 560 q 1369 348 1369 427 q 1342 197 1369 264 q 1265 83 1314 130 q 1149 9 1217 35 q 1003 -16 1082 -16 q 857 9 924 -16 q 741 83 790 35 q 665 197 692 130 q 637 348 637 264 q 638 377 637 363 q 641 405 640 391 q 615 462 632 435 q 574 508 599 488 q 518 539 550 528 q 447 550 486 550 q 362 534 397 550 q 304 492 327 518 q 271 431 281 465 q 260 359 260 396 m 1003 144 q 1073 159 1040 144 q 1131 201 1106 174 q 1170 266 1156 229 q 1184 348 1184 303 q 1174 418 1184 382 q 1143 483 1164 454 q 1087 531 1121 513 q 1003 550 1053 550 q 920 531 954 550 q 864 483 885 513 q 832 418 842 454 q 823 348 823 382 q 837 266 823 303 q 876 201 851 229 q 933 159 900 174 q 1003 144 966 144 z "},"ၹ":{"ha":1444,"x_min":75,"x_max":1369,"o":"m 1369 348 q 1342 197 1369 264 q 1265 83 1314 130 q 1149 9 1217 35 q 1003 -16 1082 -16 q 857 9 924 -16 q 741 83 790 35 q 665 197 692 130 q 637 348 637 264 q 638 377 637 363 q 641 405 640 391 q 615 462 632 435 q 574 508 599 488 q 518 539 550 528 q 447 550 486 550 q 384 542 412 550 q 335 519 356 534 q 298 485 313 505 q 274 441 283 465 q 368 422 321 439 q 457 372 414 405 q 513 317 489 348 q 554 250 538 286 q 579 177 570 215 q 587 100 587 138 q 586 56 587 79 q 578 14 584 33 q 541 -1 562 5 q 497 -12 522 -7 q 441 -16 472 -16 q 294 11 361 -16 q 178 89 227 39 q 102 208 130 138 q 75 360 75 277 q 102 504 75 439 q 179 614 130 568 q 297 686 229 661 q 447 711 366 711 q 606 679 536 711 q 725 593 676 648 q 844 680 774 648 q 1003 711 915 711 q 1152 684 1084 711 q 1268 608 1219 656 q 1343 494 1316 560 q 1369 348 1369 427 m 1003 144 q 1073 159 1040 144 q 1131 201 1106 174 q 1170 266 1156 229 q 1184 348 1184 303 q 1174 418 1184 382 q 1143 483 1164 454 q 1087 531 1121 513 q 1003 550 1053 550 q 920 531 954 550 q 864 483 885 513 q 832 418 842 454 q 823 348 823 382 q 837 266 823 303 q 876 201 851 229 q 933 159 900 174 q 1003 144 966 144 m 445 144 q 418 215 437 180 q 371 272 399 250 q 318 300 345 292 q 264 310 291 308 q 287 240 271 271 q 327 188 303 210 q 379 156 350 167 q 445 144 409 144 z "},"ၺ":{"ha":1464,"x_min":75,"x_max":1390,"o":"m 821 349 l 821 341 q 835 266 822 302 q 872 203 848 231 q 933 160 897 176 q 1017 144 969 144 q 1102 160 1067 144 q 1160 203 1137 176 q 1194 264 1183 229 q 1204 335 1204 298 q 1190 424 1204 385 q 1151 492 1176 464 q 1093 535 1126 519 q 1023 550 1060 550 q 991 547 1006 550 q 964 541 976 544 q 937 532 949 536 l 886 680 q 924 695 902 688 q 967 706 941 701 q 1023 711 992 711 q 1170 683 1103 711 q 1286 606 1237 656 q 1362 487 1335 556 q 1390 334 1390 418 q 1362 191 1390 255 q 1285 80 1335 126 q 1167 9 1236 34 q 1017 -16 1099 -16 q 912 -4 962 -16 q 821 33 863 9 l 821 -492 l 970 -492 l 970 -652 l 642 -652 l 642 345 q 630 422 642 385 q 594 488 618 459 q 533 533 570 516 q 447 550 496 550 q 362 534 397 550 q 304 492 327 518 q 271 431 281 465 q 260 359 260 396 q 274 270 260 310 q 313 202 288 231 q 371 159 338 174 q 441 144 404 144 q 473 147 457 144 q 500 153 488 150 q 528 163 515 157 l 578 14 q 541 -1 562 5 q 497 -12 522 -7 q 441 -16 472 -16 q 294 11 361 -16 q 178 89 227 39 q 102 208 130 138 q 75 360 75 277 q 102 504 75 439 q 179 614 130 568 q 297 686 229 661 q 447 711 366 711 q 599 683 530 711 q 717 606 668 654 q 794 491 766 557 q 821 349 821 425 z "},"ၻ":{"ha":1444,"x_min":75,"x_max":1369,"o":"m 719 593 q 838 679 768 648 q 997 711 908 711 q 1147 686 1078 711 q 1265 614 1215 661 q 1342 504 1314 568 q 1369 360 1369 439 q 1342 208 1369 277 q 1265 89 1314 138 q 1149 11 1217 39 q 1003 -16 1082 -16 q 946 -12 972 -16 q 903 -1 921 -7 q 865 14 882 5 q 858 56 860 33 q 857 100 857 79 q 865 177 857 138 q 890 250 873 215 q 930 317 906 286 q 987 372 955 348 q 1076 422 1030 405 q 1169 441 1122 439 q 1145 485 1160 465 q 1109 519 1131 505 q 1060 542 1088 534 q 997 550 1031 550 q 926 539 958 550 q 869 508 894 528 q 828 462 844 488 q 802 405 811 435 q 806 348 806 377 q 779 197 806 264 q 703 83 751 130 q 587 9 654 35 q 441 -16 519 -16 q 294 9 361 -16 q 178 83 227 35 q 102 197 130 130 q 75 348 75 264 q 101 494 75 427 q 176 608 127 560 q 292 684 224 656 q 440 711 359 711 q 600 680 529 711 q 719 593 670 648 m 621 348 q 611 418 621 382 q 580 483 602 454 q 524 531 559 513 q 441 550 490 550 q 357 531 391 550 q 301 483 323 513 q 270 418 279 454 q 260 348 260 382 q 274 266 260 303 q 313 201 288 229 q 371 159 338 174 q 441 144 404 144 q 511 159 478 144 q 568 201 544 174 q 607 266 593 229 q 621 348 621 303 m 999 144 q 1064 156 1035 144 q 1117 188 1093 167 q 1157 240 1141 210 q 1180 310 1173 271 q 1125 300 1152 308 q 1073 272 1099 292 q 1025 215 1044 250 q 999 144 1006 180 z "},"ၼ":{"ha":1349,"x_min":64,"x_max":1284,"o":"m 401 -16 q 270 7 330 -16 q 168 69 211 30 q 97 160 124 109 q 64 269 71 212 q 115 313 86 293 q 179 348 144 333 q 255 370 214 362 q 341 378 296 378 q 471 353 413 378 q 574 286 529 328 q 582 348 582 315 q 572 418 582 382 q 541 483 562 454 q 485 531 519 513 q 401 550 450 550 q 342 541 368 550 q 295 517 315 532 q 258 481 274 502 q 231 437 242 460 l 81 513 q 133 593 102 557 q 203 655 163 629 q 293 696 243 682 q 401 711 342 711 q 483 701 444 711 q 556 674 522 691 q 620 635 591 658 q 674 586 650 612 q 728 635 699 612 q 793 674 758 658 q 866 701 827 691 q 948 711 905 711 q 1056 696 1006 711 q 1145 655 1105 682 q 1216 593 1185 629 q 1267 513 1246 557 l 1118 437 q 1091 481 1107 460 q 1054 517 1075 502 q 1007 541 1034 532 q 948 550 981 550 q 864 531 899 550 q 808 483 830 513 q 777 418 787 454 q 767 348 767 382 q 775 286 767 315 q 878 353 820 328 q 1008 378 936 378 q 1094 370 1053 378 q 1170 348 1135 362 q 1234 313 1205 333 q 1284 269 1263 293 q 1252 160 1278 212 q 1181 69 1225 109 q 1079 7 1138 30 q 948 -16 1019 -16 q 867 -7 906 -16 q 794 19 829 3 q 729 59 759 36 q 674 108 699 81 q 620 59 650 81 q 555 19 589 36 q 481 -7 520 3 q 401 -16 443 -16 m 948 144 q 1046 171 1007 144 q 1109 239 1086 198 q 1062 257 1088 251 q 1008 264 1037 264 q 910 240 954 264 q 839 184 867 217 q 890 155 862 165 q 948 144 918 144 m 401 144 q 459 155 431 144 q 510 184 487 165 q 438 240 481 217 q 340 264 395 264 q 287 257 312 264 q 239 239 261 251 q 302 171 263 198 q 401 144 342 144 z "},"ၽ":{"ha":1411,"x_min":68,"x_max":1346,"o":"m 267 262 q 276 219 267 241 q 306 181 286 198 q 356 155 326 165 q 428 144 386 144 q 521 163 481 144 q 589 212 562 182 q 630 279 616 242 q 644 354 644 317 q 634 426 644 393 q 611 486 625 458 q 578 537 596 514 q 541 578 559 559 l 660 707 q 706 660 684 687 q 747 604 728 632 q 862 681 795 651 q 1010 711 928 711 q 1118 696 1068 711 q 1207 655 1167 682 q 1278 593 1247 629 q 1329 513 1308 557 l 1180 437 q 1153 481 1168 460 q 1116 517 1137 502 q 1069 541 1095 532 q 1010 550 1042 550 q 926 531 960 550 q 870 483 892 513 q 839 418 848 454 q 829 348 829 382 q 837 286 829 315 q 940 353 882 328 q 1069 378 998 378 q 1156 370 1115 378 q 1232 348 1196 362 q 1296 313 1267 333 q 1346 269 1324 293 q 1313 160 1340 212 q 1243 69 1286 109 q 1140 7 1200 30 q 1010 -16 1081 -16 q 927 -7 966 -16 q 851 20 887 3 q 785 60 816 37 q 730 111 755 83 q 671 60 704 83 q 601 20 639 37 q 519 -7 562 3 q 428 -16 475 -16 q 283 4 347 -16 q 174 61 219 24 q 105 148 130 97 q 81 258 81 198 q 93 335 81 303 q 123 389 105 366 q 161 429 140 412 q 199 461 181 446 q 228 492 216 476 q 240 528 240 507 q 229 556 240 545 q 197 568 218 568 q 172 563 183 568 q 152 552 160 557 q 134 537 142 545 l 68 653 q 102 680 82 669 q 143 698 121 691 q 189 708 165 705 q 234 711 212 711 q 303 697 272 711 q 357 661 335 684 q 392 604 380 637 q 405 533 405 572 q 395 467 405 494 q 369 418 385 439 q 336 380 353 397 q 302 346 318 363 q 277 309 287 329 q 267 262 267 289 m 1010 144 q 1108 171 1069 144 q 1171 239 1147 198 q 1124 257 1149 251 q 1070 264 1099 264 q 972 240 1015 264 q 901 184 929 217 q 951 155 924 165 q 1010 144 979 144 z "},"ၾ":{"ha":1411,"x_min":68,"x_max":1346,"o":"m 267 262 q 276 219 267 241 q 306 181 286 198 q 356 155 326 165 q 428 144 386 144 q 521 163 481 144 q 589 212 562 182 q 630 279 616 242 q 644 354 644 317 q 634 426 644 393 q 611 486 625 458 q 578 537 596 514 q 541 578 559 559 l 660 707 q 706 660 684 687 q 747 604 728 632 q 862 681 795 651 q 1010 711 928 711 q 1118 696 1068 711 q 1207 655 1167 682 q 1278 593 1247 629 q 1329 513 1308 557 l 1180 437 q 1153 481 1168 460 q 1116 517 1137 502 q 1069 541 1095 532 q 1010 550 1042 550 q 926 531 960 550 q 870 483 892 513 q 839 418 848 454 q 829 348 829 382 q 837 286 829 315 q 940 353 882 328 q 1069 378 998 378 q 1156 370 1115 378 q 1232 348 1196 362 q 1296 313 1267 333 q 1346 269 1324 293 q 1313 160 1340 212 q 1243 69 1286 109 q 1140 7 1200 30 q 1010 -16 1081 -16 q 927 -7 966 -16 q 851 20 887 3 q 785 60 816 37 q 730 111 755 83 q 671 60 704 83 q 601 20 639 37 q 519 -7 562 3 q 428 -16 475 -16 q 283 4 347 -16 q 174 61 219 24 q 105 148 130 97 q 81 258 81 198 q 93 335 81 303 q 123 389 105 366 q 161 429 140 412 q 199 461 181 446 q 228 492 216 476 q 240 528 240 507 q 229 556 240 545 q 197 568 218 568 q 172 563 183 568 q 152 552 160 557 q 134 537 142 545 l 68 653 q 102 680 82 669 q 143 698 121 691 q 189 708 165 705 q 234 711 212 711 q 303 697 272 711 q 357 661 335 684 q 392 604 380 637 q 405 533 405 572 q 395 467 405 494 q 369 418 385 439 q 336 380 353 397 q 302 346 318 363 q 277 309 287 329 q 267 262 267 289 m 1010 144 q 1108 171 1069 144 q 1171 239 1147 198 q 1124 257 1149 251 q 1070 264 1099 264 q 972 240 1015 264 q 901 184 929 217 q 951 155 924 165 q 1010 144 979 144 m 1120 11 l 1120 -652 l 799 -652 l 799 -492 l 948 -492 l 948 11 l 1120 11 z "},"ၿ":{"ha":903,"x_min":75,"x_max":829,"o":"m 452 144 q 537 163 501 144 q 597 212 573 182 q 632 279 621 242 q 644 354 644 317 q 634 426 644 393 q 611 486 625 458 q 578 537 596 514 q 541 578 559 559 l 660 707 q 727 638 696 677 q 781 554 758 600 q 816 458 804 509 q 829 353 829 407 q 801 207 829 274 q 722 90 772 139 q 602 12 671 40 q 452 -16 533 -16 q 299 12 368 -16 q 180 90 230 40 q 102 207 130 139 q 75 353 75 274 q 93 472 75 416 q 142 572 112 527 q 210 651 172 617 q 284 707 247 686 q 366 657 326 690 q 436 582 406 625 q 485 490 467 539 q 504 389 504 440 q 478 254 504 315 q 405 149 452 194 q 452 144 425 144 m 260 354 q 268 289 260 321 q 294 229 277 257 q 345 297 326 256 q 364 389 364 338 q 351 460 364 425 q 315 523 338 495 q 276 449 292 490 q 260 354 260 408 z "},"ႀ":{"ha":1404,"x_min":64,"x_max":1329,"o":"m 1144 343 q 1130 434 1144 395 q 1091 498 1116 473 q 1033 537 1066 524 q 962 550 1000 550 q 931 547 946 550 q 903 541 916 544 q 876 532 889 536 l 825 680 q 863 695 842 688 q 906 706 881 701 q 963 711 932 711 q 1109 686 1042 711 q 1225 615 1177 662 q 1302 499 1274 568 q 1329 342 1329 431 q 1302 197 1329 263 q 1225 84 1274 132 q 1107 10 1175 37 q 957 -16 1038 -16 q 798 15 868 -16 q 680 100 728 46 q 559 14 630 44 q 401 -16 488 -16 q 270 7 330 -16 q 168 69 211 30 q 97 160 124 109 q 64 269 71 212 q 115 313 86 293 q 179 348 144 333 q 255 370 214 362 q 341 378 296 378 q 471 353 413 378 q 574 286 529 328 q 582 348 582 315 q 572 418 582 382 q 541 483 562 454 q 485 531 519 513 q 401 550 450 550 q 342 541 368 550 q 295 517 315 532 q 258 481 274 502 q 231 437 242 460 l 81 513 q 133 593 102 557 q 203 655 163 629 q 293 696 243 682 q 401 711 342 711 q 550 684 482 711 q 666 609 617 657 q 741 494 714 561 q 767 349 767 428 q 763 288 767 317 q 788 232 772 258 q 829 186 805 205 q 886 156 854 167 q 957 144 918 144 q 1042 162 1006 144 q 1100 207 1077 179 q 1133 271 1122 235 q 1144 343 1144 307 m 401 144 q 459 155 431 144 q 510 184 487 165 q 438 240 481 217 q 340 264 395 264 q 287 257 312 264 q 239 239 261 251 q 302 171 263 198 q 401 144 342 144 z "},"ႁ":{"ha":903,"x_min":75,"x_max":829,"o":"m 452 550 q 366 531 402 550 q 307 483 330 513 q 271 415 283 452 q 260 340 260 378 q 269 269 260 302 q 293 208 278 236 q 326 158 307 180 q 362 117 344 135 l 243 -12 q 176 56 207 18 q 122 140 145 95 q 87 237 100 186 q 75 341 75 288 q 102 488 75 420 q 180 605 130 555 q 299 683 230 654 q 452 711 368 711 q 602 683 533 711 q 722 605 671 654 q 801 488 772 555 q 829 341 829 420 q 816 237 829 288 q 781 140 804 186 q 727 56 758 95 q 660 -12 696 18 l 541 117 q 578 158 559 135 q 611 208 596 180 q 634 269 625 236 q 644 340 644 302 q 632 415 644 378 q 597 483 621 452 q 537 531 573 513 q 452 550 501 550 m 530 -102 l 530 -652 l 209 -652 l 209 -492 l 358 -492 l 358 -102 l 530 -102 z "},"ႎ":{"ha":881,"x_min":75,"x_max":806,"o":"m 75 347 q 102 497 75 430 q 178 612 130 564 q 294 685 227 659 q 440 711 361 711 q 587 685 519 711 q 703 612 654 659 q 779 497 751 564 q 806 347 806 430 q 780 201 806 267 q 705 86 753 134 q 589 11 656 38 q 440 -16 522 -16 q 292 11 359 -16 q 176 86 224 38 q 101 201 127 134 q 75 347 75 267 m 260 347 q 270 276 260 312 q 301 211 279 241 q 357 163 322 182 q 440 144 391 144 q 524 163 490 144 q 580 211 558 182 q 611 276 602 241 q 621 347 621 312 q 621 357 621 350 q 620 368 621 364 q 541 319 585 337 q 440 300 497 300 q 340 317 384 300 q 260 364 296 334 q 260 355 260 359 q 260 347 260 351 m 440 550 q 369 535 402 550 q 312 492 336 519 q 369 454 336 468 q 439 440 401 440 q 506 454 473 440 q 568 493 539 467 q 510 535 543 520 q 440 550 477 550 z "},"ꩠ":{"ha":1470,"x_min":75,"x_max":1396,"o":"m 452 550 q 366 531 402 550 q 307 483 330 513 q 271 415 283 452 q 260 340 260 378 q 269 269 260 302 q 293 208 278 236 q 326 158 307 180 q 362 117 344 135 l 243 -12 q 176 56 207 18 q 122 140 145 95 q 87 237 100 186 q 75 341 75 288 q 102 488 75 420 q 180 605 130 555 q 299 683 230 654 q 452 711 368 711 q 615 677 541 711 q 739 587 688 644 q 860 677 788 644 q 1023 711 932 711 q 1173 686 1105 711 q 1291 614 1242 661 q 1368 504 1341 568 q 1396 360 1396 439 q 1368 208 1396 277 q 1292 89 1341 138 q 1176 11 1243 39 q 1029 -16 1109 -16 q 973 -12 998 -16 q 930 -1 947 -7 q 892 14 908 5 q 885 56 886 33 q 883 100 883 79 q 891 177 883 138 q 916 250 900 215 q 957 317 932 286 q 1013 372 981 348 q 1103 422 1057 405 q 1196 441 1149 439 q 1172 485 1187 465 q 1136 519 1157 505 q 1086 542 1114 534 q 1023 550 1058 550 q 948 537 982 550 q 890 503 915 525 q 849 453 865 481 q 825 391 832 424 q 828 367 827 379 q 829 341 829 354 q 816 237 829 288 q 781 140 804 186 q 727 56 758 95 q 660 -12 696 18 l 541 117 q 578 158 559 135 q 611 208 596 180 q 634 269 625 236 q 644 340 644 302 q 632 415 644 378 q 597 483 621 452 q 537 531 573 513 q 452 550 501 550 m 1029 144 q 1090 156 1061 144 q 1143 188 1120 167 q 1183 240 1167 210 q 1206 310 1200 271 q 1152 300 1179 308 q 1099 272 1125 292 q 1052 215 1070 250 q 1025 144 1033 180 l 1029 144 z "},"ꩡ":{"ha":1450,"x_min":68,"x_max":1375,"o":"m 1375 348 q 1348 197 1375 264 q 1272 83 1320 130 q 1156 9 1223 35 q 1010 -16 1088 -16 q 863 13 930 -16 q 747 90 796 42 q 706 35 728 62 q 660 -12 684 7 l 541 117 q 578 158 559 135 q 611 208 596 180 q 634 269 625 236 q 644 340 644 302 q 630 415 644 378 q 589 483 616 452 q 521 531 562 513 q 428 550 481 550 q 356 540 386 550 q 306 513 326 530 q 276 475 286 496 q 267 432 267 454 q 277 385 267 405 q 302 348 287 366 q 336 314 318 331 q 369 276 353 297 q 395 228 385 255 q 405 161 405 200 q 392 90 405 123 q 357 34 380 58 q 303 -3 335 10 q 234 -16 272 -16 q 189 -13 212 -16 q 143 -3 165 -10 q 102 14 121 3 q 68 41 82 25 l 134 157 q 152 142 142 149 q 172 132 160 136 q 197 127 183 127 q 229 138 218 127 q 240 167 240 149 q 228 203 240 187 q 199 233 216 218 q 161 265 181 248 q 123 305 140 282 q 93 360 105 328 q 81 436 81 391 q 105 547 81 496 q 174 634 130 597 q 283 690 219 670 q 428 711 347 711 q 519 701 475 711 q 601 672 563 690 q 671 630 639 654 q 730 579 704 606 q 785 631 755 607 q 850 673 815 655 q 926 701 886 690 q 1010 711 966 711 q 1158 684 1091 711 q 1274 608 1225 656 q 1349 494 1322 560 q 1375 348 1375 427 m 1010 144 q 1080 159 1047 144 q 1137 201 1113 174 q 1176 266 1162 229 q 1190 348 1190 303 q 1180 418 1190 382 q 1149 483 1171 454 q 1093 531 1128 513 q 1010 550 1059 550 q 926 531 960 550 q 870 483 892 513 q 839 418 848 454 q 829 348 829 382 q 843 266 829 303 q 882 201 857 229 q 940 159 907 174 q 1010 144 972 144 z "},"ꩢ":{"ha":1082,"x_min":95,"x_max":1008,"o":"m 95 9 l 95 694 l 274 694 l 274 269 q 299 302 284 286 q 333 333 314 319 q 376 356 353 347 q 427 365 399 365 q 492 349 465 365 q 541 308 519 332 q 581 255 563 283 q 616 201 598 226 q 655 161 635 177 q 703 144 676 144 q 759 162 736 144 q 795 207 781 179 q 816 271 810 235 q 823 343 823 307 q 811 434 823 395 q 779 498 799 473 q 734 537 760 524 q 682 550 709 550 q 650 547 665 550 q 623 541 635 544 q 595 532 608 536 l 545 680 q 583 695 561 688 q 626 706 600 701 q 682 711 651 711 q 806 686 747 711 q 910 615 865 662 q 981 499 955 568 q 1008 342 1008 431 q 987 197 1008 263 q 926 84 966 132 q 828 10 886 37 q 696 -16 770 -16 q 609 0 646 -16 q 544 41 572 16 q 496 94 516 65 q 460 147 476 123 q 432 188 445 172 q 406 204 419 204 q 373 185 390 204 q 340 136 357 167 q 307 65 323 105 q 274 -16 290 26 l 95 9 z "},"ꩣ":{"ha":1470,"x_min":68,"x_max":1396,"o":"m 1396 348 q 1368 197 1396 264 q 1292 83 1341 130 q 1176 9 1243 35 q 1030 -16 1109 -16 q 881 14 949 -16 q 764 94 812 44 q 707 30 738 59 q 646 -16 677 1 q 566 33 604 1 q 499 109 528 66 q 454 201 471 151 q 437 301 437 250 q 457 431 437 373 q 520 534 478 490 q 480 546 501 541 q 438 550 460 550 q 366 539 396 550 q 315 510 335 528 q 286 469 296 492 q 276 425 276 447 q 286 379 276 398 q 309 343 295 360 q 340 311 323 327 q 372 275 357 295 q 395 227 386 254 q 405 161 405 200 q 392 90 405 123 q 357 34 380 58 q 303 -3 335 10 q 234 -16 272 -16 q 189 -13 212 -16 q 143 -3 165 -10 q 102 14 121 3 q 68 41 82 25 l 134 157 q 152 142 142 149 q 172 132 160 136 q 197 127 183 127 q 229 138 218 127 q 240 167 240 149 q 229 203 240 187 q 202 235 218 219 q 168 267 186 250 q 133 307 149 284 q 106 358 117 329 q 95 429 95 388 q 118 541 95 490 q 186 630 142 593 q 294 689 230 668 q 438 711 357 711 q 526 700 483 711 q 608 670 569 689 q 682 626 647 651 q 745 572 716 601 q 800 626 769 601 q 866 670 830 652 q 944 700 903 689 q 1030 711 985 711 q 1179 684 1112 711 q 1294 608 1246 656 q 1369 494 1343 560 q 1396 348 1396 427 m 1030 144 q 1100 159 1067 144 q 1158 201 1133 174 q 1196 266 1182 229 q 1211 348 1211 303 q 1201 418 1211 382 q 1170 483 1191 454 q 1114 531 1148 513 q 1030 550 1079 550 q 946 531 981 550 q 890 483 912 513 q 859 418 869 454 q 849 348 849 382 q 863 266 849 303 q 902 201 878 229 q 960 159 927 174 q 1030 144 993 144 m 664 336 q 654 394 664 365 q 627 448 644 422 q 590 384 603 421 q 576 302 576 347 q 587 233 576 267 q 616 172 597 199 q 651 243 637 203 q 664 336 664 283 z "},"ꩤ":{"ha":1451,"x_min":75,"x_max":1376,"o":"m 452 144 q 537 163 501 144 q 597 212 573 182 q 632 279 621 242 q 644 354 644 317 q 634 426 644 393 q 611 486 625 458 q 578 537 596 514 q 541 578 559 559 l 660 707 q 707 659 684 686 q 748 604 729 631 q 863 681 796 651 q 1010 711 929 711 q 1159 684 1091 711 q 1275 608 1226 656 q 1350 494 1323 560 q 1376 348 1376 427 q 1349 197 1376 264 q 1272 83 1321 130 q 1156 9 1223 35 q 1010 -16 1089 -16 q 853 17 924 -16 q 732 106 782 50 q 676 56 707 79 q 610 18 646 34 q 535 -7 575 1 q 452 -16 495 -16 q 301 12 370 -16 q 181 90 232 40 q 103 207 131 139 q 75 353 75 274 q 87 458 75 407 q 122 554 100 509 q 176 638 145 600 q 243 707 207 677 l 362 578 q 326 537 344 559 q 293 486 307 514 q 269 426 278 458 q 260 354 260 393 q 271 279 260 317 q 307 212 283 242 q 366 163 330 182 q 452 144 402 144 m 1010 144 q 1080 159 1047 144 q 1138 201 1113 174 q 1177 266 1162 229 q 1191 348 1191 303 q 1181 418 1191 382 q 1150 483 1171 454 q 1094 531 1128 513 q 1010 550 1059 550 q 927 531 961 550 q 871 483 892 513 q 839 418 849 454 q 829 348 829 382 q 844 266 829 303 q 882 201 858 229 q 940 159 907 174 q 1010 144 972 144 z "},"ꩥ":{"ha":1464,"x_min":75,"x_max":1390,"o":"m 822 345 l 822 -652 l 494 -652 l 494 -492 l 643 -492 l 643 33 q 552 -4 601 9 q 447 -16 503 -16 q 297 9 366 -16 q 179 80 229 34 q 102 191 130 126 q 75 334 75 255 q 102 487 75 418 q 178 606 130 556 q 294 683 227 656 q 441 711 361 711 q 497 706 472 711 q 541 695 522 701 q 578 680 562 688 l 528 532 q 500 541 515 536 q 473 547 488 544 q 441 550 457 550 q 371 535 404 550 q 313 492 338 519 q 274 424 288 464 q 260 335 260 385 q 271 264 260 298 q 304 203 281 229 q 362 160 327 176 q 447 144 397 144 q 531 160 495 144 q 591 203 567 176 q 629 266 616 231 q 643 341 642 302 l 643 349 q 670 491 643 425 q 747 606 698 557 q 865 683 796 654 q 1017 711 934 711 q 1167 686 1099 711 q 1285 614 1236 661 q 1362 504 1335 568 q 1390 360 1390 439 q 1362 208 1390 277 q 1286 89 1335 138 q 1170 11 1237 39 q 1023 -16 1103 -16 q 967 -12 992 -16 q 924 -1 941 -7 q 886 14 902 5 l 937 163 q 964 153 949 157 q 991 147 976 150 q 1023 144 1006 144 q 1093 159 1060 144 q 1151 202 1126 174 q 1190 270 1176 231 q 1204 359 1204 310 q 1194 431 1204 396 q 1160 492 1183 465 q 1102 534 1137 518 q 1017 550 1067 550 q 931 533 968 550 q 870 488 895 516 q 834 422 846 459 q 822 345 822 385 z "},"ꩦ":{"ha":1444,"x_min":75,"x_max":1369,"o":"m 1184 359 q 1173 431 1184 396 q 1140 492 1162 465 q 1082 534 1117 518 q 997 550 1046 550 q 926 539 958 550 q 869 508 894 528 q 828 462 844 488 q 802 405 811 435 q 806 348 806 377 q 779 197 806 264 q 703 83 751 130 q 587 9 654 35 q 441 -16 519 -16 q 294 9 361 -16 q 178 83 227 35 q 102 197 130 130 q 75 348 75 264 q 101 494 75 427 q 176 608 127 560 q 292 684 224 656 q 440 711 359 711 q 600 680 529 711 q 719 593 670 648 q 838 679 768 648 q 997 711 908 711 q 1147 686 1078 711 q 1265 614 1215 661 q 1342 504 1314 568 q 1369 360 1369 439 q 1342 208 1369 277 q 1265 89 1314 138 q 1149 11 1217 39 q 1003 -16 1082 -16 q 946 -12 972 -16 q 903 -1 921 -7 q 865 14 882 5 l 916 163 q 943 153 929 157 q 971 147 956 150 q 1002 144 986 144 q 1073 159 1040 144 q 1131 202 1106 174 q 1170 270 1156 231 q 1184 359 1184 310 m 621 348 q 611 418 621 382 q 580 483 602 454 q 524 531 559 513 q 441 550 490 550 q 357 531 391 550 q 301 483 323 513 q 270 418 279 454 q 260 348 260 382 q 274 266 260 303 q 313 201 288 229 q 371 159 338 174 q 441 144 404 144 q 511 159 478 144 q 568 201 544 174 q 607 266 593 229 q 621 348 621 303 m 338 347 q 345 387 338 368 q 367 420 353 406 q 399 443 380 435 q 440 452 418 452 q 481 443 463 452 q 514 420 500 435 q 535 387 528 406 q 543 347 543 368 q 535 307 543 326 q 514 273 528 288 q 481 251 500 259 q 440 243 463 243 q 399 251 418 243 q 367 273 380 259 q 345 307 353 288 q 338 347 338 326 z "},"ꩧ":{"ha":1428,"x_min":75,"x_max":1353,"o":"m 713 585 q 768 634 738 612 q 832 674 798 657 q 905 701 867 691 q 987 711 944 711 q 1136 684 1068 711 q 1252 608 1203 656 q 1326 494 1300 560 q 1353 348 1353 427 q 1325 197 1353 264 q 1249 83 1298 130 q 1133 9 1200 35 q 987 -16 1066 -16 q 907 -7 945 -16 q 833 19 868 3 q 768 59 798 36 q 713 108 738 81 q 659 59 689 81 q 594 19 629 36 q 521 -7 559 3 q 441 -16 482 -16 q 294 9 361 -16 q 178 83 227 35 q 102 197 130 130 q 75 348 75 264 q 101 494 75 427 q 176 608 127 560 q 292 684 224 656 q 440 711 359 711 q 522 701 483 711 q 595 674 561 691 q 660 634 630 657 q 713 585 689 612 m 1168 348 q 1158 418 1168 382 q 1127 483 1148 454 q 1071 531 1105 513 q 987 550 1036 550 q 904 531 938 550 q 848 483 869 513 q 816 418 826 454 q 806 348 806 382 q 821 266 806 303 q 860 201 835 229 q 917 159 884 174 q 987 144 950 144 q 1058 159 1025 144 q 1115 201 1090 174 q 1154 266 1139 229 q 1168 348 1168 303 m 621 348 q 611 418 621 382 q 580 483 602 454 q 524 531 559 513 q 441 550 490 550 q 357 531 391 550 q 301 483 323 513 q 270 418 279 454 q 260 348 260 382 q 274 266 260 303 q 313 201 288 229 q 371 159 338 174 q 441 144 404 144 q 511 159 478 144 q 568 201 544 174 q 607 266 593 229 q 621 348 621 303 m 338 347 q 345 387 338 368 q 367 420 353 406 q 399 443 380 435 q 440 452 418 452 q 481 443 463 452 q 514 420 500 435 q 535 387 528 406 q 543 347 543 368 q 535 307 543 326 q 514 273 528 288 q 481 251 500 259 q 440 243 463 243 q 399 251 418 243 q 367 273 380 259 q 345 307 353 288 q 338 347 338 326 z "},"ꩨ":{"ha":1444,"x_min":75,"x_max":1369,"o":"m 719 593 q 838 679 768 648 q 997 711 908 711 q 1147 686 1078 711 q 1265 614 1215 661 q 1342 504 1314 568 q 1369 360 1369 439 q 1342 208 1369 277 q 1265 89 1314 138 q 1149 11 1217 39 q 1003 -16 1082 -16 q 946 -12 972 -16 q 903 -1 921 -7 q 865 14 882 5 q 858 56 860 33 q 857 100 857 79 q 865 177 857 138 q 890 250 873 215 q 930 317 906 286 q 987 372 955 348 q 1076 422 1030 405 q 1169 441 1122 439 q 1145 485 1160 465 q 1109 519 1131 505 q 1060 542 1088 534 q 997 550 1031 550 q 926 539 958 550 q 869 508 894 528 q 828 462 844 488 q 802 405 811 435 q 806 348 806 377 q 779 197 806 264 q 703 83 751 130 q 587 9 654 35 q 441 -16 519 -16 q 294 9 361 -16 q 178 83 227 35 q 102 197 130 130 q 75 348 75 264 q 101 494 75 427 q 176 608 127 560 q 292 684 224 656 q 440 711 359 711 q 600 680 529 711 q 719 593 670 648 m 621 348 q 611 418 621 382 q 580 483 602 454 q 524 531 559 513 q 441 550 490 550 q 357 531 391 550 q 301 483 323 513 q 270 418 279 454 q 260 348 260 382 q 274 266 260 303 q 313 201 288 229 q 371 159 338 174 q 441 144 404 144 q 511 159 478 144 q 568 201 544 174 q 607 266 593 229 q 621 348 621 303 m 338 347 q 345 387 338 368 q 367 420 353 406 q 399 443 380 435 q 440 452 418 452 q 481 443 463 452 q 514 420 500 435 q 535 387 528 406 q 543 347 543 368 q 535 307 543 326 q 514 273 528 288 q 481 251 500 259 q 440 243 463 243 q 399 251 418 243 q 367 273 380 259 q 345 307 353 288 q 338 347 338 326 m 1002 144 q 1064 156 1035 144 q 1117 188 1093 167 q 1157 240 1141 210 q 1180 310 1173 271 q 1125 300 1152 308 q 1073 272 1099 292 q 1025 215 1044 250 q 999 144 1006 180 l 1002 144 z "},"ꩩ":{"ha":1428,"x_min":75,"x_max":1353,"o":"m 713 585 q 768 634 738 612 q 832 674 798 657 q 905 701 867 691 q 987 711 944 711 q 1136 684 1068 711 q 1252 608 1203 656 q 1326 494 1300 560 q 1353 348 1353 427 q 1325 197 1353 264 q 1249 83 1298 130 q 1133 9 1200 35 q 987 -16 1066 -16 q 907 -7 945 -16 q 833 19 868 3 q 768 59 798 36 q 713 108 738 81 q 659 59 689 81 q 594 19 629 36 q 521 -7 559 3 q 441 -16 482 -16 q 294 9 361 -16 q 178 83 227 35 q 102 197 130 130 q 75 348 75 264 q 101 494 75 427 q 176 608 127 560 q 292 684 224 656 q 440 711 359 711 q 522 701 483 711 q 595 674 561 691 q 660 634 630 657 q 713 585 689 612 m 621 348 q 611 418 621 382 q 580 483 602 454 q 524 531 559 513 q 441 550 490 550 q 357 531 391 550 q 301 483 323 513 q 270 418 279 454 q 260 348 260 382 q 274 266 260 303 q 313 201 288 229 q 371 159 338 174 q 441 144 404 144 q 511 159 478 144 q 568 201 544 174 q 607 266 593 229 q 621 348 621 303 m 1168 348 q 1158 418 1168 382 q 1127 483 1148 454 q 1071 531 1105 513 q 987 550 1036 550 q 928 542 955 550 q 882 518 902 533 q 847 484 862 503 q 824 441 833 464 q 916 421 871 438 q 1003 372 960 405 q 1074 297 1046 340 q 1118 204 1102 254 q 1155 268 1141 231 q 1168 348 1168 304 m 338 347 q 345 387 338 368 q 367 420 353 406 q 399 443 380 435 q 440 452 418 452 q 481 443 463 452 q 514 420 500 435 q 535 387 528 406 q 543 347 543 368 q 535 307 543 326 q 514 273 528 288 q 481 251 500 259 q 440 243 463 243 q 399 251 418 243 q 367 273 380 259 q 345 307 353 288 q 338 347 338 326 m 987 144 l 991 144 q 964 215 983 181 q 917 271 945 250 q 864 299 890 291 q 809 310 837 308 q 831 242 815 273 q 871 190 847 212 q 924 156 895 168 q 987 144 954 144 z "},"ꩪ":{"ha":1428,"x_min":75,"x_max":1353,"o":"m 713 585 q 768 634 738 612 q 832 674 798 657 q 905 701 867 691 q 987 711 944 711 q 1136 684 1068 711 q 1252 608 1203 656 q 1326 494 1300 560 q 1353 348 1353 427 q 1325 197 1353 264 q 1249 83 1298 130 q 1133 9 1200 35 q 987 -16 1066 -16 q 907 -7 945 -16 q 833 19 868 3 q 768 59 798 36 q 713 108 738 81 q 659 59 689 81 q 594 19 629 36 q 521 -7 559 3 q 441 -16 482 -16 q 294 9 361 -16 q 178 83 227 35 q 102 197 130 130 q 75 348 75 264 q 101 494 75 427 q 176 608 127 560 q 292 684 224 656 q 440 711 359 711 q 522 701 483 711 q 595 674 561 691 q 660 634 630 657 q 713 585 689 612 m 621 348 q 611 418 621 382 q 580 483 602 454 q 524 531 559 513 q 441 550 490 550 q 357 531 391 550 q 301 483 323 513 q 270 418 279 454 q 260 348 260 382 q 274 266 260 303 q 313 201 288 229 q 371 159 338 174 q 441 144 404 144 q 511 159 478 144 q 568 201 544 174 q 607 266 593 229 q 621 348 621 303 m 1168 348 q 1158 418 1168 382 q 1127 483 1148 454 q 1071 531 1105 513 q 987 550 1036 550 q 928 542 955 550 q 882 518 902 533 q 847 484 862 503 q 824 441 833 464 q 916 421 871 438 q 1003 372 960 405 q 1074 297 1046 340 q 1118 204 1102 254 q 1155 268 1141 231 q 1168 348 1168 304 m 987 144 l 991 144 q 964 215 983 181 q 917 271 945 250 q 864 299 890 291 q 809 310 837 308 q 831 242 815 273 q 871 190 847 212 q 924 156 895 168 q 987 144 954 144 z "},"ꩫ":{"ha":922,"x_min":27,"x_max":847,"o":"m 178 694 q 176 685 176 690 q 174 663 174 675 q 179 627 174 643 q 194 597 184 610 q 315 677 245 648 q 470 707 385 707 q 621 679 551 707 q 740 601 690 650 q 819 484 791 551 q 847 337 847 416 q 834 233 847 283 q 799 136 822 182 q 746 52 777 91 q 678 -16 715 14 l 559 113 q 596 154 578 131 q 629 204 614 176 q 653 265 644 232 q 662 336 662 298 q 650 411 662 374 q 615 478 639 448 q 555 527 591 509 q 470 546 519 546 q 408 536 435 546 q 359 511 380 527 q 420 465 393 492 q 468 408 448 439 q 498 341 488 376 q 509 267 509 305 q 492 172 509 216 q 448 91 476 127 q 382 28 420 55 q 302 -16 345 1 q 228 39 265 5 q 160 118 191 73 q 112 219 130 163 q 93 337 93 274 q 119 478 93 412 q 53 551 78 509 q 27 648 27 592 q 28 667 27 659 q 30 682 28 675 q 33 694 31 689 l 178 694 m 278 336 q 295 238 278 280 q 337 163 312 195 q 361 209 353 182 q 369 268 369 235 q 346 351 369 317 q 288 405 323 385 q 280 371 282 388 q 278 336 278 353 z "},"ꩬ":{"ha":1670,"x_min":75,"x_max":1596,"o":"m 870 283 q 875 323 870 307 q 885 352 880 339 q 895 378 890 365 q 900 410 900 391 q 896 432 900 421 q 884 451 892 442 q 863 465 876 460 q 836 471 851 471 q 807 465 819 471 q 787 451 795 460 q 774 431 779 442 q 770 410 770 420 q 775 378 770 392 q 785 351 780 364 q 795 321 791 337 q 800 283 800 305 q 778 168 800 222 q 712 73 756 114 q 601 8 667 32 q 447 -16 535 -16 q 297 10 366 -16 q 179 83 229 36 q 102 196 130 131 q 75 341 75 262 q 100 493 75 425 q 172 609 125 561 q 283 684 218 658 q 427 711 348 711 q 483 707 458 711 q 524 697 507 703 q 558 684 543 691 l 507 535 q 484 543 496 539 q 458 548 473 545 q 428 550 444 550 q 365 536 395 550 q 311 495 334 522 q 274 430 288 469 q 260 342 260 391 q 271 270 260 305 q 305 206 282 234 q 363 161 328 178 q 447 144 398 144 q 529 158 496 144 q 581 194 562 172 q 608 240 600 215 q 615 287 615 265 q 610 327 615 308 q 600 363 606 345 q 590 398 595 380 q 585 436 585 416 q 610 526 585 489 q 672 585 635 562 q 753 617 709 607 q 835 627 797 627 q 917 617 873 627 q 998 585 961 608 q 1060 526 1036 563 q 1085 436 1085 490 q 1080 397 1085 416 q 1070 360 1076 378 q 1060 325 1065 342 q 1055 287 1055 307 q 1063 240 1055 265 q 1089 194 1070 215 q 1141 158 1109 172 q 1223 144 1173 144 q 1308 161 1272 144 q 1365 206 1343 178 q 1399 270 1388 234 q 1411 342 1411 305 q 1397 430 1411 391 q 1359 495 1383 469 q 1306 536 1336 522 q 1242 550 1276 550 q 1212 548 1226 550 q 1187 543 1198 545 q 1163 535 1175 539 l 1112 684 q 1147 697 1127 691 q 1188 707 1164 703 q 1243 711 1212 711 q 1387 684 1322 711 q 1498 609 1452 658 q 1570 493 1545 561 q 1596 341 1596 425 q 1568 196 1596 262 q 1491 83 1541 131 q 1373 10 1442 36 q 1223 -16 1305 -16 q 1069 8 1135 -16 q 959 73 1003 32 q 892 168 914 114 q 870 283 870 222 z "},"ꩭ":{"ha":1171,"x_min":-136,"x_max":1096,"o":"m 83 502 q 100 583 83 545 q 144 650 116 621 q 211 694 173 678 q 292 711 249 711 q 397 682 350 711 q 472 608 444 654 q 506 637 484 620 q 559 671 528 655 q 630 699 591 688 q 717 711 670 711 q 868 686 798 711 q 988 614 937 661 q 1067 504 1039 568 q 1096 360 1096 439 q 1068 208 1096 277 q 992 89 1041 138 q 876 11 943 39 q 730 -16 809 -16 q 673 -12 699 -16 q 630 -1 648 -7 q 592 14 608 5 l 643 163 q 670 153 656 157 q 697 147 682 150 q 729 144 713 144 q 800 159 766 144 q 858 202 833 174 q 897 270 882 231 q 911 359 911 310 q 900 431 911 396 q 866 492 889 465 q 808 534 844 518 q 724 550 773 550 q 661 542 690 550 q 609 523 632 534 q 568 496 586 511 q 540 467 551 481 l 540 -352 q 532 -425 540 -387 q 507 -497 524 -462 q 464 -564 490 -532 q 400 -618 437 -595 q 313 -655 362 -642 q 202 -669 264 -669 q 91 -655 140 -669 q 4 -618 42 -642 q -60 -564 -33 -595 q -103 -497 -86 -532 q -128 -425 -120 -462 q -136 -352 -136 -387 l -136 -337 l 43 -337 l 43 -352 q 55 -416 43 -387 q 87 -465 66 -445 q 138 -497 109 -486 q 202 -508 167 -508 q 267 -497 237 -508 q 317 -465 296 -486 q 349 -416 338 -445 q 361 -352 361 -387 l 361 304 q 292 293 328 293 q 211 309 249 293 q 144 354 173 326 q 100 420 116 382 q 83 502 83 458 m 222 502 q 227 475 222 488 q 242 453 233 462 q 264 438 252 444 q 292 433 277 433 q 339 451 319 433 q 361 498 359 470 l 361 505 q 354 531 360 519 q 339 552 349 543 q 318 566 330 561 q 292 571 305 571 q 264 566 277 571 q 242 551 252 560 q 227 529 233 542 q 222 502 222 516 z "},"ꩮ":{"ha":1469,"x_min":75,"x_max":1394,"o":"m 441 -16 q 294 11 361 -16 q 178 89 227 39 q 102 208 130 138 q 75 360 75 277 q 102 504 75 439 q 179 614 130 568 q 297 686 229 661 q 447 711 366 711 q 593 688 530 711 q 702 620 656 665 q 778 510 747 576 q 826 360 808 445 q 848 281 834 320 q 885 212 862 243 q 941 163 907 182 q 1022 144 975 144 q 1107 162 1072 144 q 1165 207 1142 179 q 1198 271 1187 235 q 1209 343 1209 307 q 1195 434 1209 395 q 1156 498 1181 473 q 1098 537 1131 524 q 1027 550 1065 550 q 996 547 1011 550 q 968 541 981 544 q 941 532 954 536 l 890 680 q 928 695 907 688 q 971 706 946 701 q 1028 711 997 711 q 1175 686 1107 711 q 1291 615 1242 662 q 1367 499 1339 568 q 1394 342 1394 431 q 1367 197 1394 263 q 1290 84 1339 132 q 1172 10 1240 37 q 1022 -16 1103 -16 q 880 6 941 -16 q 775 71 819 28 q 701 177 730 114 q 652 323 671 240 q 627 409 642 368 q 588 481 612 450 q 531 531 565 513 q 447 550 496 550 q 384 542 412 550 q 335 519 356 534 q 298 485 313 505 q 274 441 283 465 q 368 422 321 439 q 457 372 414 405 q 513 317 489 348 q 554 250 538 286 q 579 177 570 215 q 587 100 587 138 q 586 56 587 79 q 578 14 584 33 q 541 -1 562 5 q 497 -12 522 -7 q 441 -16 472 -16 m 441 144 l 445 144 q 418 215 437 180 q 371 272 399 250 q 318 300 345 292 q 264 310 291 308 q 287 240 271 271 q 327 188 303 210 q 379 156 350 167 q 441 144 409 144 z "},"ꩯ":{"ha":1179,"x_min":95,"x_max":1104,"o":"m 1104 348 q 1077 197 1104 264 q 1000 83 1049 130 q 884 9 951 35 q 739 -16 817 -16 q 592 9 659 -16 q 476 83 525 35 q 400 197 427 130 q 372 348 372 264 q 372 360 372 354 q 373 372 372 366 l 274 471 l 274 0 l 95 0 l 95 677 l 263 703 l 423 543 q 478 613 446 582 q 551 666 511 644 q 638 699 591 688 q 739 711 686 711 q 887 684 820 711 q 1003 608 954 656 q 1078 494 1051 560 q 1104 348 1104 427 m 739 144 q 809 159 776 144 q 866 201 842 174 q 905 266 890 229 q 919 348 919 303 q 909 418 919 382 q 878 483 899 454 q 822 531 857 513 q 739 550 787 550 q 655 531 689 550 q 599 483 621 513 q 567 418 577 454 q 557 348 557 382 q 572 266 557 303 q 611 201 586 229 q 668 159 635 174 q 739 144 701 144 z "},"ꩱ":{"ha":1467,"x_min":75,"x_max":1392,"o":"m 1207 359 q 1196 431 1207 396 q 1163 492 1185 465 q 1105 534 1140 518 q 1020 550 1069 550 q 947 538 980 550 q 889 506 914 526 q 848 458 865 486 q 824 399 832 431 q 827 368 826 384 q 829 337 829 353 q 816 233 829 283 q 781 136 804 182 q 727 52 758 91 q 660 -16 696 14 l 541 113 q 578 154 559 131 q 611 204 596 176 q 634 265 625 232 q 644 336 644 298 q 632 411 644 374 q 597 478 621 448 q 537 527 573 509 q 452 546 501 546 q 405 541 428 546 q 478 436 452 496 q 504 301 504 376 q 485 201 504 250 q 436 109 467 151 q 366 33 406 66 q 284 -16 326 1 q 210 39 247 5 q 142 118 172 73 q 93 219 112 163 q 75 337 75 274 q 102 484 75 416 q 180 601 130 551 q 299 679 230 650 q 452 707 368 707 q 612 674 540 707 q 736 586 685 642 q 856 677 784 644 q 1020 711 928 711 q 1170 686 1101 711 q 1288 614 1238 661 q 1365 504 1337 568 q 1392 360 1392 439 q 1365 208 1392 277 q 1289 89 1337 138 q 1173 11 1240 39 q 1026 -16 1105 -16 q 969 -12 995 -16 q 926 -1 944 -7 q 888 14 905 5 l 939 163 q 966 153 952 157 q 994 147 979 150 q 1025 144 1009 144 q 1096 159 1063 144 q 1154 202 1129 174 q 1193 270 1179 231 q 1207 359 1207 310 m 260 336 q 276 241 260 282 q 315 168 292 200 q 351 230 338 195 q 364 302 364 265 q 345 394 364 353 q 294 462 326 435 q 268 401 277 433 q 260 336 260 369 z "},"ꩲ":{"ha":1860,"x_min":64,"x_max":1786,"o":"m 432 117 q 490 134 474 117 q 506 180 506 151 q 501 220 506 196 q 491 272 496 244 q 481 330 486 300 q 476 391 476 361 q 499 509 476 451 q 568 611 522 566 q 681 683 613 656 q 836 711 748 711 q 929 701 885 711 q 1011 672 973 690 q 1082 630 1050 654 q 1141 579 1114 606 q 1195 631 1165 607 q 1261 673 1225 655 q 1336 701 1296 690 q 1420 711 1376 711 q 1569 684 1501 711 q 1684 608 1636 656 q 1759 494 1733 560 q 1786 348 1786 427 q 1758 197 1786 264 q 1682 83 1731 130 q 1566 9 1633 35 q 1420 -16 1499 -16 q 1273 13 1340 -16 q 1158 90 1206 42 q 1117 35 1139 62 q 1070 -12 1095 7 l 951 117 q 988 158 970 135 q 1021 208 1006 180 q 1045 269 1036 236 q 1054 340 1054 302 q 1040 415 1054 378 q 999 483 1026 452 q 931 531 972 513 q 838 550 891 550 q 753 533 787 550 q 699 490 720 515 q 670 437 679 465 q 661 387 661 408 q 666 320 661 347 q 676 272 671 293 q 686 230 682 250 q 691 181 691 210 q 666 84 691 122 q 604 23 642 45 q 523 -8 567 1 q 441 -17 479 -17 q 280 5 350 -17 q 162 68 210 28 q 89 166 114 109 q 64 292 64 223 q 69 357 64 326 q 82 416 74 389 q 101 466 90 444 q 123 506 111 489 q 250 483 191 503 q 351 425 308 462 q 419 334 394 387 q 444 212 444 280 q 443 190 444 202 q 440 164 441 177 q 436 138 438 151 q 432 117 434 126 m 1420 144 q 1490 159 1457 144 q 1548 201 1523 174 q 1586 266 1572 229 q 1600 348 1600 303 q 1591 418 1600 382 q 1559 483 1581 454 q 1503 531 1538 513 q 1420 550 1469 550 q 1336 531 1371 550 q 1280 483 1302 513 q 1249 418 1259 454 q 1239 348 1239 382 q 1253 266 1239 303 q 1292 201 1267 229 q 1350 159 1317 174 q 1420 144 1383 144 m 217 357 q 212 333 214 346 q 210 309 210 321 q 214 261 210 283 q 229 218 218 238 q 258 181 239 198 q 304 150 276 163 q 307 164 306 155 q 310 181 309 172 q 311 199 311 191 q 312 214 312 208 q 307 263 312 242 q 291 302 302 285 q 261 334 279 319 q 218 360 243 348 l 217 357 z "},"ꩳ":{"ha":1069,"x_min":95,"x_max":994,"o":"m 274 703 q 313 614 288 669 q 373 498 339 560 q 446 373 407 436 q 527 259 486 310 q 611 176 569 208 q 690 144 652 144 q 745 162 722 144 q 782 207 768 179 q 803 271 796 235 q 809 343 809 307 q 797 434 809 395 q 766 498 785 473 q 721 537 746 524 q 668 550 695 550 q 636 547 652 550 q 609 541 621 544 q 582 532 595 536 l 531 680 q 569 695 547 688 q 612 706 587 701 q 669 711 637 711 q 793 686 734 711 q 897 615 852 662 q 968 499 941 568 q 994 342 994 431 q 973 197 994 263 q 912 84 952 132 q 814 10 872 37 q 683 -16 757 -16 q 587 4 633 -16 q 501 56 542 24 q 425 127 460 87 q 361 207 390 167 q 311 284 333 248 q 274 346 289 321 l 274 0 l 95 0 l 95 677 l 274 703 z "},"ꩺ":{"ha":1770,"x_min":95,"x_max":1695,"o":"m 433 -659 q 321 -646 370 -659 q 235 -609 273 -632 q 171 -554 197 -585 q 127 -488 144 -523 q 103 -415 111 -452 q 95 -342 95 -378 l 95 873 q 103 945 95 908 q 127 1018 111 983 q 171 1084 144 1053 q 235 1139 197 1116 q 322 1176 273 1162 q 433 1190 371 1190 l 789 1190 q 854 1201 825 1190 q 904 1232 883 1212 q 937 1281 925 1253 q 948 1345 948 1310 l 948 1439 l 1127 1439 l 1127 1345 q 1119 1273 1127 1310 q 1095 1200 1112 1236 q 1051 1134 1078 1165 q 987 1079 1025 1103 q 900 1042 949 1056 q 789 1029 851 1029 l 433 1029 q 368 1018 397 1029 q 318 986 339 1006 q 286 937 297 966 q 274 873 274 908 l 274 -342 q 286 -407 274 -378 q 318 -456 297 -435 q 368 -487 339 -476 q 433 -498 397 -498 l 789 -498 q 854 -487 825 -498 q 904 -456 883 -476 q 937 -407 925 -435 q 948 -336 948 -378 l 948 345 q 936 422 948 385 q 900 488 924 459 q 839 533 876 516 q 753 550 802 550 q 668 534 703 550 q 610 492 633 518 q 576 431 587 465 q 566 359 566 396 q 580 270 566 310 q 619 202 594 231 q 677 159 644 174 q 747 144 710 144 q 779 147 763 144 q 806 153 794 150 q 833 163 821 157 l 884 14 q 846 -1 867 5 q 803 -12 828 -7 q 747 -16 778 -16 q 600 11 667 -16 q 484 89 533 39 q 408 208 435 138 q 380 360 380 277 q 408 504 380 439 q 485 614 435 568 q 603 686 534 661 q 753 711 671 711 q 905 682 836 711 q 1023 604 974 653 q 1100 488 1072 554 q 1127 345 1127 421 l 1127 337 q 1141 263 1128 298 q 1178 202 1154 229 q 1239 160 1202 176 q 1323 144 1275 144 q 1408 160 1373 144 q 1466 203 1443 176 q 1499 264 1489 229 q 1510 335 1510 298 q 1496 424 1510 385 q 1457 492 1482 464 q 1399 535 1432 519 q 1329 550 1366 550 q 1297 547 1312 550 q 1270 541 1282 544 q 1242 532 1255 536 l 1192 680 q 1230 695 1208 688 q 1273 706 1247 701 q 1329 711 1298 711 q 1476 683 1409 711 q 1592 606 1543 656 q 1668 487 1640 556 q 1695 334 1695 418 q 1668 191 1695 255 q 1591 80 1640 126 q 1473 9 1541 34 q 1323 -16 1404 -16 q 1218 -4 1267 -16 q 1127 33 1169 9 l 1127 -342 q 1119 -415 1127 -378 q 1095 -488 1112 -452 q 1051 -554 1078 -523 q 987 -609 1025 -585 q 900 -646 949 -632 q 789 -659 851 -659 l 433 -659 z "},"ျ":{"ha":344,"x_min":-336,"x_max":249,"o":"m -157 67 l -157 -394 l 70 -459 l 70 696 l 249 696 l 249 -686 l -336 -505 l -336 67 l -157 67 z "},"ြ":{"ha":369,"x_min":95,"x_max":1095,"o":"m 757 1439 q 868 1426 819 1439 q 955 1389 917 1412 q 1019 1334 992 1365 q 1062 1267 1045 1303 q 1087 1195 1079 1232 q 1095 1122 1095 1158 l 1095 1091 l 916 1091 l 916 1122 q 904 1186 916 1158 q 871 1236 892 1215 q 821 1267 850 1256 q 757 1278 792 1278 l 433 1278 q 368 1267 397 1278 q 318 1236 339 1256 q 286 1186 297 1215 q 274 1122 274 1158 l 274 -342 q 286 -407 274 -378 q 318 -456 297 -435 q 368 -487 339 -476 q 433 -498 397 -498 l 757 -498 q 821 -487 792 -498 q 871 -456 850 -476 q 904 -407 892 -435 q 916 -336 916 -378 l 916 182 l 1095 182 l 1095 -342 q 1087 -415 1095 -378 q 1062 -488 1079 -452 q 1019 -554 1045 -523 q 955 -609 992 -585 q 868 -646 917 -632 q 757 -659 819 -659 l 433 -659 q 321 -646 370 -659 q 235 -609 273 -632 q 171 -554 197 -585 q 127 -488 144 -523 q 103 -415 111 -452 q 95 -342 95 -378 l 95 1122 q 103 1195 95 1158 q 127 1267 111 1232 q 171 1334 144 1303 q 235 1389 197 1365 q 321 1426 273 1412 q 433 1439 370 1439 l 757 1439 z "},"ွ":{"ha":0,"x_min":-749,"x_max":-125,"o":"m -749 -357 q -725 -235 -749 -292 q -657 -136 -700 -178 q -558 -69 -615 -94 q -437 -44 -501 -44 q -316 -69 -372 -44 q -217 -136 -259 -94 q -150 -235 -174 -178 q -125 -357 -125 -292 q -150 -478 -125 -421 q -217 -577 -174 -534 q -316 -644 -259 -619 q -437 -669 -372 -669 q -558 -644 -501 -669 q -657 -577 -615 -619 q -725 -478 -700 -534 q -749 -357 -749 -421 m -593 -356 q -581 -416 -593 -387 q -547 -466 -568 -445 q -497 -500 -526 -488 q -437 -513 -469 -513 q -376 -500 -405 -513 q -327 -466 -348 -488 q -293 -416 -305 -445 q -281 -356 -281 -387 q -293 -296 -281 -324 q -327 -246 -305 -267 q -376 -212 -348 -224 q -437 -200 -405 -200 q -497 -212 -469 -200 q -547 -246 -526 -224 q -581 -296 -568 -267 q -593 -356 -593 -324 z "},"ှ":{"ha":0,"x_min":-671,"x_max":-350,"o":"m -350 11 l -350 -652 l -671 -652 l -671 -492 l -522 -492 l -522 11 l -350 11 z "},"ၞ":{"ha":0,"x_min":-839,"x_max":-94,"o":"m -350 11 l -350 -188 q -249 -215 -296 -199 q -168 -246 -203 -231 q -94 -282 -127 -264 l -191 -423 q -234 -399 -210 -412 q -284 -377 -255 -389 q -350 -355 -313 -366 l -350 -420 q -364 -511 -350 -467 q -408 -591 -378 -556 q -484 -647 -437 -626 q -594 -669 -530 -669 q -705 -650 -659 -669 q -781 -598 -751 -631 q -825 -525 -811 -566 q -839 -438 -839 -483 q -820 -343 -839 -389 q -763 -261 -802 -297 q -665 -201 -724 -224 q -522 -174 -605 -178 l -522 11 l -350 11 m -658 -433 q -638 -489 -658 -470 q -592 -508 -619 -508 q -565 -502 -577 -508 q -543 -486 -552 -496 q -528 -463 -533 -476 q -522 -425 -522 -450 l -522 -334 q -621 -363 -583 -338 q -658 -433 -658 -389 z "},"ၟ":{"ha":0,"x_min":-839,"x_max":-130,"o":"m -350 11 l -350 -345 q -386 -336 -366 -340 q -426 -330 -403 -333 q -477 -328 -449 -328 q -612 -351 -566 -328 q -658 -414 -658 -374 q -645 -457 -658 -439 q -612 -486 -633 -475 q -564 -503 -592 -497 q -504 -508 -536 -508 q -385 -495 -437 -508 q -295 -467 -332 -483 q -218 -427 -252 -450 l -130 -557 q -232 -613 -176 -589 q -345 -651 -280 -634 q -488 -669 -410 -669 q -646 -647 -579 -669 q -755 -588 -712 -625 q -819 -504 -798 -551 q -839 -404 -839 -456 q -823 -325 -839 -365 q -771 -250 -808 -284 q -674 -193 -734 -216 q -522 -167 -613 -170 l -522 11 l -350 11 z "},"ၠ":{"ha":0,"x_min":-705,"x_max":-208,"o":"m -452 -492 l -208 -492 l -208 -652 l -699 -652 l -705 -642 l -406 -45 l -227 -45 l -452 -492 z "},"ႂ":{"ha":0,"x_min":-640,"x_max":-76,"o":"m -208 -450 l -76 -543 q -137 -606 -101 -578 q -172 -629 -153 -618 q -215 -649 -191 -640 q -266 -663 -238 -658 q -325 -669 -293 -669 q -433 -657 -386 -669 q -515 -624 -480 -645 q -574 -575 -550 -603 q -612 -514 -597 -547 q -633 -446 -627 -481 q -640 -376 -640 -411 q -627 -286 -640 -327 q -595 -212 -615 -245 q -549 -155 -575 -180 q -497 -111 -524 -130 q -355 -45 -435 -68 l -296 -206 q -378 -240 -342 -218 q -408 -262 -393 -250 q -433 -292 -422 -275 q -452 -329 -445 -309 q -458 -382 -458 -350 q -451 -431 -458 -410 q -428 -469 -444 -452 q -389 -497 -412 -486 q -334 -508 -366 -508 q -276 -499 -300 -508 q -237 -479 -252 -490 q -208 -450 -219 -467 z "},"ꩰ":{"ha":514,"x_min":-115,"x_max":629,"o":"m 558 1148 q 421 1205 495 1182 q 257 1228 347 1228 q 96 1207 172 1228 q -44 1148 21 1186 l -115 1251 q 58 1334 -39 1304 q 257 1364 154 1364 q 359 1355 308 1364 q 457 1332 410 1347 q 549 1296 505 1316 q 629 1251 593 1276 l 558 1148 m 558 895 q 422 967 497 941 q 257 994 347 994 q 97 969 172 994 q -44 895 22 943 l -115 996 q -39 1052 -82 1027 q 53 1094 4 1076 q 154 1120 102 1111 q 257 1130 206 1130 q 360 1120 308 1130 q 461 1093 412 1110 q 552 1050 509 1075 q 629 996 595 1025 l 558 895 z "},"အ":{"ha":1341,"x_min":64,"x_max":1267,"o":"m 516 203 q 510 229 516 218 q 495 248 505 240 q 474 262 486 256 q 450 271 463 267 q 385 281 421 279 l 385 415 l 385 415 q 396 415 386 415 q 421 418 406 416 q 452 425 435 420 q 483 438 469 429 q 507 459 497 446 q 516 492 516 473 q 509 519 516 505 q 485 547 501 534 q 444 569 469 560 q 385 577 419 577 q 321 569 347 577 q 280 548 296 560 q 257 520 264 535 q 250 494 250 506 l 64 494 q 86 580 64 541 q 148 649 107 620 q 248 694 189 677 q 385 711 308 711 q 528 691 464 711 q 635 634 592 671 q 751 689 688 668 q 881 711 814 711 q 1033 686 962 711 q 1155 614 1103 661 q 1237 504 1207 568 q 1267 360 1267 439 q 1239 208 1267 277 q 1163 89 1212 138 q 1047 11 1114 39 q 901 -16 980 -16 q 844 -12 869 -16 q 801 -1 819 -7 q 763 14 779 5 q 756 56 758 33 q 754 100 754 79 q 763 177 754 138 q 787 250 771 215 q 828 317 804 286 q 884 372 852 348 q 971 421 927 405 q 1063 441 1016 438 q 1034 485 1051 465 q 992 519 1016 505 q 938 542 968 534 q 874 550 909 550 q 782 536 827 550 q 701 496 737 522 q 701 494 701 495 q 701 491 701 492 q 692 442 701 464 q 667 403 682 420 q 630 372 651 386 q 587 349 610 359 l 587 343 q 630 322 609 334 q 667 292 651 309 q 692 253 682 275 q 701 203 701 231 q 677 112 701 153 q 611 43 654 71 q 511 -1 569 14 q 385 -16 453 -16 q 248 0 308 -16 q 148 45 189 16 q 86 114 107 75 q 64 200 64 154 l 250 200 q 257 174 250 189 q 280 147 264 159 q 321 126 296 134 q 385 117 347 117 q 444 126 419 117 q 485 147 469 134 q 509 175 501 160 q 516 203 516 190 m 900 144 q 962 156 932 144 q 1015 188 991 167 q 1055 240 1038 210 q 1078 310 1071 271 q 1023 300 1050 308 q 970 272 996 292 q 923 215 941 250 q 897 144 904 180 l 900 144 z "},"ဢ":{"ha":1467,"x_min":68,"x_max":1392,"o":"m 1207 359 q 1196 431 1207 396 q 1163 492 1185 465 q 1105 534 1140 518 q 1020 550 1069 550 q 947 538 980 550 q 890 506 915 526 q 849 458 866 486 q 824 401 832 431 q 829 341 829 373 q 816 237 829 288 q 781 140 804 186 q 727 56 758 95 q 660 -12 696 18 l 541 117 q 578 158 559 135 q 611 208 596 180 q 634 269 625 236 q 644 340 644 302 q 630 415 644 378 q 589 483 616 452 q 521 531 562 513 q 428 550 481 550 q 356 540 386 550 q 306 513 326 530 q 276 475 286 496 q 267 432 267 454 q 277 385 267 405 q 302 348 287 366 q 336 314 318 331 q 369 276 353 297 q 395 228 385 255 q 405 161 405 200 q 392 90 405 123 q 357 34 380 58 q 303 -3 335 10 q 234 -16 272 -16 q 189 -13 212 -16 q 143 -3 165 -10 q 102 14 121 3 q 68 41 82 25 l 134 157 q 152 142 142 149 q 172 132 160 136 q 197 127 183 127 q 229 138 218 127 q 240 167 240 149 q 228 203 240 187 q 199 233 216 218 q 161 265 181 248 q 123 305 140 282 q 93 360 105 328 q 81 436 81 391 q 105 547 81 496 q 174 634 130 597 q 283 690 219 670 q 428 711 347 711 q 605 677 527 711 q 736 587 684 644 q 857 677 785 644 q 1020 711 928 711 q 1170 686 1101 711 q 1288 614 1238 661 q 1365 504 1337 568 q 1392 360 1392 439 q 1365 208 1392 277 q 1289 89 1337 138 q 1173 11 1240 39 q 1026 -16 1105 -16 q 969 -12 995 -16 q 926 -1 944 -7 q 888 14 905 5 l 939 163 q 966 153 952 157 q 994 147 979 150 q 1025 144 1009 144 q 1096 159 1063 144 q 1154 202 1129 174 q 1193 270 1179 231 q 1207 359 1207 310 z "},"ဣ":{"ha":1466,"x_min":75,"x_max":1392,"o":"m 644 341 q 632 416 644 378 q 596 483 620 453 q 536 531 572 513 q 452 550 500 550 q 366 531 402 550 q 307 483 330 513 q 271 415 283 452 q 260 340 260 378 q 269 269 260 302 q 293 208 278 236 q 326 158 307 180 q 362 117 344 135 l 243 -12 q 176 56 207 18 q 122 140 145 95 q 87 237 100 186 q 75 341 75 288 q 102 488 75 420 q 180 605 130 555 q 299 683 230 654 q 452 711 368 711 q 535 700 495 711 q 611 671 576 690 q 677 626 647 652 q 733 567 708 600 q 788 626 758 600 q 854 671 819 652 q 930 700 890 690 q 1015 711 970 711 q 1167 683 1098 711 q 1286 605 1236 654 q 1364 488 1336 555 q 1392 341 1392 420 q 1379 237 1392 288 q 1344 140 1367 186 q 1290 56 1321 95 q 1223 -12 1259 18 l 1104 117 q 1141 158 1122 135 q 1174 208 1159 180 q 1197 269 1188 236 q 1206 340 1206 302 q 1195 415 1206 378 q 1160 483 1183 452 q 1100 531 1136 513 q 1015 550 1064 550 q 930 531 966 550 q 870 483 895 513 q 834 416 846 453 q 823 341 823 378 l 823 167 l 644 167 l 644 341 m 652 -380 q 642 -323 652 -350 q 612 -275 632 -296 q 563 -243 593 -255 q 493 -231 532 -231 q 429 -243 458 -231 q 379 -276 399 -255 q 347 -323 358 -296 q 335 -386 335 -351 q 342 -444 335 -417 q 362 -493 350 -471 q 389 -534 374 -515 q 419 -568 404 -553 l 302 -672 q 246 -616 271 -648 q 202 -548 220 -585 q 173 -470 184 -511 q 163 -385 163 -429 q 189 -255 163 -313 q 260 -156 215 -197 q 365 -93 304 -115 q 493 -71 425 -71 q 572 -79 536 -71 q 638 -103 608 -87 q 693 -140 668 -119 q 739 -188 718 -161 q 784 -140 759 -161 q 839 -103 808 -119 q 905 -79 869 -87 q 984 -71 941 -71 q 1113 -93 1053 -71 q 1217 -156 1173 -115 q 1288 -255 1262 -197 q 1314 -385 1314 -313 q 1309 -443 1314 -418 q 1293 -490 1303 -467 l 1381 -490 l 1381 -651 l 1153 -651 l 1058 -568 q 1088 -534 1073 -553 q 1115 -493 1103 -515 q 1135 -444 1127 -471 q 1142 -386 1142 -417 q 1131 -323 1142 -351 q 1100 -276 1120 -296 q 1050 -243 1080 -255 q 984 -231 1021 -231 q 914 -243 944 -231 q 865 -275 884 -255 q 835 -323 845 -296 q 825 -380 825 -350 l 825 -526 l 652 -526 l 652 -380 z "},"ဤ":{"ha":1773,"x_min":75,"x_max":1721,"o":"m 1213 359 q 1202 431 1213 396 q 1167 492 1191 465 q 1108 534 1144 518 q 1023 550 1073 550 q 948 537 982 550 q 890 503 915 525 q 849 453 865 481 q 825 391 832 424 q 828 367 827 379 q 829 341 829 354 q 816 237 829 288 q 781 140 804 186 q 727 56 758 95 q 660 -12 696 18 l 541 117 q 578 158 559 135 q 611 208 596 180 q 634 269 625 236 q 644 340 644 302 q 632 415 644 378 q 597 483 621 452 q 537 531 573 513 q 452 550 501 550 q 366 531 402 550 q 307 483 330 513 q 271 415 283 452 q 260 340 260 378 q 269 269 260 302 q 293 208 278 236 q 326 158 307 180 q 362 117 344 135 l 243 -12 q 176 56 207 18 q 122 140 145 95 q 87 237 100 186 q 75 341 75 288 q 102 488 75 420 q 180 605 130 555 q 299 683 230 654 q 452 711 368 711 q 615 677 541 711 q 739 587 688 644 q 860 677 788 644 q 1023 711 932 711 q 1173 686 1105 711 q 1289 614 1240 661 q 1365 504 1338 568 q 1392 360 1392 439 l 1392 -342 q 1384 -415 1392 -378 q 1360 -488 1377 -452 q 1316 -554 1343 -523 q 1252 -609 1290 -585 q 1165 -646 1215 -632 q 1055 -659 1116 -659 l 376 -659 q 254 -644 308 -659 q 164 -600 201 -629 q 107 -530 127 -571 q 88 -437 88 -489 q 115 -347 88 -387 q 191 -280 141 -307 q 313 -240 241 -254 q 477 -226 386 -226 q 668 -237 581 -226 q 822 -262 756 -249 q 961 -299 899 -279 l 911 -441 q 793 -407 859 -422 q 660 -383 736 -394 q 493 -372 584 -372 q 329 -389 385 -372 q 273 -438 273 -406 q 278 -467 273 -457 q 296 -484 283 -477 q 328 -495 308 -491 q 378 -498 348 -498 l 1055 -498 q 1119 -487 1090 -498 q 1169 -456 1148 -476 q 1202 -407 1190 -435 q 1213 -342 1213 -378 l 1213 359 m 1589 1149 q 1560 1179 1577 1166 q 1520 1199 1544 1190 q 1462 1208 1497 1208 q 1407 1197 1430 1208 q 1369 1169 1384 1186 q 1345 1131 1353 1152 q 1338 1075 1338 1109 q 1352 1016 1338 1042 q 1384 967 1365 989 q 1425 930 1404 946 q 1461 905 1446 915 q 1558 832 1517 868 q 1626 758 1599 795 q 1665 679 1652 720 q 1678 591 1678 638 l 1678 -652 l 1499 -652 l 1499 585 q 1485 644 1499 617 q 1451 693 1472 671 q 1407 735 1431 716 q 1360 770 1382 754 q 1322 797 1343 782 q 1277 830 1300 811 q 1233 872 1255 848 q 1195 925 1212 895 q 1167 992 1178 955 q 1157 1076 1157 1030 q 1175 1181 1157 1128 q 1231 1275 1194 1233 q 1327 1342 1269 1316 q 1465 1369 1385 1369 q 1525 1363 1497 1369 q 1576 1349 1552 1358 q 1620 1329 1600 1340 q 1656 1305 1640 1317 q 1721 1242 1693 1278 l 1589 1149 z "},"ဥ":{"ha":821,"x_min":61,"x_max":747,"o":"m 385 -659 q 275 -646 323 -659 q 191 -609 227 -632 q 130 -554 155 -585 q 90 -488 105 -523 q 68 -415 75 -452 q 61 -342 61 -378 l 61 181 l 210 257 q 238 213 222 233 q 275 177 254 192 q 322 153 296 161 q 380 144 348 144 q 451 159 418 144 q 508 201 484 174 q 547 266 533 229 q 562 348 562 303 q 552 418 562 382 q 520 483 542 454 q 464 531 498 513 q 380 550 430 550 q 321 541 348 550 q 274 517 295 532 q 238 481 254 502 q 210 437 222 460 l 61 513 q 113 593 82 557 q 183 655 143 629 q 273 696 223 682 q 380 711 322 711 q 529 684 462 711 q 645 609 597 657 q 720 494 694 561 q 747 349 747 428 q 719 198 747 265 q 643 83 692 131 q 527 9 594 35 q 380 -16 460 -16 q 240 9 304 -16 l 240 -342 q 250 -407 240 -378 q 277 -456 259 -435 q 323 -487 296 -476 q 385 -498 350 -498 l 422 -498 q 485 -487 458 -498 q 530 -456 512 -476 q 558 -407 549 -435 q 568 -342 568 -378 l 568 -269 l 747 -269 l 747 -342 q 740 -415 747 -378 q 718 -488 733 -452 q 678 -554 703 -523 q 617 -609 653 -585 q 532 -646 581 -632 q 422 -659 484 -659 l 385 -659 z "},"ဦ":{"ha":821,"x_min":61,"x_max":747,"o":"m 385 -659 q 275 -646 323 -659 q 191 -609 227 -632 q 130 -554 155 -585 q 90 -488 105 -523 q 68 -415 75 -452 q 61 -342 61 -378 l 61 181 l 210 257 q 238 213 222 233 q 275 177 254 192 q 322 153 296 161 q 380 144 348 144 q 451 159 418 144 q 508 201 484 174 q 547 266 533 229 q 562 348 562 303 q 552 418 562 382 q 520 483 542 454 q 464 531 498 513 q 380 550 430 550 q 321 541 348 550 q 274 517 295 532 q 238 481 254 502 q 210 437 222 460 l 61 513 q 113 593 82 557 q 183 655 143 629 q 273 696 223 682 q 380 711 322 711 q 529 684 462 711 q 645 609 597 657 q 720 494 694 561 q 747 349 747 428 q 719 198 747 265 q 643 83 692 131 q 527 9 594 35 q 380 -16 460 -16 q 240 9 304 -16 l 240 -342 q 250 -407 240 -378 q 277 -456 259 -435 q 323 -487 296 -476 q 385 -498 350 -498 l 422 -498 q 485 -487 458 -498 q 530 -456 512 -476 q 558 -407 549 -435 q 568 -342 568 -378 l 568 -269 l 747 -269 l 747 -342 q 740 -415 747 -378 q 718 -488 733 -452 q 678 -554 703 -523 q 617 -609 653 -585 q 532 -646 581 -632 q 422 -659 484 -659 l 385 -659 m 705 1055 q 682 925 705 983 q 615 826 658 867 q 515 762 573 785 q 389 740 457 740 q 263 762 321 740 q 162 826 205 785 q 96 925 120 867 q 73 1055 73 983 q 96 1181 73 1124 q 160 1281 119 1239 q 260 1346 202 1322 q 389 1369 319 1369 q 518 1346 460 1369 q 617 1281 576 1322 q 682 1181 659 1239 q 705 1055 705 1124 m 545 1055 q 537 1116 545 1085 q 510 1172 528 1147 q 461 1214 491 1198 q 389 1230 432 1230 q 317 1214 347 1230 q 268 1172 287 1198 q 241 1116 250 1147 q 233 1055 233 1085 q 233 1046 233 1050 q 233 1036 233 1041 q 302 1079 264 1063 q 389 1095 340 1095 q 476 1081 438 1095 q 545 1040 515 1066 l 545 1055 m 389 879 q 450 892 422 879 q 500 929 479 905 q 451 962 478 949 q 390 974 423 974 q 332 962 361 974 q 279 928 303 950 q 329 892 301 905 q 389 879 357 879 z "},"ဧ":{"ha":842,"x_min":75,"x_max":778,"o":"m 456 584 q 400 575 426 584 q 354 552 375 567 q 420 514 382 528 q 503 500 458 500 q 555 506 530 500 q 602 528 581 513 q 538 569 575 554 q 456 584 501 584 m 75 348 q 103 494 75 427 q 181 608 131 560 q 302 684 232 656 q 456 711 372 711 q 654 661 573 711 q 778 523 736 611 q 724 464 754 490 q 659 418 694 437 q 583 389 624 399 q 498 379 543 379 q 377 398 432 379 q 279 452 321 416 q 260 348 260 400 q 265 295 260 322 q 279 243 270 269 q 377 297 321 278 q 498 315 432 315 q 583 305 543 315 q 659 276 624 295 q 724 231 694 257 q 778 172 754 204 q 654 34 736 83 q 456 -16 573 -16 q 302 11 372 -16 q 181 86 232 38 q 103 202 131 135 q 75 348 75 269 m 456 111 q 538 125 501 111 q 602 166 575 140 q 555 188 581 182 q 503 195 530 195 q 420 181 458 195 q 354 142 382 167 q 400 119 375 127 q 456 111 426 111 z "},"ဨ":{"ha":964,"x_min":95,"x_max":889,"o":"m 536 -16 q 448 -5 485 -16 q 386 27 410 7 q 350 75 361 47 q 338 134 338 102 q 352 192 338 168 q 385 235 365 216 q 427 266 404 253 q 470 291 450 279 q 503 313 490 302 q 516 338 516 324 q 508 358 516 349 q 484 366 499 366 q 455 360 467 366 q 435 348 444 355 q 419 330 426 340 l 344 410 q 407 463 369 442 q 486 483 446 483 q 554 471 524 483 q 605 439 584 459 q 638 395 627 420 q 649 342 649 370 q 638 286 649 309 q 611 246 627 262 q 576 219 595 230 q 542 198 557 208 q 515 180 526 189 q 504 158 504 171 q 513 138 504 144 q 536 132 522 132 q 604 149 573 132 q 657 196 635 166 q 692 268 680 227 q 704 359 704 310 q 690 431 704 396 q 650 492 676 465 q 585 534 623 518 q 496 550 546 550 q 406 532 447 550 q 336 486 366 515 q 290 419 307 457 q 274 342 274 382 l 274 -297 q 290 -376 274 -338 q 336 -444 307 -414 q 406 -490 366 -473 q 496 -508 447 -508 q 585 -492 546 -508 q 650 -450 623 -476 q 690 -389 676 -423 q 704 -317 704 -354 l 889 -317 q 858 -461 889 -397 q 774 -572 827 -526 q 649 -644 721 -618 q 496 -669 578 -669 q 336 -642 410 -669 q 209 -566 262 -614 q 125 -450 155 -517 q 95 -301 95 -382 l 95 342 q 126 491 95 423 q 212 608 157 559 q 342 684 267 656 q 503 711 416 711 q 663 683 591 711 q 785 607 734 655 q 862 496 835 559 q 889 360 889 432 q 862 208 889 277 q 788 89 836 138 q 677 11 741 39 q 536 -16 612 -16 z "},"ဩ":{"ha":1728,"x_min":95,"x_max":1653,"o":"m 433 -659 q 321 -646 370 -659 q 235 -609 273 -632 q 171 -554 197 -585 q 127 -488 144 -523 q 103 -415 111 -452 q 95 -342 95 -378 l 95 1122 q 103 1195 95 1158 q 127 1267 111 1232 q 171 1334 144 1303 q 235 1389 197 1365 q 321 1426 273 1412 q 433 1439 370 1439 l 1278 1439 q 1389 1426 1339 1439 q 1475 1389 1438 1412 q 1539 1334 1513 1365 q 1583 1267 1566 1303 q 1608 1195 1600 1232 q 1615 1122 1615 1158 l 1615 1091 l 1436 1091 l 1436 1122 q 1425 1186 1436 1158 q 1392 1236 1413 1215 q 1342 1267 1371 1256 q 1278 1278 1313 1278 l 433 1278 q 368 1267 397 1278 q 318 1236 339 1256 q 286 1186 297 1215 q 274 1122 274 1158 l 274 -342 q 286 -407 274 -378 q 318 -456 297 -435 q 368 -487 339 -476 q 433 -498 397 -498 l 1278 -498 q 1342 -487 1313 -498 q 1392 -456 1371 -476 q 1425 -407 1413 -435 q 1436 -342 1436 -378 l 1436 12 q 1362 -9 1401 -1 q 1281 -16 1324 -16 q 1124 14 1194 -16 q 1006 97 1055 44 q 887 14 958 43 q 730 -16 817 -16 q 623 -2 672 -16 q 533 39 573 13 q 463 101 493 65 q 411 182 432 138 l 560 258 q 588 213 572 234 q 624 177 604 193 q 671 153 645 162 q 730 144 698 144 q 814 163 780 144 q 870 211 848 182 q 902 276 892 241 q 911 347 911 312 q 897 429 911 391 q 858 493 883 466 q 801 535 833 520 q 730 550 768 550 q 672 542 698 550 q 625 518 646 533 q 588 482 604 503 q 560 437 572 461 l 411 513 q 463 594 432 557 q 533 656 493 630 q 623 696 573 682 q 730 711 672 711 q 877 685 810 711 q 993 611 944 659 q 1069 496 1042 564 q 1097 346 1097 429 q 1090 276 1097 309 q 1118 224 1101 248 q 1159 182 1135 200 q 1213 155 1183 165 q 1281 144 1244 144 q 1366 162 1331 144 q 1424 207 1401 179 q 1457 271 1447 235 q 1468 343 1468 307 q 1454 434 1468 395 q 1415 498 1440 473 q 1357 537 1390 524 q 1286 550 1324 550 q 1255 547 1270 550 q 1227 541 1240 544 q 1200 532 1213 536 l 1149 680 q 1187 695 1166 688 q 1231 706 1205 701 q 1287 711 1256 711 q 1434 686 1367 711 q 1550 615 1501 662 q 1626 499 1598 568 q 1653 342 1653 431 q 1644 254 1653 296 q 1615 174 1634 212 l 1615 -342 q 1608 -415 1615 -378 q 1583 -488 1600 -452 q 1539 -554 1566 -523 q 1475 -609 1513 -585 q 1389 -646 1438 -632 q 1278 -659 1339 -659 l 433 -659 z "},"ဪ":{"ha":3180,"x_min":75,"x_max":3084,"o":"m 75 349 q 101 494 75 428 q 176 609 127 561 q 292 684 224 657 q 441 711 359 711 q 549 696 499 711 q 638 655 598 682 q 709 593 678 629 q 760 513 739 557 l 611 437 q 584 481 600 460 q 547 517 568 502 q 500 541 526 532 q 441 550 473 550 q 357 531 391 550 q 301 483 323 513 q 270 418 279 454 q 260 348 260 382 q 268 286 260 315 q 371 353 313 328 q 500 378 429 378 q 587 370 546 378 q 663 348 627 362 q 727 313 698 333 q 777 269 755 293 q 744 160 771 212 q 674 69 718 109 q 571 7 631 30 q 441 -16 512 -16 q 294 9 361 -16 q 178 83 227 35 q 102 198 130 131 q 75 349 75 265 m 441 144 q 539 171 500 144 q 602 239 578 198 q 555 257 581 251 q 501 264 530 264 q 403 240 446 264 q 332 184 360 217 q 382 155 355 165 q 441 144 410 144 m 1226 -659 q 1115 -646 1164 -659 q 1028 -609 1066 -632 q 964 -554 991 -585 q 921 -488 938 -523 q 896 -415 904 -452 q 888 -342 888 -378 l 888 1122 q 896 1195 888 1158 q 921 1267 904 1232 q 964 1334 938 1303 q 1028 1389 991 1365 q 1115 1426 1066 1412 q 1226 1439 1164 1439 l 2071 1439 q 2182 1426 2133 1439 q 2269 1389 2231 1412 q 2333 1334 2306 1365 q 2376 1267 2359 1303 q 2401 1195 2393 1232 q 2409 1122 2409 1158 l 2409 1091 l 2230 1091 l 2230 1122 q 2218 1186 2230 1158 q 2186 1236 2207 1215 q 2136 1267 2165 1256 q 2071 1278 2106 1278 l 1226 1278 q 1162 1267 1191 1278 q 1112 1236 1133 1256 q 1079 1186 1090 1215 q 1067 1122 1067 1158 l 1067 -342 q 1079 -407 1067 -378 q 1112 -456 1090 -435 q 1162 -487 1133 -476 q 1226 -498 1191 -498 l 2071 -498 q 2136 -487 2106 -498 q 2186 -456 2165 -476 q 2218 -407 2207 -435 q 2230 -342 2230 -378 l 2230 12 q 2156 -9 2195 -1 q 2075 -16 2117 -16 q 1918 14 1987 -16 q 1800 97 1848 44 q 1681 14 1751 43 q 1524 -16 1611 -16 q 1416 -2 1466 -16 q 1326 39 1367 13 q 1256 101 1286 65 q 1204 182 1225 138 l 1354 258 q 1381 213 1365 234 q 1418 177 1397 193 q 1465 153 1438 162 q 1524 144 1491 144 q 1608 163 1573 144 q 1664 211 1642 182 q 1695 276 1685 241 q 1705 347 1705 312 q 1691 429 1705 391 q 1652 493 1676 466 q 1594 535 1627 520 q 1524 550 1561 550 q 1465 542 1491 550 q 1418 518 1439 533 q 1381 482 1397 503 q 1354 437 1365 461 l 1204 513 q 1256 594 1225 557 q 1326 656 1286 630 q 1416 696 1367 682 q 1524 711 1466 711 q 1670 685 1603 711 q 1786 611 1737 659 q 1863 496 1835 564 q 1890 346 1890 429 q 1884 276 1890 309 q 1911 224 1894 248 q 1952 182 1928 200 q 2007 155 1976 165 q 2075 144 2037 144 q 2159 162 2124 144 q 2217 207 2195 179 q 2251 271 2240 235 q 2262 343 2262 307 q 2247 434 2262 395 q 2208 498 2233 473 q 2150 537 2184 524 q 2080 550 2117 550 q 2048 547 2064 550 q 2021 541 2033 544 q 1994 532 2007 536 l 1943 680 q 1981 695 1959 688 q 2024 706 1999 701 q 2081 711 2049 711 q 2227 686 2160 711 q 2343 615 2294 662 q 2419 499 2392 568 q 2447 342 2447 431 q 2437 254 2447 296 q 2409 174 2427 212 l 2409 -342 q 2401 -415 2409 -378 q 2376 -488 2393 -452 q 2333 -554 2359 -523 q 2269 -609 2306 -585 q 2182 -646 2231 -632 q 2071 -659 2133 -659 l 1226 -659 m 2878 359 q 2867 431 2878 396 q 2834 492 2856 465 q 2776 534 2811 518 q 2691 550 2740 550 q 2639 544 2664 550 q 2591 529 2614 538 q 2549 507 2568 519 q 2512 482 2529 495 q 2441 415 2473 452 l 2334 530 q 2426 620 2373 580 q 2477 653 2449 637 q 2538 682 2505 669 q 2610 703 2572 695 q 2691 711 2648 711 q 2841 686 2772 711 q 2959 614 2909 661 q 3036 504 3008 568 q 3063 360 3063 439 q 3036 208 3063 277 q 2960 89 3008 138 q 2844 11 2911 39 q 2697 -16 2776 -16 q 2640 -12 2666 -16 q 2597 -1 2615 -7 q 2559 14 2576 5 l 2610 163 q 2637 153 2623 157 q 2665 147 2650 150 q 2696 144 2680 144 q 2767 159 2734 144 q 2825 202 2800 174 q 2864 270 2850 231 q 2878 359 2878 310 m 2520 1059 q 2543 1180 2520 1124 q 2609 1277 2566 1236 q 2710 1341 2651 1318 q 2839 1364 2768 1364 q 2929 1354 2890 1364 q 2996 1327 2967 1344 q 3046 1289 3025 1310 q 3084 1244 3067 1267 l 2975 1156 q 2957 1179 2968 1166 q 2929 1201 2945 1191 q 2890 1219 2912 1212 q 2839 1226 2868 1226 q 2766 1211 2796 1226 q 2717 1172 2736 1196 q 2690 1118 2698 1148 q 2681 1059 2681 1088 q 2732 945 2681 990 q 2873 877 2782 901 l 2829 741 q 2707 783 2764 757 q 2609 847 2651 808 q 2544 938 2568 886 q 2520 1059 2520 990 z "},"ါ":{"ha":369,"x_min":-401,"x_max":274,"o":"m -401 1048 q -394 1120 -401 1083 q -369 1193 -386 1158 q -326 1259 -352 1228 q -261 1314 -299 1291 q -175 1351 -224 1337 q -64 1364 -126 1364 q 47 1351 -2 1364 q 134 1314 96 1337 q 198 1259 172 1291 q 241 1193 224 1228 q 266 1120 258 1158 q 274 1048 274 1083 l 274 0 l 95 0 l 95 1048 q 83 1112 95 1083 q 51 1161 72 1141 q 1 1193 30 1181 q -64 1204 -28 1204 q -128 1193 -99 1204 q -178 1161 -157 1181 q -211 1112 -199 1141 q -222 1048 -222 1083 l -401 1048 z "},"ာ":{"ha":629,"x_min":-176,"x_max":554,"o":"m 369 359 q 358 431 369 396 q 325 492 347 465 q 267 534 302 518 q 182 550 231 550 q 130 544 155 550 q 82 529 104 538 q 39 507 59 519 q 3 482 20 495 q -68 415 -37 452 l -176 530 q -83 620 -136 580 q -32 653 -60 637 q 29 682 -4 669 q 101 703 62 695 q 182 711 139 711 q 332 686 263 711 q 450 614 400 661 q 527 504 499 568 q 554 360 554 439 q 527 208 554 277 q 450 89 499 138 q 334 11 401 39 q 188 -16 267 -16 q 131 -12 157 -16 q 88 -1 106 -7 q 50 14 66 5 l 101 163 q 128 153 114 157 q 156 147 140 150 q 187 144 171 144 q 258 159 224 144 q 316 202 291 174 q 355 270 340 231 q 369 359 369 310 z "},"ိ":{"ha":0,"x_min":-749,"x_max":-125,"o":"m -749 1052 q -725 1173 -749 1116 q -657 1273 -700 1230 q -558 1340 -615 1315 q -437 1364 -501 1364 q -316 1340 -372 1364 q -217 1273 -259 1315 q -150 1173 -174 1230 q -125 1052 -125 1116 q -150 931 -125 987 q -217 832 -174 874 q -316 765 -259 789 q -437 740 -372 740 q -558 765 -501 740 q -657 832 -615 789 q -725 931 -700 874 q -749 1052 -749 987 m -593 1053 q -581 992 -593 1021 q -547 942 -568 964 q -497 908 -526 921 q -437 896 -469 896 q -376 908 -405 896 q -327 942 -348 921 q -293 992 -305 964 q -281 1053 -281 1021 q -293 1113 -281 1084 q -327 1163 -305 1141 q -376 1196 -348 1184 q -437 1208 -405 1208 q -497 1196 -469 1208 q -547 1163 -526 1184 q -581 1113 -568 1141 q -593 1053 -593 1084 z "},"ီ":{"ha":0,"x_min":-758,"x_max":-125,"o":"m -125 1055 q -149 925 -125 983 q -215 826 -173 867 q -316 762 -258 785 q -441 740 -374 740 q -568 762 -510 740 q -668 826 -626 785 q -734 925 -711 867 q -758 1055 -758 983 q -735 1181 -758 1124 q -670 1281 -712 1239 q -570 1346 -629 1322 q -441 1369 -512 1369 q -313 1346 -371 1369 q -213 1281 -255 1322 q -149 1181 -172 1239 q -125 1055 -125 1124 m -286 1055 q -294 1116 -286 1085 q -321 1172 -302 1147 q -369 1214 -340 1198 q -441 1230 -399 1230 q -514 1214 -484 1230 q -563 1172 -544 1198 q -590 1116 -581 1147 q -598 1055 -598 1085 q -598 1046 -598 1050 q -597 1036 -598 1041 q -529 1079 -567 1063 q -441 1095 -490 1095 q -354 1081 -393 1095 q -286 1040 -316 1066 l -286 1055 m -441 879 q -380 892 -409 879 q -331 929 -352 905 q -380 962 -353 949 q -441 974 -408 974 q -498 962 -469 974 q -551 928 -528 950 q -502 892 -530 905 q -441 879 -474 879 z "},"ု":{"ha":0,"x_min":-522,"x_max":-201,"o":"m -350 11 l -350 -492 l -201 -492 l -201 -652 l -522 -652 l -522 11 l -350 11 z "},"ူ":{"ha":0,"x_min":-665,"x_max":-62,"o":"m -211 79 l -211 -492 l -62 -492 l -62 -652 l -383 -652 l -383 79 l -211 79 m -493 79 l -493 -652 l -665 -652 l -665 79 l -493 79 z "}}}
